<svg xmlns="http://www.w3.org/2000/svg" width="970" height="650" viewBox="0 0 970 650"><rect width="970" height="650" fill="#ffffff"/><defs><linearGradient id="g" x1="0" y1="0" x2="1" y2="1"><stop offset="0" stop-color="#1d3f72"/><stop offset="1" stop-color="#39b87a"/></linearGradient></defs><path fill="none" stroke="url(#g)" stroke-width="1" stroke-linecap="round" stroke-linejoin="round" d="M750 430L760 430L760 420L750 420L750 410L740 410L740 420L730 420L730 410L720 410L720 420L730 420L730 430L720 430L720 440L710 440L710 430L700 430L700 440L710 440L710 450L720 450L720 440L730 440L730 450L720 450L720 460L730 460L730 470L720 470L720 480L710 480L710 470L700 470L700 480L710 480L710 490L720 490L720 480L730 480L730 490L740 490L740 480L730 480L730 470L740 470L740 460L750 460L750 470L740 470L740 480L750 480L750 490L760 490L760 480L770 480L770 490L760 490L760 500L770 500L770 510L760 510L760 520L750 520L750 510L740 510L740 520L750 520L750 530L760 530L760 520L770 520L770 530L780 530L780 520L770 520L770 510L780 510L780 500L790 500L790 510L800 510L800 500L790 500L790 490L780 490L780 500L770 500L770 490L780 490L780 480L770 480L770 470L780 470L780 460L790 460L790 470L780 470L780 480L790 480L790 490L800 490L800 480L810 480L810 490L820 490L820 480L810 480L810 470L820 470L820 460L830 460L830 470L820 470L820 480L830 480L830 490L840 490L840 480L850 480L850 490L840 490L840 500L850 500L850 510L840 510L840 520L830 520L830 510L820 510L820 520L830 520L830 530L840 530L840 520L850 520L850 530L860 530L860 520L850 520L850 510L860 510L860 500L870 500L870 510L880 510L880 500L870 500L870 490L860 490L860 500L850 500L850 490L860 490L860 480L850 480L850 470L860 470L860 460L870 460L870 470L880 470L880 460L870 460L870 450L860 450L860 460L850 460L850 450L840 450L840 460L850 460L850 470L840 470L840 480L830 480L830 470L840 470L840 460L830 460L830 450L820 450L820 460L810 460L810 450L820 450L820 440L810 440L810 430L820 430L820 420L830 420L830 430L820 430L820 440L830 440L830 450L840 450L840 440L850 440L850 450L860 450L860 440L850 440L850 430L860 430L860 420L870 420L870 430L880 430L880 420L870 420L870 410L860 410L860 420L850 420L850 410L860 410L860 400L850 400L850 390L860 390L860 380L870 380L870 390L860 390L860 400L870 400L870 410L880 410L880 400L890 400L890 410L900 410L900 400L890 400L890 390L900 390L900 380L910 380L910 390L900 390L900 400L910 400L910 410L920 410L920 400L930 400L930 410L920 410L920 420L930 420L930 430L920 430L920 440L910 440L910 430L900 430L900 440L910 440L910 450L920 450L920 440L930 440L930 450L940 450L940 440L930 440L930 430L940 430L940 420L950 420L950 430L960 430L960 420L950 420L950 410L940 410L940 420L930 420L930 410L940 410L940 400L930 400L930 390L940 390L940 380L950 380L950 390L960 390L960 380L950 380L950 370L940 370L940 380L930 380L930 370L920 370L920 380L930 380L930 390L920 390L920 400L910 400L910 390L920 390L920 380L910 380L910 370L900 370L900 380L890 380L890 370L900 370L900 360L890 360L890 350L900 350L900 340L910 340L910 350L920 350L920 340L910 340L910 330L900 330L900 340L890 340L890 330L880 330L880 340L890 340L890 350L880 350L880 360L870 360L870 350L860 350L860 360L870 360L870 370L880 370L880 360L890 360L890 370L880 370L880 380L890 380L890 390L880 390L880 400L870 400L870 390L880 390L880 380L870 380L870 370L860 370L860 380L850 380L850 370L840 370L840 380L850 380L850 390L840 390L840 400L830 400L830 390L840 390L840 380L830 380L830 370L820 370L820 380L810 380L810 370L820 370L820 360L810 360L810 350L820 350L820 340L830 340L830 350L820 350L820 360L830 360L830 370L840 370L840 360L850 360L850 370L860 370L860 360L850 360L850 350L860 350L860 340L870 340L870 350L880 350L880 340L870 340L870 330L860 330L860 340L850 340L850 330L860 330L860 320L850 320L850 310L860 310L860 300L870 300L870 310L880 310L880 300L870 300L870 290L860 290L860 300L850 300L850 290L840 290L840 300L850 300L850 310L840 310L840 320L830 320L830 310L840 310L840 300L830 300L830 290L820 290L820 300L810 300L810 290L820 290L820 280L810 280L810 270L820 270L820 260L830 260L830 270L820 270L820 280L830 280L830 290L840 290L840 280L850 280L850 290L860 290L860 280L850 280L850 270L860 270L860 260L870 260L870 270L880 270L880 260L870 260L870 250L860 250L860 260L850 260L850 250L860 250L860 240L850 240L850 230L860 230L860 220L870 220L870 230L860 230L860 240L870 240L870 250L880 250L880 240L890 240L890 250L900 250L900 240L890 240L890 230L900 230L900 220L910 220L910 230L900 230L900 240L910 240L910 250L920 250L920 240L930 240L930 250L920 250L920 260L930 260L930 270L920 270L920 280L910 280L910 270L900 270L900 280L910 280L910 290L920 290L920 280L930 280L930 290L940 290L940 280L930 280L930 270L940 270L940 260L950 260L950 270L960 270L960 260L950 260L950 250L940 250L940 260L930 260L930 250L940 250L940 240L930 240L930 230L940 230L940 220L950 220L950 230L960 230L960 220L950 220L950 210L940 210L940 220L930 220L930 210L920 210L920 220L930 220L930 230L920 230L920 240L910 240L910 230L920 230L920 220L910 220L910 210L900 210L900 220L890 220L890 210L900 210L900 200L890 200L890 190L900 190L900 180L910 180L910 190L920 190L920 180L910 180L910 170L900 170L900 180L890 180L890 170L880 170L880 180L890 180L890 190L880 190L880 200L870 200L870 190L860 190L860 200L870 200L870 210L880 210L880 200L890 200L890 210L880 210L880 220L890 220L890 230L880 230L880 240L870 240L870 230L880 230L880 220L870 220L870 210L860 210L860 220L850 220L850 210L840 210L840 220L850 220L850 230L840 230L840 240L830 240L830 230L840 230L840 220L830 220L830 210L820 210L820 220L810 220L810 210L820 210L820 200L810 200L810 190L820 190L820 180L830 180L830 190L840 190L840 180L830 180L830 170L820 170L820 180L810 180L810 170L800 170L800 180L810 180L810 190L800 190L800 200L790 200L790 190L780 190L780 200L790 200L790 210L800 210L800 200L810 200L810 210L800 210L800 220L810 220L810 230L800 230L800 240L790 240L790 230L780 230L780 240L790 240L790 250L800 250L800 240L810 240L810 250L820 250L820 240L810 240L810 230L820 230L820 220L830 220L830 230L820 230L820 240L830 240L830 250L840 250L840 240L850 240L850 250L840 250L840 260L850 260L850 270L840 270L840 280L830 280L830 270L840 270L840 260L830 260L830 250L820 250L820 260L810 260L810 250L800 250L800 260L810 260L810 270L800 270L800 280L790 280L790 270L780 270L780 280L790 280L790 290L800 290L800 280L810 280L810 290L800 290L800 300L810 300L810 310L800 310L800 320L790 320L790 310L800 310L800 300L790 300L790 290L780 290L780 300L770 300L770 290L760 290L760 300L770 300L770 310L760 310L760 320L750 320L750 310L760 310L760 300L750 300L750 290L740 290L740 300L730 300L730 290L740 290L740 280L730 280L730 270L740 270L740 260L750 260L750 270L740 270L740 280L750 280L750 290L760 290L760 280L770 280L770 290L780 290L780 280L770 280L770 270L780 270L780 260L790 260L790 270L800 270L800 260L790 260L790 250L780 250L780 260L770 260L770 250L780 250L780 240L770 240L770 230L780 230L780 220L790 220L790 230L800 230L800 220L790 220L790 210L780 210L780 220L770 220L770 210L760 210L760 220L770 220L770 230L760 230L760 240L750 240L750 230L760 230L760 220L750 220L750 210L740 210L740 220L730 220L730 210L740 210L740 200L730 200L730 190L740 190L740 180L750 180L750 190L760 190L760 180L750 180L750 170L740 170L740 180L730 180L730 170L720 170L720 180L730 180L730 190L720 190L720 200L710 200L710 190L700 190L700 200L710 200L710 210L720 210L720 200L730 200L730 210L720 210L720 220L730 220L730 230L720 230L720 240L710 240L710 230L720 230L720 220L710 220L710 210L700 210L700 220L690 220L690 210L680 210L680 220L690 220L690 230L680 230L680 240L670 240L670 230L680 230L680 220L670 220L670 210L660 210L660 220L650 220L650 210L660 210L660 200L650 200L650 190L660 190L660 180L670 180L670 190L660 190L660 200L670 200L670 210L680 210L680 200L690 200L690 210L700 210L700 200L690 200L690 190L700 190L700 180L710 180L710 190L720 190L720 180L710 180L710 170L700 170L700 180L690 180L690 170L700 170L700 160L690 160L690 150L700 150L700 140L710 140L710 150L720 150L720 140L710 140L710 130L700 130L700 140L690 140L690 130L680 130L680 140L690 140L690 150L680 150L680 160L670 160L670 150L680 150L680 140L670 140L670 130L660 130L660 140L650 140L650 130L660 130L660 120L650 120L650 110L660 110L660 100L670 100L670 110L660 110L660 120L670 120L670 130L680 130L680 120L690 120L690 130L700 130L700 120L690 120L690 110L700 110L700 100L710 100L710 110L720 110L720 100L710 100L710 90L700 90L700 100L690 100L690 90L700 90L700 80L690 80L690 70L700 70L700 60L710 60L710 70L700 70L700 80L710 80L710 90L720 90L720 80L730 80L730 90L740 90L740 80L730 80L730 70L740 70L740 60L750 60L750 70L740 70L740 80L750 80L750 90L760 90L760 80L770 80L770 90L760 90L760 100L770 100L770 110L760 110L760 120L750 120L750 110L740 110L740 120L750 120L750 130L760 130L760 120L770 120L770 130L780 130L780 120L770 120L770 110L780 110L780 100L790 100L790 110L800 110L800 100L790 100L790 90L780 90L780 100L770 100L770 90L780 90L780 80L770 80L770 70L780 70L780 60L790 60L790 70L800 70L800 60L790 60L790 50L780 50L780 60L770 60L770 50L760 50L760 60L770 60L770 70L760 70L760 80L750 80L750 70L760 70L760 60L750 60L750 50L740 50L740 60L730 60L730 50L740 50L740 40L730 40L730 30L740 30L740 20L750 20L750 30L760 30L760 20L750 20L750 10L740 10L740 20L730 20L730 10L720 10L720 20L730 20L730 30L720 30L720 40L710 40L710 30L700 30L700 40L710 40L710 50L720 50L720 40L730 40L730 50L720 50L720 60L730 60L730 70L720 70L720 80L710 80L710 70L720 70L720 60L710 60L710 50L700 50L700 60L690 60L690 50L680 50L680 60L690 60L690 70L680 70L680 80L670 80L670 70L680 70L680 60L670 60L670 50L660 50L660 60L650 60L650 50L660 50L660 40L650 40L650 30L660 30L660 20L670 20L670 30L680 30L680 20L670 20L670 10L660 10L660 20L650 20L650 10L640 10L640 20L650 20L650 30L640 30L640 40L630 40L630 30L620 30L620 40L630 40L630 50L640 50L640 40L650 40L650 50L640 50L640 60L650 60L650 70L640 70L640 80L630 80L630 70L620 70L620 80L630 80L630 90L640 90L640 80L650 80L650 90L660 90L660 80L650 80L650 70L660 70L660 60L670 60L670 70L660 70L660 80L670 80L670 90L680 90L680 80L690 80L690 90L680 90L680 100L690 100L690 110L680 110L680 120L670 120L670 110L680 110L680 100L670 100L670 90L660 90L660 100L650 100L650 90L640 90L640 100L650 100L650 110L640 110L640 120L630 120L630 110L620 110L620 120L630 120L630 130L640 130L640 120L650 120L650 130L640 130L640 140L650 140L650 150L640 150L640 160L630 160L630 150L640 150L640 140L630 140L630 130L620 130L620 140L610 140L610 130L600 130L600 140L610 140L610 150L600 150L600 160L590 160L590 150L600 150L600 140L590 140L590 130L580 130L580 140L570 140L570 130L580 130L580 120L570 120L570 110L580 110L580 100L590 100L590 110L600 110L600 100L590 100L590 90L580 90L580 100L570 100L570 90L560 90L560 100L570 100L570 110L560 110L560 120L550 120L550 110L540 110L540 120L550 120L550 130L560 130L560 120L570 120L570 130L560 130L560 140L570 140L570 150L560 150L560 160L550 160L550 150L540 150L540 160L550 160L550 170L560 170L560 160L570 160L570 170L580 170L580 160L570 160L570 150L580 150L580 140L590 140L590 150L580 150L580 160L590 160L590 170L600 170L600 160L610 160L610 170L600 170L600 180L610 180L610 190L600 190L600 200L590 200L590 190L580 190L580 200L590 200L590 210L600 210L600 200L610 200L610 210L620 210L620 200L610 200L610 190L620 190L620 180L630 180L630 190L640 190L640 180L630 180L630 170L620 170L620 180L610 180L610 170L620 170L620 160L610 160L610 150L620 150L620 140L630 140L630 150L620 150L620 160L630 160L630 170L640 170L640 160L650 160L650 170L660 170L660 160L650 160L650 150L660 150L660 140L670 140L670 150L660 150L660 160L670 160L670 170L680 170L680 160L690 160L690 170L680 170L680 180L690 180L690 190L680 190L680 200L670 200L670 190L680 190L680 180L670 180L670 170L660 170L660 180L650 180L650 170L640 170L640 180L650 180L650 190L640 190L640 200L630 200L630 190L620 190L620 200L630 200L630 210L640 210L640 200L650 200L650 210L640 210L640 220L650 220L650 230L640 230L640 240L630 240L630 230L620 230L620 240L630 240L630 250L640 250L640 240L650 240L650 250L660 250L660 240L650 240L650 230L660 230L660 220L670 220L670 230L660 230L660 240L670 240L670 250L680 250L680 240L690 240L690 250L680 250L680 260L690 260L690 270L680 270L680 280L670 280L670 270L680 270L680 260L670 260L670 250L660 250L660 260L650 260L650 250L640 250L640 260L650 260L650 270L640 270L640 280L630 280L630 270L620 270L620 280L630 280L630 290L640 290L640 280L650 280L650 290L640 290L640 300L650 300L650 310L640 310L640 320L630 320L630 310L640 310L640 300L630 300L630 290L620 290L620 300L610 300L610 290L600 290L600 300L610 300L610 310L600 310L600 320L590 320L590 310L600 310L600 300L590 300L590 290L580 290L580 300L570 300L570 290L580 290L580 280L570 280L570 270L580 270L580 260L590 260L590 270L580 270L580 280L590 280L590 290L600 290L600 280L610 280L610 290L620 290L620 280L610 280L610 270L620 270L620 260L630 260L630 270L640 270L640 260L630 260L630 250L620 250L620 260L610 260L610 250L620 250L620 240L610 240L610 230L620 230L620 220L630 220L630 230L640 230L640 220L630 220L630 210L620 210L620 220L610 220L610 210L600 210L600 220L610 220L610 230L600 230L600 240L590 240L590 230L600 230L600 220L590 220L590 210L580 210L580 220L570 220L570 210L580 210L580 200L570 200L570 190L580 190L580 180L590 180L590 190L600 190L600 180L590 180L590 170L580 170L580 180L570 180L570 170L560 170L560 180L570 180L570 190L560 190L560 200L550 200L550 190L540 190L540 200L550 200L550 210L560 210L560 200L570 200L570 210L560 210L560 220L570 220L570 230L560 230L560 240L550 240L550 230L560 230L560 220L550 220L550 210L540 210L540 220L530 220L530 210L520 210L520 220L530 220L530 230L520 230L520 240L510 240L510 230L520 230L520 220L510 220L510 210L500 210L500 220L490 220L490 210L500 210L500 200L490 200L490 190L500 190L500 180L510 180L510 190L520 190L520 180L510 180L510 170L500 170L500 180L490 180L490 170L480 170L480 180L490 180L490 190L480 190L480 200L470 200L470 190L460 190L460 200L470 200L470 210L480 210L480 200L490 200L490 210L480 210L480 220L490 220L490 230L480 230L480 240L470 240L470 230L460 230L460 240L470 240L470 250L480 250L480 240L490 240L490 250L500 250L500 240L490 240L490 230L500 230L500 220L510 220L510 230L500 230L500 240L510 240L510 250L520 250L520 240L530 240L530 250L520 250L520 260L530 260L530 270L520 270L520 280L510 280L510 270L520 270L520 260L510 260L510 250L500 250L500 260L490 260L490 250L480 250L480 260L490 260L490 270L480 270L480 280L470 280L470 270L460 270L460 280L470 280L470 290L480 290L480 280L490 280L490 290L480 290L480 300L490 300L490 310L480 310L480 320L470 320L470 310L480 310L480 300L470 300L470 290L460 290L460 300L450 300L450 290L440 290L440 300L450 300L450 310L440 310L440 320L430 320L430 310L440 310L440 300L430 300L430 290L420 290L420 300L410 300L410 290L420 290L420 280L410 280L410 270L420 270L420 260L430 260L430 270L420 270L420 280L430 280L430 290L440 290L440 280L450 280L450 290L460 290L460 280L450 280L450 270L460 270L460 260L470 260L470 270L480 270L480 260L470 260L470 250L460 250L460 260L450 260L450 250L460 250L460 240L450 240L450 230L460 230L460 220L470 220L470 230L480 230L480 220L470 220L470 210L460 210L460 220L450 220L450 210L440 210L440 220L450 220L450 230L440 230L440 240L430 240L430 230L440 230L440 220L430 220L430 210L420 210L420 220L410 220L410 210L420 210L420 200L410 200L410 190L420 190L420 180L430 180L430 190L440 190L440 180L430 180L430 170L420 170L420 180L410 180L410 170L400 170L400 180L410 180L410 190L400 190L400 200L390 200L390 190L380 190L380 200L390 200L390 210L400 210L400 200L410 200L410 210L400 210L400 220L410 220L410 230L400 230L400 240L390 240L390 230L400 230L400 220L390 220L390 210L380 210L380 220L370 220L370 210L360 210L360 220L370 220L370 230L360 230L360 240L350 240L350 230L360 230L360 220L350 220L350 210L340 210L340 220L330 220L330 210L340 210L340 200L330 200L330 190L340 190L340 180L350 180L350 190L340 190L340 200L350 200L350 210L360 210L360 200L370 200L370 210L380 210L380 200L370 200L370 190L380 190L380 180L390 180L390 190L400 190L400 180L390 180L390 170L380 170L380 180L370 180L370 170L380 170L380 160L370 160L370 150L380 150L380 140L390 140L390 150L400 150L400 140L390 140L390 130L380 130L380 140L370 140L370 130L360 130L360 140L370 140L370 150L360 150L360 160L350 160L350 150L360 150L360 140L350 140L350 130L340 130L340 140L330 140L330 130L340 130L340 120L330 120L330 110L340 110L340 100L350 100L350 110L340 110L340 120L350 120L350 130L360 130L360 120L370 120L370 130L380 130L380 120L370 120L370 110L380 110L380 100L390 100L390 110L400 110L400 100L390 100L390 90L380 90L380 100L370 100L370 90L380 90L380 80L370 80L370 70L380 70L380 60L390 60L390 70L380 70L380 80L390 80L390 90L400 90L400 80L410 80L410 90L420 90L420 80L410 80L410 70L420 70L420 60L430 60L430 70L420 70L420 80L430 80L430 90L440 90L440 80L450 80L450 90L440 90L440 100L450 100L450 110L440 110L440 120L430 120L430 110L420 110L420 120L430 120L430 130L440 130L440 120L450 120L450 130L460 130L460 120L450 120L450 110L460 110L460 100L470 100L470 110L480 110L480 100L470 100L470 90L460 90L460 100L450 100L450 90L460 90L460 80L450 80L450 70L460 70L460 60L470 60L470 70L480 70L480 60L470 60L470 50L460 50L460 60L450 60L450 50L440 50L440 60L450 60L450 70L440 70L440 80L430 80L430 70L440 70L440 60L430 60L430 50L420 50L420 60L410 60L410 50L420 50L420 40L410 40L410 30L420 30L420 20L430 20L430 30L440 30L440 20L430 20L430 10L420 10L420 20L410 20L410 10L400 10L400 20L410 20L410 30L400 30L400 40L390 40L390 30L380 30L380 40L390 40L390 50L400 50L400 40L410 40L410 50L400 50L400 60L410 60L410 70L400 70L400 80L390 80L390 70L400 70L400 60L390 60L390 50L380 50L380 60L370 60L370 50L360 50L360 60L370 60L370 70L360 70L360 80L350 80L350 70L360 70L360 60L350 60L350 50L340 50L340 60L330 60L330 50L340 50L340 40L330 40L330 30L340 30L340 20L350 20L350 30L360 30L360 20L350 20L350 10L340 10L340 20L330 20L330 10L320 10L320 20L330 20L330 30L320 30L320 40L310 40L310 30L300 30L300 40L310 40L310 50L320 50L320 40L330 40L330 50L320 50L320 60L330 60L330 70L320 70L320 80L310 80L310 70L300 70L300 80L310 80L310 90L320 90L320 80L330 80L330 90L340 90L340 80L330 80L330 70L340 70L340 60L350 60L350 70L340 70L340 80L350 80L350 90L360 90L360 80L370 80L370 90L360 90L360 100L370 100L370 110L360 110L360 120L350 120L350 110L360 110L360 100L350 100L350 90L340 90L340 100L330 100L330 90L320 90L320 100L330 100L330 110L320 110L320 120L310 120L310 110L300 110L300 120L310 120L310 130L320 130L320 120L330 120L330 130L320 130L320 140L330 140L330 150L320 150L320 160L310 160L310 150L320 150L320 140L310 140L310 130L300 130L300 140L290 140L290 130L280 130L280 140L290 140L290 150L280 150L280 160L270 160L270 150L280 150L280 140L270 140L270 130L260 130L260 140L250 140L250 130L260 130L260 120L250 120L250 110L260 110L260 100L270 100L270 110L280 110L280 100L270 100L270 90L260 90L260 100L250 100L250 90L240 90L240 100L250 100L250 110L240 110L240 120L230 120L230 110L220 110L220 120L230 120L230 130L240 130L240 120L250 120L250 130L240 130L240 140L250 140L250 150L240 150L240 160L230 160L230 150L220 150L220 160L230 160L230 170L240 170L240 160L250 160L250 170L260 170L260 160L250 160L250 150L260 150L260 140L270 140L270 150L260 150L260 160L270 160L270 170L280 170L280 160L290 160L290 170L280 170L280 180L290 180L290 190L280 190L280 200L270 200L270 190L260 190L260 200L270 200L270 210L280 210L280 200L290 200L290 210L300 210L300 200L290 200L290 190L300 190L300 180L310 180L310 190L320 190L320 180L310 180L310 170L300 170L300 180L290 180L290 170L300 170L300 160L290 160L290 150L300 150L300 140L310 140L310 150L300 150L300 160L310 160L310 170L320 170L320 160L330 160L330 170L340 170L340 160L330 160L330 150L340 150L340 140L350 140L350 150L340 150L340 160L350 160L350 170L360 170L360 160L370 160L370 170L360 170L360 180L370 180L370 190L360 190L360 200L350 200L350 190L360 190L360 180L350 180L350 170L340 170L340 180L330 180L330 170L320 170L320 180L330 180L330 190L320 190L320 200L310 200L310 190L300 190L300 200L310 200L310 210L320 210L320 200L330 200L330 210L320 210L320 220L330 220L330 230L320 230L320 240L310 240L310 230L300 230L300 240L310 240L310 250L320 250L320 240L330 240L330 250L340 250L340 240L330 240L330 230L340 230L340 220L350 220L350 230L340 230L340 240L350 240L350 250L360 250L360 240L370 240L370 250L360 250L360 260L370 260L370 270L360 270L360 280L350 280L350 270L360 270L360 260L350 260L350 250L340 250L340 260L330 260L330 250L320 250L320 260L330 260L330 270L320 270L320 280L310 280L310 270L300 270L300 280L310 280L310 290L320 290L320 280L330 280L330 290L320 290L320 300L330 300L330 310L320 310L320 320L310 320L310 310L320 310L320 300L310 300L310 290L300 290L300 300L290 300L290 290L280 290L280 300L290 300L290 310L280 310L280 320L270 320L270 310L280 310L280 300L270 300L270 290L260 290L260 300L250 300L250 290L260 290L260 280L250 280L250 270L260 270L260 260L270 260L270 270L280 270L280 260L270 260L270 250L260 250L260 260L250 260L250 250L240 250L240 260L250 260L250 270L240 270L240 280L230 280L230 270L220 270L220 280L230 280L230 290L240 290L240 280L250 280L250 290L240 290L240 300L250 300L250 310L240 310L240 320L230 320L230 310L220 310L220 320L230 320L230 330L240 330L240 320L250 320L250 330L260 330L260 320L250 320L250 310L260 310L260 300L270 300L270 310L260 310L260 320L270 320L270 330L280 330L280 320L290 320L290 330L280 330L280 340L290 340L290 350L280 350L280 360L270 360L270 350L260 350L260 360L270 360L270 370L280 370L280 360L290 360L290 370L300 370L300 360L290 360L290 350L300 350L300 340L310 340L310 350L320 350L320 340L310 340L310 330L300 330L300 340L290 340L290 330L300 330L300 320L290 320L290 310L300 310L300 300L310 300L310 310L300 310L300 320L310 320L310 330L320 330L320 320L330 320L330 330L340 330L340 320L330 320L330 310L340 310L340 300L350 300L350 310L340 310L340 320L350 320L350 330L360 330L360 320L370 320L370 330L360 330L360 340L370 340L370 350L360 350L360 360L350 360L350 350L340 350L340 360L350 360L350 370L360 370L360 360L370 360L370 370L380 370L380 360L370 360L370 350L380 350L380 340L390 340L390 350L400 350L400 340L390 340L390 330L380 330L380 340L370 340L370 330L380 330L380 320L370 320L370 310L380 310L380 300L390 300L390 310L400 310L400 300L390 300L390 290L380 290L380 300L370 300L370 290L360 290L360 300L370 300L370 310L360 310L360 320L350 320L350 310L360 310L360 300L350 300L350 290L340 290L340 300L330 300L330 290L340 290L340 280L330 280L330 270L340 270L340 260L350 260L350 270L340 270L340 280L350 280L350 290L360 290L360 280L370 280L370 290L380 290L380 280L370 280L370 270L380 270L380 260L390 260L390 270L400 270L400 260L390 260L390 250L380 250L380 260L370 260L370 250L380 250L380 240L370 240L370 230L380 230L380 220L390 220L390 230L380 230L380 240L390 240L390 250L400 250L400 240L410 240L410 250L420 250L420 240L410 240L410 230L420 230L420 220L430 220L430 230L420 230L420 240L430 240L430 250L440 250L440 240L450 240L450 250L440 250L440 260L450 260L450 270L440 270L440 280L430 280L430 270L440 270L440 260L430 260L430 250L420 250L420 260L410 260L410 250L400 250L400 260L410 260L410 270L400 270L400 280L390 280L390 270L380 270L380 280L390 280L390 290L400 290L400 280L410 280L410 290L400 290L400 300L410 300L410 310L400 310L400 320L390 320L390 310L380 310L380 320L390 320L390 330L400 330L400 320L410 320L410 330L420 330L420 320L410 320L410 310L420 310L420 300L430 300L430 310L420 310L420 320L430 320L430 330L440 330L440 320L450 320L450 330L440 330L440 340L450 340L450 350L440 350L440 360L430 360L430 350L420 350L420 360L430 360L430 370L440 370L440 360L450 360L450 370L460 370L460 360L450 360L450 350L460 350L460 340L470 340L470 350L480 350L480 340L470 340L470 330L460 330L460 340L450 340L450 330L460 330L460 320L450 320L450 310L460 310L460 300L470 300L470 310L460 310L460 320L470 320L470 330L480 330L480 320L490 320L490 330L500 330L500 320L490 320L490 310L500 310L500 300L510 300L510 310L500 310L500 320L510 320L510 330L520 330L520 320L530 320L530 330L520 330L520 340L530 340L530 350L520 350L520 360L510 360L510 350L520 350L520 340L510 340L510 330L500 330L500 340L490 340L490 330L480 330L480 340L490 340L490 350L480 350L480 360L470 360L470 350L460 350L460 360L470 360L470 370L480 370L480 360L490 360L490 370L480 370L480 380L490 380L490 390L480 390L480 400L470 400L470 390L460 390L460 400L470 400L470 410L480 410L480 400L490 400L490 410L500 410L500 400L490 400L490 390L500 390L500 380L510 380L510 390L500 390L500 400L510 400L510 410L520 410L520 400L530 400L530 410L520 410L520 420L530 420L530 430L520 430L520 440L510 440L510 430L520 430L520 420L510 420L510 410L500 410L500 420L490 420L490 410L480 410L480 420L490 420L490 430L480 430L480 440L470 440L470 430L460 430L460 440L470 440L470 450L480 450L480 440L490 440L490 450L480 450L480 460L490 460L490 470L480 470L480 480L470 480L470 470L480 470L480 460L470 460L470 450L460 450L460 460L450 460L450 450L440 450L440 460L450 460L450 470L440 470L440 480L430 480L430 470L440 470L440 460L430 460L430 450L420 450L420 460L410 460L410 450L420 450L420 440L410 440L410 430L420 430L420 420L430 420L430 430L420 430L420 440L430 440L430 450L440 450L440 440L450 440L450 450L460 450L460 440L450 440L450 430L460 430L460 420L470 420L470 430L480 430L480 420L470 420L470 410L460 410L460 420L450 420L450 410L460 410L460 400L450 400L450 390L460 390L460 380L470 380L470 390L480 390L480 380L470 380L470 370L460 370L460 380L450 380L450 370L440 370L440 380L450 380L450 390L440 390L440 400L430 400L430 390L440 390L440 380L430 380L430 370L420 370L420 380L410 380L410 370L420 370L420 360L410 360L410 350L420 350L420 340L430 340L430 350L440 350L440 340L430 340L430 330L420 330L420 340L410 340L410 330L400 330L400 340L410 340L410 350L400 350L400 360L390 360L390 350L380 350L380 360L390 360L390 370L400 370L400 360L410 360L410 370L400 370L400 380L410 380L410 390L400 390L400 400L390 400L390 390L400 390L400 380L390 380L390 370L380 370L380 380L370 380L370 370L360 370L360 380L370 380L370 390L360 390L360 400L350 400L350 390L360 390L360 380L350 380L350 370L340 370L340 380L330 380L330 370L340 370L340 360L330 360L330 350L340 350L340 340L350 340L350 350L360 350L360 340L350 340L350 330L340 330L340 340L330 340L330 330L320 330L320 340L330 340L330 350L320 350L320 360L310 360L310 350L300 350L300 360L310 360L310 370L320 370L320 360L330 360L330 370L320 370L320 380L330 380L330 390L320 390L320 400L310 400L310 390L300 390L300 400L310 400L310 410L320 410L320 400L330 400L330 410L340 410L340 400L330 400L330 390L340 390L340 380L350 380L350 390L340 390L340 400L350 400L350 410L360 410L360 400L370 400L370 410L360 410L360 420L370 420L370 430L360 430L360 440L350 440L350 430L360 430L360 420L350 420L350 410L340 410L340 420L330 420L330 410L320 410L320 420L330 420L330 430L320 430L320 440L310 440L310 430L300 430L300 440L310 440L310 450L320 450L320 440L330 440L330 450L320 450L320 460L330 460L330 470L320 470L320 480L310 480L310 470L320 470L320 460L310 460L310 450L300 450L300 460L290 460L290 450L280 450L280 460L290 460L290 470L280 470L280 480L270 480L270 470L280 470L280 460L270 460L270 450L260 450L260 460L250 460L250 450L260 450L260 440L250 440L250 430L260 430L260 420L270 420L270 430L280 430L280 420L270 420L270 410L260 410L260 420L250 420L250 410L240 410L240 420L250 420L250 430L240 430L240 440L230 440L230 430L220 430L220 440L230 440L230 450L240 450L240 440L250 440L250 450L240 450L240 460L250 460L250 470L240 470L240 480L230 480L230 470L220 470L220 480L230 480L230 490L240 490L240 480L250 480L250 490L260 490L260 480L250 480L250 470L260 470L260 460L270 460L270 470L260 470L260 480L270 480L270 490L280 490L280 480L290 480L290 490L280 490L280 500L290 500L290 510L280 510L280 520L270 520L270 510L260 510L260 520L270 520L270 530L280 530L280 520L290 520L290 530L300 530L300 520L290 520L290 510L300 510L300 500L310 500L310 510L320 510L320 500L310 500L310 490L300 490L300 500L290 500L290 490L300 490L300 480L290 480L290 470L300 470L300 460L310 460L310 470L300 470L300 480L310 480L310 490L320 490L320 480L330 480L330 490L340 490L340 480L330 480L330 470L340 470L340 460L350 460L350 470L340 470L340 480L350 480L350 490L360 490L360 480L370 480L370 490L360 490L360 500L370 500L370 510L360 510L360 520L350 520L350 510L360 510L360 500L350 500L350 490L340 490L340 500L330 500L330 490L320 490L320 500L330 500L330 510L320 510L320 520L310 520L310 510L300 510L300 520L310 520L310 530L320 530L320 520L330 520L330 530L320 530L320 540L330 540L330 550L320 550L320 560L310 560L310 550L300 550L300 560L310 560L310 570L320 570L320 560L330 560L330 570L340 570L340 560L330 560L330 550L340 550L340 540L350 540L350 550L340 550L340 560L350 560L350 570L360 570L360 560L370 560L370 570L360 570L360 580L370 580L370 590L360 590L360 600L350 600L350 590L360 590L360 580L350 580L350 570L340 570L340 580L330 580L330 570L320 570L320 580L330 580L330 590L320 590L320 600L310 600L310 590L300 590L300 600L310 600L310 610L320 610L320 600L330 600L330 610L320 610L320 620L330 620L330 630L320 630L320 640L310 640L310 630L320 630L320 620L310 620L310 610L300 610L300 620L290 620L290 610L280 610L280 620L290 620L290 630L280 630L280 640L270 640L270 630L280 630L280 620L270 620L270 610L260 610L260 620L250 620L250 610L260 610L260 600L250 600L250 590L260 590L260 580L270 580L270 590L260 590L260 600L270 600L270 610L280 610L280 600L290 600L290 610L300 610L300 600L290 600L290 590L300 590L300 580L310 580L310 590L320 590L320 580L310 580L310 570L300 570L300 580L290 580L290 570L300 570L300 560L290 560L290 550L300 550L300 540L310 540L310 550L320 550L320 540L310 540L310 530L300 530L300 540L290 540L290 530L280 530L280 540L290 540L290 550L280 550L280 560L270 560L270 550L280 550L280 540L270 540L270 530L260 530L260 540L250 540L250 530L260 530L260 520L250 520L250 510L260 510L260 500L270 500L270 510L280 510L280 500L270 500L270 490L260 490L260 500L250 500L250 490L240 490L240 500L250 500L250 510L240 510L240 520L230 520L230 510L220 510L220 520L230 520L230 530L240 530L240 520L250 520L250 530L240 530L240 540L250 540L250 550L240 550L240 560L230 560L230 550L240 550L240 540L230 540L230 530L220 530L220 540L210 540L210 530L200 530L200 540L210 540L210 550L200 550L200 560L190 560L190 550L200 550L200 540L190 540L190 530L180 530L180 540L170 540L170 530L180 530L180 520L170 520L170 510L180 510L180 500L190 500L190 510L200 510L200 500L190 500L190 490L180 490L180 500L170 500L170 490L160 490L160 500L170 500L170 510L160 510L160 520L150 520L150 510L140 510L140 520L150 520L150 530L160 530L160 520L170 520L170 530L160 530L160 540L170 540L170 550L160 550L160 560L150 560L150 550L140 550L140 560L150 560L150 570L160 570L160 560L170 560L170 570L180 570L180 560L170 560L170 550L180 550L180 540L190 540L190 550L180 550L180 560L190 560L190 570L200 570L200 560L210 560L210 570L200 570L200 580L210 580L210 590L200 590L200 600L190 600L190 590L200 590L200 580L190 580L190 570L180 570L180 580L170 580L170 570L160 570L160 580L170 580L170 590L160 590L160 600L150 600L150 590L140 590L140 600L150 600L150 610L160 610L160 600L170 600L170 610L160 610L160 620L170 620L170 630L160 630L160 640L150 640L150 630L160 630L160 620L150 620L150 610L140 610L140 620L130 620L130 610L120 610L120 620L130 620L130 630L120 630L120 640L110 640L110 630L120 630L120 620L110 620L110 610L100 610L100 620L90 620L90 610L100 610L100 600L90 600L90 590L100 590L100 580L110 580L110 590L100 590L100 600L110 600L110 610L120 610L120 600L130 600L130 610L140 610L140 600L130 600L130 590L140 590L140 580L150 580L150 590L160 590L160 580L150 580L150 570L140 570L140 580L130 580L130 570L140 570L140 560L130 560L130 550L140 550L140 540L150 540L150 550L160 550L160 540L150 540L150 530L140 530L140 540L130 540L130 530L120 530L120 540L130 540L130 550L120 550L120 560L110 560L110 550L120 550L120 540L110 540L110 530L100 530L100 540L90 540L90 530L100 530L100 520L90 520L90 510L100 510L100 500L110 500L110 510L120 510L120 500L110 500L110 490L100 490L100 500L90 500L90 490L80 490L80 500L90 500L90 510L80 510L80 520L70 520L70 510L60 510L60 520L70 520L70 530L80 530L80 520L90 520L90 530L80 530L80 540L90 540L90 550L80 550L80 560L70 560L70 550L80 550L80 540L70 540L70 530L60 530L60 540L50 540L50 530L40 530L40 540L50 540L50 550L40 550L40 560L30 560L30 550L40 550L40 540L30 540L30 530L20 530L20 540L10 540L10 530L20 530L20 520L10 520L10 510L20 510L20 500L30 500L30 510L20 510L20 520L30 520L30 530L40 530L40 520L50 520L50 530L60 530L60 520L50 520L50 510L60 510L60 500L70 500L70 510L80 510L80 500L70 500L70 490L60 490L60 500L50 500L50 490L60 490L60 480L50 480L50 470L60 470L60 460L70 460L70 470L80 470L80 460L70 460L70 450L60 450L60 460L50 460L50 450L40 450L40 460L50 460L50 470L40 470L40 480L30 480L30 470L40 470L40 460L30 460L30 450L20 450L20 460L10 460L10 450L20 450L20 440L10 440L10 430L20 430L20 420L30 420L30 430L20 430L20 440L30 440L30 450L40 450L40 440L50 440L50 450L60 450L60 440L50 440L50 430L60 430L60 420L70 420L70 430L80 430L80 420L70 420L70 410L60 410L60 420L50 420L50 410L60 410L60 400L50 400L50 390L60 390L60 380L70 380L70 390L60 390L60 400L70 400L70 410L80 410L80 400L90 400L90 410L100 410L100 400L90 400L90 390L100 390L100 380L110 380L110 390L100 390L100 400L110 400L110 410L120 410L120 400L130 400L130 410L120 410L120 420L130 420L130 430L120 430L120 440L110 440L110 430"/></svg>