<svg xmlns="http://www.w3.org/2000/svg" width="330" height="330" viewBox="0 0 330 330"><rect width="330" height="330" fill="#ffffff"/><defs><linearGradient id="g" x1="0" y1="0" x2="1" y2="1"><stop offset="0" stop-color="#1d3f72"/><stop offset="1" stop-color="#39b87a"/></linearGradient></defs><path fill="none" stroke="url(#g)" stroke-width="1" stroke-linecap="round" stroke-linejoin="round" d="M10 320L10 310L20 310L20 320L30 320L40 320L40 310L30 310L30 300L40 300L40 290L30 290L20 290L20 300L10 300L10 290L10 280L20 280L20 270L10 270L10 260L10 250L20 250L20 260L30 260L30 250L40 250L40 260L40 270L30 270L30 280L40 280L50 280L60 280L60 270L50 270L50 260L50 250L60 250L60 260L70 260L70 250L80 250L80 260L80 270L70 270L70 280L80 280L80 290L80 300L70 300L70 290L60 290L50 290L50 300L60 300L60 310L50 310L50 320L60 320L70 320L70 310L80 310L80 320L90 320L100 320L100 310L90 310L90 300L90 290L100 290L100 300L110 300L110 290L120 290L120 300L120 310L110 310L110 320L120 320L130 320L130 310L140 310L140 320L150 320L160 320L160 310L150 310L150 300L160 300L160 290L150 290L140 290L140 300L130 300L130 290L130 280L130 270L140 270L140 280L150 280L160 280L160 270L150 270L150 260L160 260L160 250L150 250L140 250L140 260L130 260L130 250L120 250L110 250L110 260L120 260L120 270L120 280L110 280L110 270L100 270L100 280L90 280L90 270L90 260L100 260L100 250L90 250L90 240L100 240L100 230L90 230L90 220L90 210L100 210L100 220L110 220L110 210L120 210L120 220L120 230L110 230L110 240L120 240L130 240L130 230L140 230L140 240L150 240L160 240L160 230L150 230L150 220L160 220L160 210L150 210L140 210L140 220L130 220L130 210L130 200L130 190L140 190L140 200L150 200L160 200L160 190L150 190L150 180L160 180L160 170L150 170L140 170L140 180L130 180L130 170L120 170L110 170L110 180L120 180L120 190L120 200L110 200L110 190L100 190L100 200L90 200L90 190L90 180L100 180L100 170L90 170L80 170L80 180L70 180L70 170L60 170L50 170L50 180L60 180L60 190L50 190L50 200L60 200L70 200L70 190L80 190L80 200L80 210L70 210L70 220L80 220L80 230L80 240L70 240L70 230L60 230L60 240L50 240L50 230L50 220L60 220L60 210L50 210L40 210L30 210L30 220L40 220L40 230L40 240L30 240L30 230L20 230L20 240L10 240L10 230L10 220L20 220L20 210L10 210L10 200L10 190L20 190L20 200L30 200L40 200L40 190L30 190L30 180L40 180L40 170L30 170L20 170L20 180L10 180L10 170L10 160L20 160L20 150L10 150L10 140L10 130L20 130L20 140L30 140L30 130L40 130L40 140L40 150L30 150L30 160L40 160L50 160L50 150L60 150L60 160L70 160L80 160L80 150L70 150L70 140L80 140L80 130L70 130L60 130L60 140L50 140L50 130L50 120L50 110L60 110L60 120L70 120L80 120L80 110L70 110L70 100L80 100L80 90L70 90L60 90L60 100L50 100L50 90L40 90L30 90L30 100L40 100L40 110L40 120L30 120L30 110L20 110L20 120L10 120L10 110L10 100L20 100L20 90L10 90L10 80L10 70L20 70L20 80L30 80L40 80L40 70L30 70L30 60L40 60L40 50L30 50L20 50L20 60L10 60L10 50L10 40L20 40L20 30L10 30L10 20L10 10L20 10L20 20L30 20L30 10L40 10L40 20L40 30L30 30L30 40L40 40L50 40L60 40L60 30L50 30L50 20L50 10L60 10L60 20L70 20L70 10L80 10L80 20L80 30L70 30L70 40L80 40L80 50L80 60L70 60L70 50L60 50L50 50L50 60L60 60L60 70L50 70L50 80L60 80L70 80L70 70L80 70L80 80L90 80L90 70L100 70L100 80L110 80L120 80L120 70L110 70L110 60L120 60L120 50L110 50L100 50L100 60L90 60L90 50L90 40L100 40L100 30L90 30L90 20L90 10L100 10L100 20L110 20L110 10L120 10L120 20L120 30L110 30L110 40L120 40L130 40L140 40L140 30L130 30L130 20L130 10L140 10L140 20L150 20L150 10L160 10L160 20L160 30L150 30L150 40L160 40L160 50L160 60L150 60L150 50L140 50L130 50L130 60L140 60L140 70L130 70L130 80L140 80L150 80L150 70L160 70L160 80L160 90L150 90L150 100L160 100L160 110L160 120L150 120L150 110L140 110L140 120L130 120L130 110L130 100L140 100L140 90L130 90L120 90L120 100L110 100L110 90L100 90L90 90L90 100L100 100L100 110L90 110L90 120L100 120L110 120L110 110L120 110L120 120L120 130L120 140L110 140L110 130L100 130L90 130L90 140L100 140L100 150L90 150L90 160L100 160L110 160L110 150L120 150L120 160L130 160L140 160L140 150L130 150L130 140L130 130L140 130L140 140L150 140L150 130L160 130L160 140L160 150L150 150L150 160L160 160L170 160L180 160L180 150L170 150L170 140L170 130L180 130L180 140L190 140L190 130L200 130L200 140L200 150L190 150L190 160L200 160L210 160L210 150L220 150L220 160L230 160L240 160L240 150L230 150L230 140L240 140L240 130L230 130L220 130L220 140L210 140L210 130L210 120L210 110L220 110L220 120L230 120L240 120L240 110L230 110L230 100L240 100L240 90L230 90L220 90L220 100L210 100L210 90L200 90L190 90L190 100L200 100L200 110L200 120L190 120L190 110L180 110L180 120L170 120L170 110L170 100L180 100L180 90L170 90L170 80L170 70L180 70L180 80L190 80L200 80L200 70L190 70L190 60L200 60L200 50L190 50L180 50L180 60L170 60L170 50L170 40L180 40L180 30L170 30L170 20L170 10L180 10L180 20L190 20L190 10L200 10L200 20L200 30L190 30L190 40L200 40L210 40L220 40L220 30L210 30L210 20L210 10L220 10L220 20L230 20L230 10L240 10L240 20L240 30L230 30L230 40L240 40L240 50L240 60L230 60L230 50L220 50L210 50L210 60L220 60L220 70L210 70L210 80L220 80L230 80L230 70L240 70L240 80L250 80L250 70L260 70L260 80L270 80L280 80L280 70L270 70L270 60L280 60L280 50L270 50L260 50L260 60L250 60L250 50L250 40L260 40L260 30L250 30L250 20L250 10L260 10L260 20L270 20L270 10L280 10L280 20L280 30L270 30L270 40L280 40L290 40L300 40L300 30L290 30L290 20L290 10L300 10L300 20L310 20L310 10L320 10L320 20L320 30L310 30L310 40L320 40L320 50L320 60L310 60L310 50L300 50L290 50L290 60L300 60L300 70L290 70L290 80L300 80L310 80L310 70L320 70L320 80L320 90L310 90L310 100L320 100L320 110L320 120L310 120L310 110L300 110L300 120L290 120L290 110L290 100L300 100L300 90L290 90L280 90L280 100L270 100L270 90L260 90L250 90L250 100L260 100L260 110L250 110L250 120L260 120L270 120L270 110L280 110L280 120L280 130L280 140L270 140L270 130L260 130L250 130L250 140L260 140L260 150L250 150L250 160L260 160L270 160L270 150L280 150L280 160L290 160L300 160L300 150L290 150L290 140L290 130L300 130L300 140L310 140L310 130L320 130L320 140L320 150L310 150L310 160L320 160L320 170L320 180L310 180L310 170L300 170L290 170L290 180L300 180L300 190L290 190L290 200L300 200L310 200L310 190L320 190L320 200L320 210L310 210L310 220L320 220L320 230L320 240L310 240L310 230L300 230L300 240L290 240L290 230L290 220L300 220L300 210L290 210L280 210L270 210L270 220L280 220L280 230L280 240L270 240L270 230L260 230L260 240L250 240L250 230L250 220L260 220L260 210L250 210L250 200L250 190L260 190L260 200L270 200L280 200L280 190L270 190L270 180L280 180L280 170L270 170L260 170L260 180L250 180L250 170L240 170L230 170L230 180L240 180L240 190L240 200L230 200L230 190L220 190L220 200L210 200L210 190L210 180L220 180L220 170L210 170L200 170L200 180L190 180L190 170L180 170L170 170L170 180L180 180L180 190L170 190L170 200L180 200L190 200L190 190L200 190L200 200L200 210L200 220L190 220L190 210L180 210L170 210L170 220L180 220L180 230L170 230L170 240L180 240L190 240L190 230L200 230L200 240L210 240L220 240L220 230L210 230L210 220L210 210L220 210L220 220L230 220L230 210L240 210L240 220L240 230L230 230L230 240L240 240L240 250L230 250L230 260L240 260L240 270L240 280L230 280L230 270L220 270L220 280L210 280L210 270L210 260L220 260L220 250L210 250L200 250L200 260L190 260L190 250L180 250L170 250L170 260L180 260L180 270L170 270L170 280L180 280L190 280L190 270L200 270L200 280L200 290L200 300L190 300L190 290L180 290L170 290L170 300L180 300L180 310L170 310L170 320L180 320L190 320L190 310L200 310L200 320L210 320L220 320L220 310L210 310L210 300L210 290L220 290L220 300L230 300L230 290L240 290L240 300L240 310L230 310L230 320L240 320L250 320L250 310L260 310L260 320L270 320L280 320L280 310L270 310L270 300L280 300L280 290L270 290L260 290L260 300L250 300L250 290L250 280L260 280L260 270L250 270L250 260L250 250L260 250L260 260L270 260L270 250L280 250L280 260L280 270L270 270L270 280L280 280L290 280L300 280L300 270L290 270L290 260L290 250L300 250L300 260L310 260L310 250L320 250L320 260L320 270L310 270L310 280L320 280L320 290L320 300L310 300L310 290L300 290L290 290L290 300L300 300L300 310L290 310L290 320L300 320L310 320L310 310L320 310L320 320"/></svg>