<svg xmlns="http://www.w3.org/2000/svg" width="830" height="955.307" viewBox="0 0 830 955.307"><rect width="830" height="955.307" fill="#ffffff"/><path fill="none" stroke="#111111" stroke-width="1" stroke-linecap="round" stroke-linejoin="round" d="M10 711.481L20 711.481L25 720.141L30 711.481L40 711.481L45 720.141L40 728.801L50 728.801L55 737.461L60 728.801L70 728.801L65 720.141L70 711.481L80 711.481L85 720.141L90 711.481L100 711.481L105 720.141L100 728.801L110 728.801L115 737.461L110 746.122L100 746.122L105 754.782L100 763.442L110 763.442L115 772.102L120 763.442L130 763.442L135 772.102L130 780.763L140 780.763L145 789.423L150 780.763L160 780.763L155 772.102L160 763.442L170 763.442L175 772.102L180 763.442L190 763.442L185 754.782L190 746.122L180 746.122L175 737.461L180 728.801L190 728.801L185 720.141L190 711.481L200 711.481L205 720.141L210 711.481L220 711.481L225 720.141L220 728.801L230 728.801L235 737.461L240 728.801L250 728.801L245 720.141L250 711.481L260 711.481L265 720.141L270 711.481L280 711.481L285 720.141L280 728.801L290 728.801L295 737.461L290 746.122L280 746.122L285 754.782L280 763.442L290 763.442L295 772.102L300 763.442L310 763.442L315 772.102L310 780.763L320 780.763L325 789.423L320 798.083L310 798.083L315 806.743L310 815.404L300 815.404L295 806.743L290 815.404L280 815.404L285 824.064L280 832.724L290 832.724L295 841.384L290 850.045L280 850.045L285 858.705L280 867.365L290 867.365L295 876.025L300 867.365L310 867.365L315 876.025L310 884.686L320 884.686L325 893.346L330 884.686L340 884.686L335 876.025L340 867.365L350 867.365L355 876.025L360 867.365L370 867.365L375 876.025L370 884.686L380 884.686L385 893.346L380 902.006L370 902.006L375 910.666L370 919.327L380 919.327L385 927.987L390 919.327L400 919.327L405 927.987L400 936.647L410 936.647L415 945.307L420 936.647L430 936.647L425 927.987L430 919.327L440 919.327L445 927.987L450 919.327L460 919.327L455 910.666L460 902.006L450 902.006L445 893.346L450 884.686L460 884.686L455 876.025L460 867.365L470 867.365L475 876.025L480 867.365L490 867.365L495 876.025L490 884.686L500 884.686L505 893.346L510 884.686L520 884.686L515 876.025L520 867.365L530 867.365L535 876.025L540 867.365L550 867.365L545 858.705L550 850.045L540 850.045L535 841.384L540 832.724L550 832.724L545 824.064L550 815.404L540 815.404L535 806.743L530 815.404L520 815.404L515 806.743L520 798.083L510 798.083L505 789.423L510 780.763L520 780.763L515 772.102L520 763.442L530 763.442L535 772.102L540 763.442L550 763.442L545 754.782L550 746.122L540 746.122L535 737.461L540 728.801L550 728.801L545 720.141L550 711.481L560 711.481L565 720.141L570 711.481L580 711.481L585 720.141L580 728.801L590 728.801L595 737.461L600 728.801L610 728.801L605 720.141L610 711.481L620 711.481L625 720.141L630 711.481L640 711.481L645 720.141L640 728.801L650 728.801L655 737.461L650 746.122L640 746.122L645 754.782L640 763.442L650 763.442L655 772.102L660 763.442L670 763.442L675 772.102L670 780.763L680 780.763L685 789.423L690 780.763L700 780.763L695 772.102L700 763.442L710 763.442L715 772.102L720 763.442L730 763.442L725 754.782L730 746.122L720 746.122L715 737.461L720 728.801L730 728.801L725 720.141L730 711.481L740 711.481L745 720.141L750 711.481L760 711.481L765 720.141L760 728.801L770 728.801L775 737.461L780 728.801L790 728.801L785 720.141L790 711.481L800 711.481L805 720.141L810 711.481L820 711.481L815 702.82L820 694.16L810 694.16L805 685.5L810 676.84L820 676.84L815 668.179L820 659.519L810 659.519L805 650.859L800 659.519L790 659.519L785 650.859L790 642.199L780 642.199L775 633.538L780 624.878L790 624.878L785 616.218L790 607.558L800 607.558L805 616.218L810 607.558L820 607.558L815 598.897L820 590.237L810 590.237L805 581.577L810 572.917L820 572.917L815 564.256L820 555.596L810 555.596L805 546.936L800 555.596L790 555.596L785 546.936L790 538.275L780 538.275L775 529.615L770 538.275L760 538.275L765 546.936L760 555.596L750 555.596L745 546.936L740 555.596L730 555.596L725 546.936L730 538.275L720 538.275L715 529.615L720 520.955L730 520.955L725 512.295L730 503.634L720 503.634L715 494.974L710 503.634L700 503.634L695 494.974L700 486.314L690 486.314L685 477.654L690 468.993L700 468.993L695 460.333L700 451.673L710 451.673L715 460.333L720 451.673L730 451.673L725 443.013L730 434.352L720 434.352L715 425.692L720 417.032L730 417.032L725 408.372L730 399.711L740 399.711L745 408.372L750 399.711L760 399.711L765 408.372L760 417.032L770 417.032L775 425.692L780 417.032L790 417.032L785 408.372L790 399.711L800 399.711L805 408.372L810 399.711L820 399.711L815 391.051L820 382.391L810 382.391L805 373.731L810 365.07L820 365.07L815 356.41L820 347.75L810 347.75L805 339.09L800 347.75L790 347.75L785 339.09L790 330.429L780 330.429L775 321.769L780 313.109L790 313.109L785 304.449L790 295.788L800 295.788L805 304.449L810 295.788L820 295.788L815 287.128L820 278.468L810 278.468L805 269.808L810 261.147L820 261.147L815 252.487L820 243.827L810 243.827L805 235.167L800 243.827L790 243.827L785 235.167L790 226.506L780 226.506L775 217.846L770 226.506L760 226.506L765 235.167L760 243.827L750 243.827L745 235.167L740 243.827L730 243.827L725 235.167L730 226.506L720 226.506L715 217.846L720 209.186L730 209.186L725 200.526L730 191.865L720 191.865L715 183.205L710 191.865L700 191.865L695 183.205L700 174.545L690 174.545L685 165.885L680 174.545L670 174.545L675 183.205L670 191.865L660 191.865L655 183.205L650 191.865L640 191.865L645 200.526L640 209.186L650 209.186L655 217.846L650 226.506L640 226.506L645 235.167L640 243.827L630 243.827L625 235.167L620 243.827L610 243.827L605 235.167L610 226.506L600 226.506L595 217.846L590 226.506L580 226.506L585 235.167L580 243.827L570 243.827L565 235.167L560 243.827L550 243.827L545 235.167L550 226.506L540 226.506L535 217.846L540 209.186L550 209.186L545 200.526L550 191.865L540 191.865L535 183.205L530 191.865L520 191.865L515 183.205L520 174.545L510 174.545L505 165.885L510 157.224L520 157.224L515 148.564L520 139.904L530 139.904L535 148.564L540 139.904L550 139.904L545 131.244L550 122.583L540 122.583L535 113.923L540 105.263L550 105.263L545 96.603L550 87.942L540 87.942L535 79.282L530 87.942L520 87.942L515 79.282L520 70.622L510 70.622L505 61.962L500 70.622L490 70.622L495 79.282L490 87.942L480 87.942L475 79.282L470 87.942L460 87.942L455 79.282L460 70.622L450 70.622L445 61.962L450 53.301L460 53.301L455 44.641L460 35.981L450 35.981L445 27.321L440 35.981L430 35.981L425 27.321L430 18.66L420 18.66L415 10L410 18.66L400 18.66L405 27.321L400 35.981L390 35.981L385 27.321L380 35.981L370 35.981L375 44.641L370 53.301L380 53.301L385 61.962L380 70.622L370 70.622L375 79.282L370 87.942L360 87.942L355 79.282L350 87.942L340 87.942L335 79.282L340 70.622L330 70.622L325 61.962L320 70.622L310 70.622L315 79.282L310 87.942L300 87.942L295 79.282L290 87.942L280 87.942L285 96.603L280 105.263L290 105.263L295 113.923L290 122.583L280 122.583L285 131.244L280 139.904L290 139.904L295 148.564L300 139.904L310 139.904L315 148.564L310 157.224L320 157.224L325 165.885L320 174.545L310 174.545L315 183.205L310 191.865L300 191.865L295 183.205L290 191.865L280 191.865L285 200.526L280 209.186L290 209.186L295 217.846L290 226.506L280 226.506L285 235.167L280 243.827L270 243.827L265 235.167L260 243.827L250 243.827L245 235.167L250 226.506L240 226.506L235 217.846L230 226.506L220 226.506L225 235.167L220 243.827L210 243.827L205 235.167L200 243.827L190 243.827L185 235.167L190 226.506L180 226.506L175 217.846L180 209.186L190 209.186L185 200.526L190 191.865L180 191.865L175 183.205L170 191.865L160 191.865L155 183.205L160 174.545L150 174.545L145 165.885L140 174.545L130 174.545L135 183.205L130 191.865L120 191.865L115 183.205L110 191.865L100 191.865L105 200.526L100 209.186L110 209.186L115 217.846L110 226.506L100 226.506L105 235.167L100 243.827L90 243.827L85 235.167L80 243.827L70 243.827L65 235.167L70 226.506L60 226.506L55 217.846L50 226.506L40 226.506L45 235.167L40 243.827L30 243.827L25 235.167L20 243.827L10 243.827L15 252.487L10 261.147L20 261.147L25 269.808L20 278.468L10 278.468L15 287.128L10 295.788L20 295.788L25 304.449L30 295.788L40 295.788L45 304.449L40 313.109L50 313.109L55 321.769L50 330.429L40 330.429L45 339.09L40 347.75L30 347.75L25 339.09L20 347.75L10 347.75L15 356.41L10 365.07L20 365.07L25 373.731L20 382.391L10 382.391L15 391.051L10 399.711L20 399.711L25 408.372L30 399.711L40 399.711L45 408.372L40 417.032L50 417.032L55 425.692L60 417.032L70 417.032L65 408.372L70 399.711L80 399.711L85 408.372L90 399.711L100 399.711L105 408.372L100 417.032L110 417.032L115 425.692L110 434.352L100 434.352L105 443.013L100 451.673L110 451.673L115 460.333L120 451.673L130 451.673L135 460.333L130 468.993L140 468.993L145 477.654L140 486.314L130 486.314L135 494.974L130 503.634L120 503.634L115 494.974L110 503.634L100 503.634L105 512.295L100 520.955L110 520.955L115 529.615L110 538.275L100 538.275L105 546.936L100 555.596L90 555.596L85 546.936L80 555.596L70 555.596L65 546.936L70 538.275L60 538.275L55 529.615L50 538.275L40 538.275L45 546.936L40 555.596L30 555.596L25 546.936L20 555.596L10 555.596L15 564.256L10 572.917L20 572.917L25 581.577L20 590.237L10 590.237L15 598.897L10 607.558L20 607.558L25 616.218L30 607.558L40 607.558L45 616.218L40 624.878L50 624.878L55 633.538L50 642.199L40 642.199L45 650.859L40 659.519L30 659.519L25 650.859L20 659.519L10 659.519L15 668.179L10 676.84L20 676.84L25 685.5L20 694.16L10 694.16L15 702.82L10 711.481"/></svg>