<svg xmlns="http://www.w3.org/2000/svg" width="605.07" height="811.586" viewBox="0 0 605.07 811.586"><rect width="605.07" height="811.586" fill="#ffffff"/><path fill="none" stroke="#111111" stroke-width="1" stroke-linecap="round" stroke-linejoin="round" d="M212.407 801.586L212.407 791.586L212.407 781.586L212.407 771.586L212.407 761.586L212.407 751.586L212.407 741.586L212.407 731.586L212.407 721.586L212.407 711.586L212.407 701.586L212.407 691.586L212.407 681.586L212.407 671.586L212.407 661.586L212.407 651.586L212.407 641.586L208.181 632.523L203.955 623.46L199.729 614.397L195.503 605.334L191.277 596.271L187.05 587.208L182.824 578.145L178.598 569.082L170.938 562.654L163.277 556.226L155.617 549.798L147.956 543.37L138.297 540.782L128.638 538.194L118.79 539.93L108.942 541.667L99.282 539.078M128.638 538.194L118.978 535.605L109.319 533.017L101.659 526.589M128.638 538.194L118.978 535.605L109.319 533.017L101.659 526.589L93.998 520.162L86.338 513.734L78.677 507.306L74.451 498.243M109.319 533.017L99.471 534.754L89.623 536.49L79.964 533.902M147.956 543.37L140.296 536.942L132.635 530.514L122.976 527.926L113.317 525.338L105.656 518.91M132.635 530.514L124.975 524.086L117.314 517.659L113.088 508.595M132.635 530.514L124.975 524.086L117.314 517.659L113.088 508.595L108.862 499.532L104.636 490.469L100.41 481.406L100.41 471.406M117.314 517.659L107.655 515.07L97.996 512.482L90.335 506.054M147.956 543.37L140.296 536.942L132.635 530.514L124.975 524.086L117.314 517.659L113.088 508.595L108.862 499.532L104.636 490.469L100.41 481.406L96.184 472.343L91.957 463.28L84.297 456.852L76.636 450.424L72.41 441.361M91.957 463.28L87.731 454.217L83.505 445.154L83.505 435.154M91.957 463.28L87.731 454.217L83.505 445.154L83.505 435.154L83.505 425.154L83.505 415.154L83.505 405.154L87.731 396.091M83.505 445.154L75.845 438.726L68.184 432.298L63.958 423.235M117.314 517.659L107.655 515.07L97.996 512.482L88.148 514.219L78.3 515.955L68.641 513.367M97.996 512.482L88.337 509.894L78.677 507.306L71.017 500.878M97.996 512.482L88.337 509.894L78.677 507.306L71.017 500.878L63.357 494.45L55.696 488.022L48.036 481.594L43.809 472.531M78.677 507.306L68.829 509.042L58.981 510.779L49.322 508.191M178.598 569.082L174.372 560.018L170.146 550.955L165.919 541.892L161.693 532.829L154.033 526.401L146.372 519.974L136.713 517.385L127.054 514.797L119.393 508.369M146.372 519.974L138.712 513.546L131.052 507.118L126.825 498.055M146.372 519.974L138.712 513.546L131.052 507.118L126.825 498.055L122.599 488.992L118.373 479.929L114.147 470.865L114.147 460.865M131.052 507.118L121.392 504.53L111.733 501.941L104.073 495.513M161.693 532.829L157.467 523.766L153.241 514.703L145.58 508.275L137.92 501.847L133.694 492.784M153.241 514.703L149.015 505.64L144.789 496.577L144.789 486.577M153.241 514.703L149.015 505.64L144.789 496.577L144.789 486.577L144.789 476.577L144.789 466.577L144.789 456.577L149.015 447.514M144.789 496.577L137.128 490.149L129.468 483.721L125.241 474.658M161.693 532.829L157.467 523.766L153.241 514.703L149.015 505.64L144.789 496.577L144.789 486.577L144.789 476.577L144.789 466.577L144.789 456.577L144.789 446.577L144.789 436.577L140.562 427.514L136.336 418.451L136.336 408.451M144.789 436.577L144.789 426.577L144.789 416.577L149.015 407.514M144.789 436.577L144.789 426.577L144.789 416.577L149.015 407.514L153.241 398.451L157.467 389.388L161.693 380.325L169.354 373.897M144.789 416.577L140.562 407.514L136.336 398.451L136.336 388.451M144.789 496.577L137.128 490.149L129.468 483.721L119.808 481.133L110.149 478.545L102.489 472.117M129.468 483.721L121.807 477.293L114.147 470.865L109.921 461.802M129.468 483.721L121.807 477.293L114.147 470.865L109.921 461.802L105.694 452.739L101.468 443.676L97.242 434.613L97.242 424.613M114.147 470.865L104.488 468.277L94.828 465.689L87.168 459.261M178.598 569.082L174.372 560.018L170.146 550.955L165.919 541.892L161.693 532.829L157.467 523.766L153.241 514.703L149.015 505.64L144.789 496.577L144.789 486.577L144.789 476.577L144.789 466.577L144.789 456.577L144.789 446.577L144.789 436.577L144.789 426.577L144.789 416.577L144.789 406.577L144.789 396.577L144.789 386.577L144.789 376.577L140.562 367.514L136.336 358.451L128.676 352.023L121.015 345.595L116.789 336.532M136.336 358.451L132.11 349.388L127.884 340.325L127.884 330.325M136.336 358.451L132.11 349.388L127.884 340.325L127.884 330.325L127.884 320.325L127.884 310.325L127.884 300.325L132.11 291.262M127.884 340.325L120.223 333.897L112.563 327.469L108.337 318.406M144.789 376.577L144.789 366.577L144.789 356.577L140.562 347.514L136.336 338.451L136.336 328.451M144.789 356.577L144.789 346.577L144.789 336.577L149.015 327.514M144.789 356.577L144.789 346.577L144.789 336.577L149.015 327.514L153.241 318.451L157.467 309.388L161.693 300.325L169.354 293.897M144.789 336.577L140.562 327.514L136.336 318.451L136.336 308.451M144.789 376.577L144.789 366.577L144.789 356.577L144.789 346.577L144.789 336.577L149.015 327.514L153.241 318.451L157.467 309.388L161.693 300.325L165.919 291.262L170.146 282.198L170.146 272.198L170.146 262.198L174.372 253.135M170.146 282.198L174.372 273.135L178.598 264.072L186.258 257.644M170.146 282.198L174.372 273.135L178.598 264.072L186.258 257.644L193.919 251.217L201.579 244.789L209.24 238.361L218.899 235.773M178.598 264.072L178.598 254.072L178.598 244.072L182.824 235.009M144.789 336.577L140.562 327.514L136.336 318.451L128.676 312.023L121.015 305.595L116.789 296.532M136.336 318.451L132.11 309.388L127.884 300.325L127.884 290.325M136.336 318.451L132.11 309.388L127.884 300.325L127.884 290.325L127.884 280.325L127.884 270.325L127.884 260.325L132.11 251.262M127.884 300.325L120.223 293.897L112.563 287.469L108.337 278.406M144.789 496.577L137.128 490.149L129.468 483.721L121.807 477.293L114.147 470.865L104.488 468.277L94.828 465.689L84.98 467.426L75.132 469.162L65.473 466.574M94.828 465.689L85.169 463.101L75.51 460.513L67.849 454.085M94.828 465.689L85.169 463.101L75.51 460.513L67.849 454.085L60.189 447.657L52.528 441.229L44.868 434.801L40.642 425.738M75.51 460.513L65.662 462.249L55.814 463.986L46.154 461.397M114.147 470.865L106.486 464.438L98.826 458.01L89.167 455.421L79.507 452.833L71.847 446.405M98.826 458.01L91.165 451.582L83.505 445.154L79.279 436.091M98.826 458.01L91.165 451.582L83.505 445.154L79.279 436.091L75.053 427.028L70.826 417.965L66.6 408.902L66.6 398.902M83.505 445.154L73.846 442.566L64.186 439.978L56.526 433.55M114.147 470.865L106.486 464.438L98.826 458.01L91.165 451.582L83.505 445.154L79.279 436.091L75.053 427.028L70.826 417.965L66.6 408.902L62.374 399.839L58.148 390.775L50.487 384.348L42.827 377.92L38.601 368.857M58.148 390.775L53.922 381.712L49.696 372.649L49.696 362.649M58.148 390.775L53.922 381.712L49.696 372.649L49.696 362.649L49.696 352.649L49.696 342.649L49.696 332.649L53.922 323.586M49.696 372.649L42.035 366.221L34.375 359.794L30.148 350.73M83.505 445.154L73.846 442.566L64.186 439.978L54.338 441.714L44.49 443.451L34.831 440.862M64.186 439.978L54.527 437.389L44.868 434.801L37.208 428.373M64.186 439.978L54.527 437.389L44.868 434.801L37.208 428.373L29.547 421.945L21.887 415.518L14.226 409.09L10 400.027M44.868 434.801L35.02 436.538L25.172 438.274L15.513 435.686M212.407 641.586L212.407 631.586L212.407 621.586L212.407 611.586L212.407 601.586L212.407 591.586L212.407 581.586L212.407 571.586L212.407 561.586L208.181 552.523L203.955 543.46L199.729 534.397L195.503 525.334L187.842 518.906L180.182 512.478L170.523 509.89L160.863 507.302L153.203 500.874M180.182 512.478L172.521 506.05L164.861 499.622L160.635 490.559M180.182 512.478L172.521 506.05L164.861 499.622L160.635 490.559L156.409 481.496L152.182 472.433L147.956 463.37L147.956 453.37M164.861 499.622L155.202 497.034L145.542 494.446L137.882 488.018M195.503 525.334L191.277 516.271L187.05 507.208L179.39 500.78L171.729 494.352L167.503 485.289M187.05 507.208L182.824 498.145L178.598 489.082L178.598 479.082M187.05 507.208L182.824 498.145L178.598 489.082L178.598 479.082L178.598 469.082L178.598 459.082L178.598 449.082L182.824 440.018M178.598 489.082L170.938 482.654L163.277 476.226L159.051 467.163M195.503 525.334L191.277 516.271L187.05 507.208L182.824 498.145L178.598 489.082L178.598 479.082L178.598 469.082L178.598 459.082L178.598 449.082L178.598 439.082L178.598 429.082L174.372 420.018L170.146 410.955L170.146 400.955M178.598 429.082L178.598 419.082L178.598 409.082L182.824 400.018M178.598 429.082L178.598 419.082L178.598 409.082L182.824 400.018L187.05 390.955L191.277 381.892L195.503 372.829L203.163 366.401M178.598 409.082L174.372 400.018L170.146 390.955L170.146 380.955M178.598 489.082L170.938 482.654L163.277 476.226L153.618 473.638L143.959 471.049L136.298 464.622M163.277 476.226L155.617 469.798L147.956 463.37L143.73 454.307M163.277 476.226L155.617 469.798L147.956 463.37L143.73 454.307L139.504 445.244L135.278 436.181L131.052 427.118L131.052 417.118M147.956 463.37L138.297 460.782L128.638 458.194L120.977 451.766M212.407 561.586L212.407 551.586L212.407 541.586L212.407 531.586L212.407 521.586L208.181 512.523L203.955 503.46L196.295 497.032L188.634 490.604L184.408 481.541M203.955 503.46L199.729 494.397L195.503 485.334L195.503 475.334M203.955 503.46L199.729 494.397L195.503 485.334L195.503 475.334L195.503 465.334L195.503 455.334L195.503 445.334L199.729 436.271M195.503 485.334L187.842 478.906L180.182 472.478L175.956 463.415M212.407 521.586L212.407 511.586L212.407 501.586L208.181 492.523L203.955 483.46L203.955 473.46M212.407 501.586L212.407 491.586L212.407 481.586L216.634 472.523M212.407 501.586L212.407 491.586L212.407 481.586L216.634 472.523L220.86 463.46L225.086 454.397L229.312 445.334L236.973 438.906M212.407 481.586L208.181 472.523L203.955 463.46L203.955 453.46M212.407 521.586L212.407 511.586L212.407 501.586L212.407 491.586L212.407 481.586L216.634 472.523L220.86 463.46L225.086 454.397L229.312 445.334L233.538 436.271L237.765 427.208L237.765 417.208L237.765 407.208L241.991 398.145M237.765 427.208L241.991 418.145L246.217 409.082L253.877 402.654M237.765 427.208L241.991 418.145L246.217 409.082L253.877 402.654L261.538 396.226L269.198 389.798L276.859 383.37L286.518 380.782M246.217 409.082L246.217 399.082L246.217 389.082L250.443 380.018M212.407 481.586L208.181 472.523L203.955 463.46L196.295 457.032L188.634 450.604L184.408 441.541M203.955 463.46L199.729 454.397L195.503 445.334L195.503 435.334M203.955 463.46L199.729 454.397L195.503 445.334L195.503 435.334L195.503 425.334L195.503 415.334L195.503 405.334L199.729 396.271M195.503 445.334L187.842 438.906L180.182 432.478L175.956 423.415M212.407 561.586L212.407 551.586L212.407 541.586L212.407 531.586L212.407 521.586L212.407 511.586L212.407 501.586L212.407 491.586L212.407 481.586L216.634 472.523L220.86 463.46L225.086 454.397L229.312 445.334L233.538 436.271L237.765 427.208L241.991 418.145L246.217 409.082L250.443 400.018L254.669 390.955L258.895 381.892L263.122 372.829L263.122 362.829L263.122 352.829L258.895 343.766L254.669 334.703L254.669 324.703M263.122 352.829L263.122 342.829L263.122 332.829L267.348 323.766M263.122 352.829L263.122 342.829L263.122 332.829L267.348 323.766L271.574 314.703L275.8 305.64L280.026 296.577L287.687 290.149M263.122 332.829L258.895 323.766L254.669 314.703L254.669 304.703M263.122 372.829L267.348 363.766L271.574 354.703L271.574 344.703L271.574 334.703L275.8 325.64M271.574 354.703L275.8 345.64L280.026 336.577L287.687 330.149M271.574 354.703L275.8 345.64L280.026 336.577L287.687 330.149L295.347 323.721L303.008 317.293L310.668 310.865L320.327 308.277M280.026 336.577L280.026 326.577L280.026 316.577L284.253 307.514M263.122 372.829L267.348 363.766L271.574 354.703L275.8 345.64L280.026 336.577L287.687 330.149L295.347 323.721L303.008 317.293L310.668 310.865L318.329 304.438L325.989 298.01L330.215 288.947L334.441 279.884L342.102 273.456M325.989 298.01L333.65 291.582L341.31 285.154L350.969 282.566M325.989 298.01L333.65 291.582L341.31 285.154L350.969 282.566L360.628 279.978L370.288 277.389L379.947 274.801L389.795 276.538M341.31 285.154L345.536 276.091L349.762 267.028L357.423 260.6M280.026 336.577L280.026 326.577L280.026 316.577L275.8 307.514L271.574 298.451L271.574 288.451M280.026 316.577L280.026 306.577L280.026 296.577L284.253 287.514M280.026 316.577L280.026 306.577L280.026 296.577L284.253 287.514L288.479 278.451L292.705 269.388L296.931 260.325L304.592 253.897M280.026 296.577L275.8 287.514L271.574 278.451L271.574 268.451M212.407 481.586L208.181 472.523L203.955 463.46L199.729 454.397L195.503 445.334L187.842 438.906L180.182 432.478L170.523 429.89L160.863 427.302L153.203 420.874M180.182 432.478L172.521 426.05L164.861 419.622L160.635 410.559M180.182 432.478L172.521 426.05L164.861 419.622L160.635 410.559L156.409 401.496L152.182 392.433L147.956 383.37L147.956 373.37M164.861 419.622L155.202 417.034L145.542 414.446L137.882 408.018M195.503 445.334L191.277 436.271L187.05 427.208L179.39 420.78L171.729 414.352L167.503 405.289M187.05 427.208L182.824 418.145L178.598 409.082L178.598 399.082M187.05 427.208L182.824 418.145L178.598 409.082L178.598 399.082L178.598 389.082L178.598 379.082L178.598 369.082L182.824 360.018M178.598 409.082L170.938 402.654L163.277 396.226L159.051 387.163M195.503 445.334L191.277 436.271L187.05 427.208L182.824 418.145L178.598 409.082L178.598 399.082L178.598 389.082L178.598 379.082L178.598 369.082L178.598 359.082L178.598 349.082L174.372 340.018L170.146 330.955L170.146 320.955M178.598 349.082L178.598 339.082L178.598 329.082L182.824 320.018M178.598 349.082L178.598 339.082L178.598 329.082L182.824 320.018L187.05 310.955L191.277 301.892L195.503 292.829L203.163 286.401M178.598 329.082L174.372 320.018L170.146 310.955L170.146 300.955M178.598 409.082L170.938 402.654L163.277 396.226L153.618 393.638L143.959 391.049L136.298 384.622M163.277 396.226L155.617 389.798L147.956 383.37L143.73 374.307M163.277 396.226L155.617 389.798L147.956 383.37L143.73 374.307L139.504 365.244L135.278 356.181L131.052 347.118L131.052 337.118M147.956 383.37L138.297 380.782L128.638 378.194L120.977 371.766M212.407 641.586L212.407 631.586L212.407 621.586L212.407 611.586L212.407 601.586L212.407 591.586L212.407 581.586L212.407 571.586L212.407 561.586L212.407 551.586L212.407 541.586L212.407 531.586L212.407 521.586L212.407 511.586L212.407 501.586L212.407 491.586L212.407 481.586L216.634 472.523L220.86 463.46L225.086 454.397L229.312 445.334L233.538 436.271L237.765 427.208L241.991 418.145L246.217 409.082L250.443 400.018L254.669 390.955L258.895 381.892L263.122 372.829L267.348 363.766L271.574 354.703L275.8 345.64L280.026 336.577L284.253 327.514L288.479 318.451L292.705 309.388L296.931 300.325L301.157 291.262L305.383 282.198L309.61 273.135L313.836 264.072L313.836 254.072L313.836 244.072L313.836 234.072L313.836 224.072L309.61 215.009L305.383 205.946L297.723 199.518L290.063 193.09L285.836 184.027M305.383 205.946L301.157 196.883L296.931 187.82L296.931 177.82M305.383 205.946L301.157 196.883L296.931 187.82L296.931 177.82L296.931 167.82L296.931 157.82L296.931 147.82L301.157 138.757M296.931 187.82L289.271 181.392L281.61 174.964L277.384 165.901M313.836 224.072L313.836 214.072L313.836 204.072L309.61 195.009L305.383 185.946L305.383 175.946M313.836 204.072L313.836 194.072L313.836 184.072L318.062 175.009M313.836 204.072L313.836 194.072L313.836 184.072L318.062 175.009L322.288 165.946L326.514 156.883L330.741 147.82L338.401 141.392M313.836 184.072L309.61 175.009L305.383 165.946L305.383 155.946M313.836 224.072L313.836 214.072L313.836 204.072L313.836 194.072L313.836 184.072L318.062 175.009L322.288 165.946L326.514 156.883L330.741 147.82L334.967 138.757L339.193 129.694L339.193 119.694L339.193 109.694L343.419 100.631M339.193 129.694L343.419 120.631L347.645 111.568L355.306 105.14M339.193 129.694L343.419 120.631L347.645 111.568L355.306 105.14L362.966 98.712L370.627 92.284L378.287 85.856L387.946 83.268M347.645 111.568L347.645 101.568L347.645 91.568L351.871 82.505M313.836 184.072L309.61 175.009L305.383 165.946L297.723 159.518L290.063 153.09L285.836 144.027M305.383 165.946L301.157 156.883L296.931 147.82L296.931 137.82M305.383 165.946L301.157 156.883L296.931 147.82L296.931 137.82L296.931 127.82L296.931 117.82L296.931 107.82L301.157 98.757M296.931 147.82L289.271 141.392L281.61 134.964L277.384 125.901M313.836 264.072L318.062 255.009L322.288 245.946L326.514 236.883L330.741 227.82L330.741 217.82L330.741 207.82L326.514 198.757L322.288 189.694L322.288 179.694M330.741 207.82L330.741 197.82L330.741 187.82L334.967 178.757M330.741 207.82L330.741 197.82L330.741 187.82L334.967 178.757L339.193 169.694L343.419 160.631L347.645 151.568L355.306 145.14M330.741 187.82L326.514 178.757L322.288 169.694L322.288 159.694M330.741 227.82L334.967 218.757L339.193 209.694L339.193 199.694L339.193 189.694L343.419 180.631M339.193 209.694L343.419 200.631L347.645 191.568L355.306 185.14M339.193 209.694L343.419 200.631L347.645 191.568L355.306 185.14L362.966 178.712L370.627 172.284L378.287 165.856L387.946 163.268M347.645 191.568L347.645 181.568L347.645 171.568L351.871 162.505M330.741 227.82L334.967 218.757L339.193 209.694L343.419 200.631L347.645 191.568L355.306 185.14L362.966 178.712L370.627 172.284L378.287 165.856L385.948 159.428L393.608 153L397.834 143.937L402.06 134.874L409.721 128.446M393.608 153L401.268 146.573L408.929 140.145L418.588 137.557M393.608 153L401.268 146.573L408.929 140.145L418.588 137.557L428.247 134.968L437.907 132.38L447.566 129.792L457.414 131.528M408.929 140.145L413.155 131.082L417.381 122.019L425.042 115.591M347.645 191.568L347.645 181.568L347.645 171.568L343.419 162.505L339.193 153.442L339.193 143.442M347.645 171.568L347.645 161.568L347.645 151.568L351.871 142.505M347.645 171.568L347.645 161.568L347.645 151.568L351.871 142.505L356.098 133.442L360.324 124.378L364.55 115.315L372.21 108.888M347.645 151.568L343.419 142.505L339.193 133.442L339.193 123.442M313.836 264.072L318.062 255.009L322.288 245.946L326.514 236.883L330.741 227.82L334.967 218.757L339.193 209.694L343.419 200.631L347.645 191.568L355.306 185.14L362.966 178.712L370.627 172.284L378.287 165.856L385.948 159.428L393.608 153L401.268 146.573L408.929 140.145L416.589 133.717L424.25 127.289L431.91 120.861L439.571 114.433L443.797 105.37L448.023 96.307L448.023 86.307L448.023 76.307L452.249 67.244M448.023 96.307L452.249 87.244L456.475 78.181L464.136 71.753M448.023 96.307L452.249 87.244L456.475 78.181L464.136 71.753L471.796 65.325L479.457 58.897L487.117 52.469L496.776 49.881M456.475 78.181L456.475 68.181L456.475 58.181L460.702 49.118M439.571 114.433L447.231 108.005L454.892 101.577L459.118 92.514L463.344 83.451L471.004 77.023M454.892 101.577L462.552 95.15L470.212 88.722L479.872 86.133M454.892 101.577L462.552 95.15L470.212 88.722L479.872 86.133L489.531 83.545L499.19 80.957L508.849 78.369L518.698 80.105M470.212 88.722L474.439 79.659L478.665 70.596L486.325 64.168M439.571 114.433L447.231 108.005L454.892 101.577L462.552 95.15L470.212 88.722L479.872 86.133L489.531 83.545L499.19 80.957L508.849 78.369L518.509 75.781L528.168 73.193L535.828 66.765L543.489 60.337L553.148 57.749M528.168 73.193L537.827 70.604L547.486 68.016L557.335 69.753M528.168 73.193L537.827 70.604L547.486 68.016L557.335 69.753L567.183 71.489L577.031 73.226L586.879 74.962L595.07 80.698M547.486 68.016L555.147 61.588L562.807 55.16L572.467 52.572M470.212 88.722L474.439 79.659L478.665 70.596L478.665 60.596L478.665 50.596L482.891 41.532M478.665 70.596L482.891 61.532L487.117 52.469L494.778 46.041M478.665 70.596L482.891 61.532L487.117 52.469L494.778 46.041L502.438 39.614L510.098 33.186L517.759 26.758L527.418 24.17M487.117 52.469L487.117 42.469L487.117 32.469L491.343 23.406M347.645 191.568L347.645 181.568L347.645 171.568L347.645 161.568L347.645 151.568L343.419 142.505L339.193 133.442L331.533 127.014L323.872 120.586L319.646 111.523M339.193 133.442L334.967 124.378L330.741 115.315L330.741 105.315M339.193 133.442L334.967 124.378L330.741 115.315L330.741 105.315L330.741 95.315L330.741 85.315L330.741 75.315L334.967 66.252M330.741 115.315L323.08 108.888L315.42 102.46L311.194 93.397M347.645 151.568L347.645 141.568L347.645 131.568L343.419 122.505L339.193 113.442L339.193 103.442M347.645 131.568L347.645 121.568L347.645 111.568L351.871 102.505M347.645 131.568L347.645 121.568L347.645 111.568L351.871 102.505L356.098 93.442L360.324 84.378L364.55 75.315L372.21 68.888M347.645 111.568L343.419 102.505L339.193 93.442L339.193 83.442M347.645 151.568L347.645 141.568L347.645 131.568L347.645 121.568L347.645 111.568L351.871 102.505L356.098 93.442L360.324 84.378L364.55 75.315L368.776 66.252L373.002 57.189L373.002 47.189L373.002 37.189L377.229 28.126M373.002 57.189L377.229 48.126L381.455 39.063L389.115 32.635M373.002 57.189L377.229 48.126L381.455 39.063L389.115 32.635L396.776 26.207L404.436 19.779L412.097 13.352L421.756 10.763M381.455 39.063L381.455 29.063L381.455 19.063L385.681 10M347.645 111.568L343.419 102.505L339.193 93.442L331.533 87.014L323.872 80.586L319.646 71.523M339.193 93.442L334.967 84.378L330.741 75.315L330.741 65.315M339.193 93.442L334.967 84.378L330.741 75.315L330.741 65.315L330.741 55.315L330.741 45.315L330.741 35.315L334.967 26.252M330.741 75.315L323.08 68.888L315.42 62.46L311.194 53.397M212.407 481.586L208.181 472.523L203.955 463.46L199.729 454.397L195.503 445.334L191.277 436.271L187.05 427.208L182.824 418.145L178.598 409.082L170.938 402.654L163.277 396.226L155.617 389.798L147.956 383.37L138.297 380.782L128.638 378.194L118.79 379.93L108.942 381.667L99.282 379.078M128.638 378.194L118.978 375.605L109.319 373.017L101.659 366.589M128.638 378.194L118.978 375.605L109.319 373.017L101.659 366.589L93.998 360.162L86.338 353.734L78.677 347.306L74.451 338.243M109.319 373.017L99.471 374.754L89.623 376.49L79.964 373.902M147.956 383.37L140.296 376.942L132.635 370.514L122.976 367.926L113.317 365.338L105.656 358.91M132.635 370.514L124.975 364.086L117.314 357.659L113.088 348.595M132.635 370.514L124.975 364.086L117.314 357.659L113.088 348.595L108.862 339.532L104.636 330.469L100.41 321.406L100.41 311.406M117.314 357.659L107.655 355.07L97.996 352.482L90.335 346.054M147.956 383.37L140.296 376.942L132.635 370.514L124.975 364.086L117.314 357.659L113.088 348.595L108.862 339.532L104.636 330.469L100.41 321.406L96.184 312.343L91.957 303.28L84.297 296.852L76.636 290.424L72.41 281.361M91.957 303.28L87.731 294.217L83.505 285.154L83.505 275.154M91.957 303.28L87.731 294.217L83.505 285.154L83.505 275.154L83.505 265.154L83.505 255.154L83.505 245.154L87.731 236.091M83.505 285.154L75.845 278.726L68.184 272.298L63.958 263.235M117.314 357.659L107.655 355.07L97.996 352.482L88.148 354.219L78.3 355.955L68.641 353.367M97.996 352.482L88.337 349.894L78.677 347.306L71.017 340.878M97.996 352.482L88.337 349.894L78.677 347.306L71.017 340.878L63.357 334.45L55.696 328.022L48.036 321.594L43.809 312.531M78.677 347.306L68.829 349.042L58.981 350.779L49.322 348.191M178.598 409.082L174.372 400.018L170.146 390.955L165.919 381.892L161.693 372.829L154.033 366.401L146.372 359.974L136.713 357.385L127.054 354.797L119.393 348.369M146.372 359.974L138.712 353.546L131.052 347.118L126.825 338.055M146.372 359.974L138.712 353.546L131.052 347.118L126.825 338.055L122.599 328.992L118.373 319.929L114.147 310.865L114.147 300.865M131.052 347.118L121.392 344.53L111.733 341.941L104.073 335.513M161.693 372.829L157.467 363.766L153.241 354.703L145.58 348.275L137.92 341.847L133.694 332.784M153.241 354.703L149.015 345.64L144.789 336.577L144.789 326.577M153.241 354.703L149.015 345.64L144.789 336.577L144.789 326.577L144.789 316.577L144.789 306.577L144.789 296.577L149.015 287.514M144.789 336.577L137.128 330.149L129.468 323.721L125.241 314.658M161.693 372.829L157.467 363.766L153.241 354.703L149.015 345.64L144.789 336.577L144.789 326.577L144.789 316.577L144.789 306.577L144.789 296.577L144.789 286.577L144.789 276.577L140.562 267.514L136.336 258.451L136.336 248.451M144.789 276.577L144.789 266.577L144.789 256.577L149.015 247.514M144.789 276.577L144.789 266.577L144.789 256.577L149.015 247.514L153.241 238.451L157.467 229.388L161.693 220.325L169.354 213.897M144.789 256.577L140.562 247.514L136.336 238.451L136.336 228.451M144.789 336.577L137.128 330.149L129.468 323.721L119.808 321.133L110.149 318.545L102.489 312.117M129.468 323.721L121.807 317.293L114.147 310.865L109.921 301.802M129.468 323.721L121.807 317.293L114.147 310.865L109.921 301.802L105.694 292.739L101.468 283.676L97.242 274.613L97.242 264.613M114.147 310.865L104.488 308.277L94.828 305.689L87.168 299.261M178.598 409.082L174.372 400.018L170.146 390.955L165.919 381.892L161.693 372.829L157.467 363.766L153.241 354.703L149.015 345.64L144.789 336.577L144.789 326.577L144.789 316.577L144.789 306.577L144.789 296.577L144.789 286.577L144.789 276.577L144.789 266.577L144.789 256.577L144.789 246.577L144.789 236.577L144.789 226.577L144.789 216.577L140.562 207.514L136.336 198.451L128.676 192.023L121.015 185.595L116.789 176.532M136.336 198.451L132.11 189.388L127.884 180.325L127.884 170.325M136.336 198.451L132.11 189.388L127.884 180.325L127.884 170.325L127.884 160.325L127.884 150.325L127.884 140.325L132.11 131.262M127.884 180.325L120.223 173.897L112.563 167.469L108.337 158.406M144.789 216.577L144.789 206.577L144.789 196.577L140.562 187.514L136.336 178.451L136.336 168.451M144.789 196.577L144.789 186.577L144.789 176.577L149.015 167.514M144.789 196.577L144.789 186.577L144.789 176.577L149.015 167.514L153.241 158.451L157.467 149.388L161.693 140.325L169.354 133.897M144.789 176.577L140.562 167.514L136.336 158.451L136.336 148.451M144.789 216.577L144.789 206.577L144.789 196.577L144.789 186.577L144.789 176.577L149.015 167.514L153.241 158.451L157.467 149.388L161.693 140.325L165.919 131.262L170.146 122.198L170.146 112.198L170.146 102.198L174.372 93.135M170.146 122.198L174.372 113.135L178.598 104.072L186.258 97.644M170.146 122.198L174.372 113.135L178.598 104.072L186.258 97.644L193.919 91.217L201.579 84.789L209.24 78.361L218.899 75.773M178.598 104.072L178.598 94.072L178.598 84.072L182.824 75.009M144.789 176.577L140.562 167.514L136.336 158.451L128.676 152.023L121.015 145.595L116.789 136.532M136.336 158.451L132.11 149.388L127.884 140.325L127.884 130.325M136.336 158.451L132.11 149.388L127.884 140.325L127.884 130.325L127.884 120.325L127.884 110.325L127.884 100.325L132.11 91.262M127.884 140.325L120.223 133.897L112.563 127.469L108.337 118.406M144.789 336.577L137.128 330.149L129.468 323.721L121.807 317.293L114.147 310.865L104.488 308.277L94.828 305.689L84.98 307.426L75.132 309.162L65.473 306.574M94.828 305.689L85.169 303.101L75.51 300.513L67.849 294.085M94.828 305.689L85.169 303.101L75.51 300.513L67.849 294.085L60.189 287.657L52.528 281.229L44.868 274.801L40.642 265.738M75.51 300.513L65.662 302.249L55.814 303.986L46.154 301.397M114.147 310.865L106.486 304.438L98.826 298.01L89.167 295.421L79.507 292.833L71.847 286.405M98.826 298.01L91.165 291.582L83.505 285.154L79.279 276.091M98.826 298.01L91.165 291.582L83.505 285.154L79.279 276.091L75.053 267.028L70.826 257.965L66.6 248.902L66.6 238.902M83.505 285.154L73.846 282.566L64.186 279.978L56.526 273.55M114.147 310.865L106.486 304.438L98.826 298.01L91.165 291.582L83.505 285.154L79.279 276.091L75.053 267.028L70.826 257.965L66.6 248.902L62.374 239.839L58.148 230.775L50.487 224.348L42.827 217.92L38.601 208.857M58.148 230.775L53.922 221.712L49.696 212.649L49.696 202.649M58.148 230.775L53.922 221.712L49.696 212.649L49.696 202.649L49.696 192.649L49.696 182.649L49.696 172.649L53.922 163.586M49.696 212.649L42.035 206.221L34.375 199.794L30.148 190.73M83.505 285.154L73.846 282.566L64.186 279.978L54.338 281.714L44.49 283.451L34.831 280.862M64.186 279.978L54.527 277.389L44.868 274.801L37.208 268.373M64.186 279.978L54.527 277.389L44.868 274.801L37.208 268.373L29.547 261.945L21.887 255.518L14.226 249.09L10 240.027M44.868 274.801L35.02 276.538L25.172 278.274L15.513 275.686"/></svg>