<svg xmlns="http://www.w3.org/2000/svg" width="660" height="574.256" viewBox="0 0 660 574.256"><rect width="660" height="574.256" fill="#ffffff"/><path fill="none" stroke="#111111" stroke-width="1" stroke-linecap="round" stroke-linejoin="round" d="M10 10L20 10L15 18.66L25 18.66L20 10L30 10L25 18.66L20 27.321L30 27.321L25 35.981L35 35.981L30 27.321L40 27.321L35 18.66L30 10L40 10L35 18.66L45 18.66L40 10L50 10L45 18.66L40 27.321L35 35.981L30 44.641L40 44.641L35 53.301L45 53.301L40 44.641L50 44.641L45 53.301L40 61.962L50 61.962L45 70.622L55 70.622L50 61.962L60 61.962L55 53.301L50 44.641L60 44.641L55 53.301L65 53.301L60 44.641L70 44.641L65 35.981L60 27.321L55 18.66L50 10L60 10L55 18.66L65 18.66L60 10L70 10L65 18.66L60 27.321L70 27.321L65 35.981L75 35.981L70 27.321L80 27.321L75 18.66L70 10L80 10L75 18.66L85 18.66L80 10L90 10L85 18.66L80 27.321L75 35.981L70 44.641L65 53.301L60 61.962L55 70.622L50 79.282L60 79.282L55 87.942L65 87.942L60 79.282L70 79.282L65 87.942L60 96.603L70 96.603L65 105.263L75 105.263L70 96.603L80 96.603L75 87.942L70 79.282L80 79.282L75 87.942L85 87.942L80 79.282L90 79.282L85 87.942L80 96.603L75 105.263L70 113.923L80 113.923L75 122.583L85 122.583L80 113.923L90 113.923L85 122.583L80 131.244L90 131.244L85 139.904L95 139.904L90 131.244L100 131.244L95 122.583L90 113.923L100 113.923L95 122.583L105 122.583L100 113.923L110 113.923L105 105.263L100 96.603L95 87.942L90 79.282L100 79.282L95 87.942L105 87.942L100 79.282L110 79.282L105 87.942L100 96.603L110 96.603L105 105.263L115 105.263L110 96.603L120 96.603L115 87.942L110 79.282L120 79.282L115 87.942L125 87.942L120 79.282L130 79.282L125 70.622L120 61.962L115 53.301L110 44.641L105 35.981L100 27.321L95 18.66L90 10L100 10L95 18.66L105 18.66L100 10L110 10L105 18.66L100 27.321L110 27.321L105 35.981L115 35.981L110 27.321L120 27.321L115 18.66L110 10L120 10L115 18.66L125 18.66L120 10L130 10L125 18.66L120 27.321L115 35.981L110 44.641L120 44.641L115 53.301L125 53.301L120 44.641L130 44.641L125 53.301L120 61.962L130 61.962L125 70.622L135 70.622L130 61.962L140 61.962L135 53.301L130 44.641L140 44.641L135 53.301L145 53.301L140 44.641L150 44.641L145 35.981L140 27.321L135 18.66L130 10L140 10L135 18.66L145 18.66L140 10L150 10L145 18.66L140 27.321L150 27.321L145 35.981L155 35.981L150 27.321L160 27.321L155 18.66L150 10L160 10L155 18.66L165 18.66L160 10L170 10L165 18.66L160 27.321L155 35.981L150 44.641L145 53.301L140 61.962L135 70.622L130 79.282L125 87.942L120 96.603L115 105.263L110 113.923L105 122.583L100 131.244L95 139.904L90 148.564L100 148.564L95 157.224L105 157.224L100 148.564L110 148.564L105 157.224L100 165.885L110 165.885L105 174.545L115 174.545L110 165.885L120 165.885L115 157.224L110 148.564L120 148.564L115 157.224L125 157.224L120 148.564L130 148.564L125 157.224L120 165.885L115 174.545L110 183.205L120 183.205L115 191.865L125 191.865L120 183.205L130 183.205L125 191.865L120 200.526L130 200.526L125 209.186L135 209.186L130 200.526L140 200.526L135 191.865L130 183.205L140 183.205L135 191.865L145 191.865L140 183.205L150 183.205L145 174.545L140 165.885L135 157.224L130 148.564L140 148.564L135 157.224L145 157.224L140 148.564L150 148.564L145 157.224L140 165.885L150 165.885L145 174.545L155 174.545L150 165.885L160 165.885L155 157.224L150 148.564L160 148.564L155 157.224L165 157.224L160 148.564L170 148.564L165 157.224L160 165.885L155 174.545L150 183.205L145 191.865L140 200.526L135 209.186L130 217.846L140 217.846L135 226.506L145 226.506L140 217.846L150 217.846L145 226.506L140 235.167L150 235.167L145 243.827L155 243.827L150 235.167L160 235.167L155 226.506L150 217.846L160 217.846L155 226.506L165 226.506L160 217.846L170 217.846L165 226.506L160 235.167L155 243.827L150 252.487L160 252.487L155 261.147L165 261.147L160 252.487L170 252.487L165 261.147L160 269.808L170 269.808L165 278.468L175 278.468L170 269.808L180 269.808L175 261.147L170 252.487L180 252.487L175 261.147L185 261.147L180 252.487L190 252.487L185 243.827L180 235.167L175 226.506L170 217.846L180 217.846L175 226.506L185 226.506L180 217.846L190 217.846L185 226.506L180 235.167L190 235.167L185 243.827L195 243.827L190 235.167L200 235.167L195 226.506L190 217.846L200 217.846L195 226.506L205 226.506L200 217.846L210 217.846L205 209.186L200 200.526L195 191.865L190 183.205L185 174.545L180 165.885L175 157.224L170 148.564L180 148.564L175 157.224L185 157.224L180 148.564L190 148.564L185 157.224L180 165.885L190 165.885L185 174.545L195 174.545L190 165.885L200 165.885L195 157.224L190 148.564L200 148.564L195 157.224L205 157.224L200 148.564L210 148.564L205 157.224L200 165.885L195 174.545L190 183.205L200 183.205L195 191.865L205 191.865L200 183.205L210 183.205L205 191.865L200 200.526L210 200.526L205 209.186L215 209.186L210 200.526L220 200.526L215 191.865L210 183.205L220 183.205L215 191.865L225 191.865L220 183.205L230 183.205L225 174.545L220 165.885L215 157.224L210 148.564L220 148.564L215 157.224L225 157.224L220 148.564L230 148.564L225 157.224L220 165.885L230 165.885L225 174.545L235 174.545L230 165.885L240 165.885L235 157.224L230 148.564L240 148.564L235 157.224L245 157.224L240 148.564L250 148.564L245 139.904L240 131.244L235 122.583L230 113.923L225 105.263L220 96.603L215 87.942L210 79.282L205 70.622L200 61.962L195 53.301L190 44.641L185 35.981L180 27.321L175 18.66L170 10L180 10L175 18.66L185 18.66L180 10L190 10L185 18.66L180 27.321L190 27.321L185 35.981L195 35.981L190 27.321L200 27.321L195 18.66L190 10L200 10L195 18.66L205 18.66L200 10L210 10L205 18.66L200 27.321L195 35.981L190 44.641L200 44.641L195 53.301L205 53.301L200 44.641L210 44.641L205 53.301L200 61.962L210 61.962L205 70.622L215 70.622L210 61.962L220 61.962L215 53.301L210 44.641L220 44.641L215 53.301L225 53.301L220 44.641L230 44.641L225 35.981L220 27.321L215 18.66L210 10L220 10L215 18.66L225 18.66L220 10L230 10L225 18.66L220 27.321L230 27.321L225 35.981L235 35.981L230 27.321L240 27.321L235 18.66L230 10L240 10L235 18.66L245 18.66L240 10L250 10L245 18.66L240 27.321L235 35.981L230 44.641L225 53.301L220 61.962L215 70.622L210 79.282L220 79.282L215 87.942L225 87.942L220 79.282L230 79.282L225 87.942L220 96.603L230 96.603L225 105.263L235 105.263L230 96.603L240 96.603L235 87.942L230 79.282L240 79.282L235 87.942L245 87.942L240 79.282L250 79.282L245 87.942L240 96.603L235 105.263L230 113.923L240 113.923L235 122.583L245 122.583L240 113.923L250 113.923L245 122.583L240 131.244L250 131.244L245 139.904L255 139.904L250 131.244L260 131.244L255 122.583L250 113.923L260 113.923L255 122.583L265 122.583L260 113.923L270 113.923L265 105.263L260 96.603L255 87.942L250 79.282L260 79.282L255 87.942L265 87.942L260 79.282L270 79.282L265 87.942L260 96.603L270 96.603L265 105.263L275 105.263L270 96.603L280 96.603L275 87.942L270 79.282L280 79.282L275 87.942L285 87.942L280 79.282L290 79.282L285 70.622L280 61.962L275 53.301L270 44.641L265 35.981L260 27.321L255 18.66L250 10L260 10L255 18.66L265 18.66L260 10L270 10L265 18.66L260 27.321L270 27.321L265 35.981L275 35.981L270 27.321L280 27.321L275 18.66L270 10L280 10L275 18.66L285 18.66L280 10L290 10L285 18.66L280 27.321L275 35.981L270 44.641L280 44.641L275 53.301L285 53.301L280 44.641L290 44.641L285 53.301L280 61.962L290 61.962L285 70.622L295 70.622L290 61.962L300 61.962L295 53.301L290 44.641L300 44.641L295 53.301L305 53.301L300 44.641L310 44.641L305 35.981L300 27.321L295 18.66L290 10L300 10L295 18.66L305 18.66L300 10L310 10L305 18.66L300 27.321L310 27.321L305 35.981L315 35.981L310 27.321L320 27.321L315 18.66L310 10L320 10L315 18.66L325 18.66L320 10L330 10L325 18.66L320 27.321L315 35.981L310 44.641L305 53.301L300 61.962L295 70.622L290 79.282L285 87.942L280 96.603L275 105.263L270 113.923L265 122.583L260 131.244L255 139.904L250 148.564L245 157.224L240 165.885L235 174.545L230 183.205L225 191.865L220 200.526L215 209.186L210 217.846L205 226.506L200 235.167L195 243.827L190 252.487L185 261.147L180 269.808L175 278.468L170 287.128L180 287.128L175 295.788L185 295.788L180 287.128L190 287.128L185 295.788L180 304.449L190 304.449L185 313.109L195 313.109L190 304.449L200 304.449L195 295.788L190 287.128L200 287.128L195 295.788L205 295.788L200 287.128L210 287.128L205 295.788L200 304.449L195 313.109L190 321.769L200 321.769L195 330.429L205 330.429L200 321.769L210 321.769L205 330.429L200 339.09L210 339.09L205 347.75L215 347.75L210 339.09L220 339.09L215 330.429L210 321.769L220 321.769L215 330.429L225 330.429L220 321.769L230 321.769L225 313.109L220 304.449L215 295.788L210 287.128L220 287.128L215 295.788L225 295.788L220 287.128L230 287.128L225 295.788L220 304.449L230 304.449L225 313.109L235 313.109L230 304.449L240 304.449L235 295.788L230 287.128L240 287.128L235 295.788L245 295.788L240 287.128L250 287.128L245 295.788L240 304.449L235 313.109L230 321.769L225 330.429L220 339.09L215 347.75L210 356.41L220 356.41L215 365.07L225 365.07L220 356.41L230 356.41L225 365.07L220 373.731L230 373.731L225 382.391L235 382.391L230 373.731L240 373.731L235 365.07L230 356.41L240 356.41L235 365.07L245 365.07L240 356.41L250 356.41L245 365.07L240 373.731L235 382.391L230 391.051L240 391.051L235 399.711L245 399.711L240 391.051L250 391.051L245 399.711L240 408.372L250 408.372L245 417.032L255 417.032L250 408.372L260 408.372L255 399.711L250 391.051L260 391.051L255 399.711L265 399.711L260 391.051L270 391.051L265 382.391L260 373.731L255 365.07L250 356.41L260 356.41L255 365.07L265 365.07L260 356.41L270 356.41L265 365.07L260 373.731L270 373.731L265 382.391L275 382.391L270 373.731L280 373.731L275 365.07L270 356.41L280 356.41L275 365.07L285 365.07L280 356.41L290 356.41L285 347.75L280 339.09L275 330.429L270 321.769L265 313.109L260 304.449L255 295.788L250 287.128L260 287.128L255 295.788L265 295.788L260 287.128L270 287.128L265 295.788L260 304.449L270 304.449L265 313.109L275 313.109L270 304.449L280 304.449L275 295.788L270 287.128L280 287.128L275 295.788L285 295.788L280 287.128L290 287.128L285 295.788L280 304.449L275 313.109L270 321.769L280 321.769L275 330.429L285 330.429L280 321.769L290 321.769L285 330.429L280 339.09L290 339.09L285 347.75L295 347.75L290 339.09L300 339.09L295 330.429L290 321.769L300 321.769L295 330.429L305 330.429L300 321.769L310 321.769L305 313.109L300 304.449L295 295.788L290 287.128L300 287.128L295 295.788L305 295.788L300 287.128L310 287.128L305 295.788L300 304.449L310 304.449L305 313.109L315 313.109L310 304.449L320 304.449L315 295.788L310 287.128L320 287.128L315 295.788L325 295.788L320 287.128L330 287.128L325 295.788L320 304.449L315 313.109L310 321.769L305 330.429L300 339.09L295 347.75L290 356.41L285 365.07L280 373.731L275 382.391L270 391.051L265 399.711L260 408.372L255 417.032L250 425.692L260 425.692L255 434.352L265 434.352L260 425.692L270 425.692L265 434.352L260 443.013L270 443.013L265 451.673L275 451.673L270 443.013L280 443.013L275 434.352L270 425.692L280 425.692L275 434.352L285 434.352L280 425.692L290 425.692L285 434.352L280 443.013L275 451.673L270 460.333L280 460.333L275 468.993L285 468.993L280 460.333L290 460.333L285 468.993L280 477.654L290 477.654L285 486.314L295 486.314L290 477.654L300 477.654L295 468.993L290 460.333L300 460.333L295 468.993L305 468.993L300 460.333L310 460.333L305 451.673L300 443.013L295 434.352L290 425.692L300 425.692L295 434.352L305 434.352L300 425.692L310 425.692L305 434.352L300 443.013L310 443.013L305 451.673L315 451.673L310 443.013L320 443.013L315 434.352L310 425.692L320 425.692L315 434.352L325 434.352L320 425.692L330 425.692L325 434.352L320 443.013L315 451.673L310 460.333L305 468.993L300 477.654L295 486.314L290 494.974L300 494.974L295 503.634L305 503.634L300 494.974L310 494.974L305 503.634L300 512.295L310 512.295L305 520.955L315 520.955L310 512.295L320 512.295L315 503.634L310 494.974L320 494.974L315 503.634L325 503.634L320 494.974L330 494.974L325 503.634L320 512.295L315 520.955L310 529.615L320 529.615L315 538.275L325 538.275L320 529.615L330 529.615L325 538.275L320 546.936L330 546.936L325 555.596L335 555.596L330 546.936L340 546.936L335 538.275L330 529.615L340 529.615L335 538.275L345 538.275L340 529.615L350 529.615L345 520.955L340 512.295L335 503.634L330 494.974L340 494.974L335 503.634L345 503.634L340 494.974L350 494.974L345 503.634L340 512.295L350 512.295L345 520.955L355 520.955L350 512.295L360 512.295L355 503.634L350 494.974L360 494.974L355 503.634L365 503.634L360 494.974L370 494.974L365 486.314L360 477.654L355 468.993L350 460.333L345 451.673L340 443.013L335 434.352L330 425.692L340 425.692L335 434.352L345 434.352L340 425.692L350 425.692L345 434.352L340 443.013L350 443.013L345 451.673L355 451.673L350 443.013L360 443.013L355 434.352L350 425.692L360 425.692L355 434.352L365 434.352L360 425.692L370 425.692L365 434.352L360 443.013L355 451.673L350 460.333L360 460.333L355 468.993L365 468.993L360 460.333L370 460.333L365 468.993L360 477.654L370 477.654L365 486.314L375 486.314L370 477.654L380 477.654L375 468.993L370 460.333L380 460.333L375 468.993L385 468.993L380 460.333L390 460.333L385 451.673L380 443.013L375 434.352L370 425.692L380 425.692L375 434.352L385 434.352L380 425.692L390 425.692L385 434.352L380 443.013L390 443.013L385 451.673L395 451.673L390 443.013L400 443.013L395 434.352L390 425.692L400 425.692L395 434.352L405 434.352L400 425.692L410 425.692L405 417.032L400 408.372L395 399.711L390 391.051L385 382.391L380 373.731L375 365.07L370 356.41L365 347.75L360 339.09L355 330.429L350 321.769L345 313.109L340 304.449L335 295.788L330 287.128L340 287.128L335 295.788L345 295.788L340 287.128L350 287.128L345 295.788L340 304.449L350 304.449L345 313.109L355 313.109L350 304.449L360 304.449L355 295.788L350 287.128L360 287.128L355 295.788L365 295.788L360 287.128L370 287.128L365 295.788L360 304.449L355 313.109L350 321.769L360 321.769L355 330.429L365 330.429L360 321.769L370 321.769L365 330.429L360 339.09L370 339.09L365 347.75L375 347.75L370 339.09L380 339.09L375 330.429L370 321.769L380 321.769L375 330.429L385 330.429L380 321.769L390 321.769L385 313.109L380 304.449L375 295.788L370 287.128L380 287.128L375 295.788L385 295.788L380 287.128L390 287.128L385 295.788L380 304.449L390 304.449L385 313.109L395 313.109L390 304.449L400 304.449L395 295.788L390 287.128L400 287.128L395 295.788L405 295.788L400 287.128L410 287.128L405 295.788L400 304.449L395 313.109L390 321.769L385 330.429L380 339.09L375 347.75L370 356.41L380 356.41L375 365.07L385 365.07L380 356.41L390 356.41L385 365.07L380 373.731L390 373.731L385 382.391L395 382.391L390 373.731L400 373.731L395 365.07L390 356.41L400 356.41L395 365.07L405 365.07L400 356.41L410 356.41L405 365.07L400 373.731L395 382.391L390 391.051L400 391.051L395 399.711L405 399.711L400 391.051L410 391.051L405 399.711L400 408.372L410 408.372L405 417.032L415 417.032L410 408.372L420 408.372L415 399.711L410 391.051L420 391.051L415 399.711L425 399.711L420 391.051L430 391.051L425 382.391L420 373.731L415 365.07L410 356.41L420 356.41L415 365.07L425 365.07L420 356.41L430 356.41L425 365.07L420 373.731L430 373.731L425 382.391L435 382.391L430 373.731L440 373.731L435 365.07L430 356.41L440 356.41L435 365.07L445 365.07L440 356.41L450 356.41L445 347.75L440 339.09L435 330.429L430 321.769L425 313.109L420 304.449L415 295.788L410 287.128L420 287.128L415 295.788L425 295.788L420 287.128L430 287.128L425 295.788L420 304.449L430 304.449L425 313.109L435 313.109L430 304.449L440 304.449L435 295.788L430 287.128L440 287.128L435 295.788L445 295.788L440 287.128L450 287.128L445 295.788L440 304.449L435 313.109L430 321.769L440 321.769L435 330.429L445 330.429L440 321.769L450 321.769L445 330.429L440 339.09L450 339.09L445 347.75L455 347.75L450 339.09L460 339.09L455 330.429L450 321.769L460 321.769L455 330.429L465 330.429L460 321.769L470 321.769L465 313.109L460 304.449L455 295.788L450 287.128L460 287.128L455 295.788L465 295.788L460 287.128L470 287.128L465 295.788L460 304.449L470 304.449L465 313.109L475 313.109L470 304.449L480 304.449L475 295.788L470 287.128L480 287.128L475 295.788L485 295.788L480 287.128L490 287.128L485 278.468L480 269.808L475 261.147L470 252.487L465 243.827L460 235.167L455 226.506L450 217.846L445 209.186L440 200.526L435 191.865L430 183.205L425 174.545L420 165.885L415 157.224L410 148.564L405 139.904L400 131.244L395 122.583L390 113.923L385 105.263L380 96.603L375 87.942L370 79.282L365 70.622L360 61.962L355 53.301L350 44.641L345 35.981L340 27.321L335 18.66L330 10L340 10L335 18.66L345 18.66L340 10L350 10L345 18.66L340 27.321L350 27.321L345 35.981L355 35.981L350 27.321L360 27.321L355 18.66L350 10L360 10L355 18.66L365 18.66L360 10L370 10L365 18.66L360 27.321L355 35.981L350 44.641L360 44.641L355 53.301L365 53.301L360 44.641L370 44.641L365 53.301L360 61.962L370 61.962L365 70.622L375 70.622L370 61.962L380 61.962L375 53.301L370 44.641L380 44.641L375 53.301L385 53.301L380 44.641L390 44.641L385 35.981L380 27.321L375 18.66L370 10L380 10L375 18.66L385 18.66L380 10L390 10L385 18.66L380 27.321L390 27.321L385 35.981L395 35.981L390 27.321L400 27.321L395 18.66L390 10L400 10L395 18.66L405 18.66L400 10L410 10L405 18.66L400 27.321L395 35.981L390 44.641L385 53.301L380 61.962L375 70.622L370 79.282L380 79.282L375 87.942L385 87.942L380 79.282L390 79.282L385 87.942L380 96.603L390 96.603L385 105.263L395 105.263L390 96.603L400 96.603L395 87.942L390 79.282L400 79.282L395 87.942L405 87.942L400 79.282L410 79.282L405 87.942L400 96.603L395 105.263L390 113.923L400 113.923L395 122.583L405 122.583L400 113.923L410 113.923L405 122.583L400 131.244L410 131.244L405 139.904L415 139.904L410 131.244L420 131.244L415 122.583L410 113.923L420 113.923L415 122.583L425 122.583L420 113.923L430 113.923L425 105.263L420 96.603L415 87.942L410 79.282L420 79.282L415 87.942L425 87.942L420 79.282L430 79.282L425 87.942L420 96.603L430 96.603L425 105.263L435 105.263L430 96.603L440 96.603L435 87.942L430 79.282L440 79.282L435 87.942L445 87.942L440 79.282L450 79.282L445 70.622L440 61.962L435 53.301L430 44.641L425 35.981L420 27.321L415 18.66L410 10L420 10L415 18.66L425 18.66L420 10L430 10L425 18.66L420 27.321L430 27.321L425 35.981L435 35.981L430 27.321L440 27.321L435 18.66L430 10L440 10L435 18.66L445 18.66L440 10L450 10L445 18.66L440 27.321L435 35.981L430 44.641L440 44.641L435 53.301L445 53.301L440 44.641L450 44.641L445 53.301L440 61.962L450 61.962L445 70.622L455 70.622L450 61.962L460 61.962L455 53.301L450 44.641L460 44.641L455 53.301L465 53.301L460 44.641L470 44.641L465 35.981L460 27.321L455 18.66L450 10L460 10L455 18.66L465 18.66L460 10L470 10L465 18.66L460 27.321L470 27.321L465 35.981L475 35.981L470 27.321L480 27.321L475 18.66L470 10L480 10L475 18.66L485 18.66L480 10L490 10L485 18.66L480 27.321L475 35.981L470 44.641L465 53.301L460 61.962L455 70.622L450 79.282L445 87.942L440 96.603L435 105.263L430 113.923L425 122.583L420 131.244L415 139.904L410 148.564L420 148.564L415 157.224L425 157.224L420 148.564L430 148.564L425 157.224L420 165.885L430 165.885L425 174.545L435 174.545L430 165.885L440 165.885L435 157.224L430 148.564L440 148.564L435 157.224L445 157.224L440 148.564L450 148.564L445 157.224L440 165.885L435 174.545L430 183.205L440 183.205L435 191.865L445 191.865L440 183.205L450 183.205L445 191.865L440 200.526L450 200.526L445 209.186L455 209.186L450 200.526L460 200.526L455 191.865L450 183.205L460 183.205L455 191.865L465 191.865L460 183.205L470 183.205L465 174.545L460 165.885L455 157.224L450 148.564L460 148.564L455 157.224L465 157.224L460 148.564L470 148.564L465 157.224L460 165.885L470 165.885L465 174.545L475 174.545L470 165.885L480 165.885L475 157.224L470 148.564L480 148.564L475 157.224L485 157.224L480 148.564L490 148.564L485 157.224L480 165.885L475 174.545L470 183.205L465 191.865L460 200.526L455 209.186L450 217.846L460 217.846L455 226.506L465 226.506L460 217.846L470 217.846L465 226.506L460 235.167L470 235.167L465 243.827L475 243.827L470 235.167L480 235.167L475 226.506L470 217.846L480 217.846L475 226.506L485 226.506L480 217.846L490 217.846L485 226.506L480 235.167L475 243.827L470 252.487L480 252.487L475 261.147L485 261.147L480 252.487L490 252.487L485 261.147L480 269.808L490 269.808L485 278.468L495 278.468L490 269.808L500 269.808L495 261.147L490 252.487L500 252.487L495 261.147L505 261.147L500 252.487L510 252.487L505 243.827L500 235.167L495 226.506L490 217.846L500 217.846L495 226.506L505 226.506L500 217.846L510 217.846L505 226.506L500 235.167L510 235.167L505 243.827L515 243.827L510 235.167L520 235.167L515 226.506L510 217.846L520 217.846L515 226.506L525 226.506L520 217.846L530 217.846L525 209.186L520 200.526L515 191.865L510 183.205L505 174.545L500 165.885L495 157.224L490 148.564L500 148.564L495 157.224L505 157.224L500 148.564L510 148.564L505 157.224L500 165.885L510 165.885L505 174.545L515 174.545L510 165.885L520 165.885L515 157.224L510 148.564L520 148.564L515 157.224L525 157.224L520 148.564L530 148.564L525 157.224L520 165.885L515 174.545L510 183.205L520 183.205L515 191.865L525 191.865L520 183.205L530 183.205L525 191.865L520 200.526L530 200.526L525 209.186L535 209.186L530 200.526L540 200.526L535 191.865L530 183.205L540 183.205L535 191.865L545 191.865L540 183.205L550 183.205L545 174.545L540 165.885L535 157.224L530 148.564L540 148.564L535 157.224L545 157.224L540 148.564L550 148.564L545 157.224L540 165.885L550 165.885L545 174.545L555 174.545L550 165.885L560 165.885L555 157.224L550 148.564L560 148.564L555 157.224L565 157.224L560 148.564L570 148.564L565 139.904L560 131.244L555 122.583L550 113.923L545 105.263L540 96.603L535 87.942L530 79.282L525 70.622L520 61.962L515 53.301L510 44.641L505 35.981L500 27.321L495 18.66L490 10L500 10L495 18.66L505 18.66L500 10L510 10L505 18.66L500 27.321L510 27.321L505 35.981L515 35.981L510 27.321L520 27.321L515 18.66L510 10L520 10L515 18.66L525 18.66L520 10L530 10L525 18.66L520 27.321L515 35.981L510 44.641L520 44.641L515 53.301L525 53.301L520 44.641L530 44.641L525 53.301L520 61.962L530 61.962L525 70.622L535 70.622L530 61.962L540 61.962L535 53.301L530 44.641L540 44.641L535 53.301L545 53.301L540 44.641L550 44.641L545 35.981L540 27.321L535 18.66L530 10L540 10L535 18.66L545 18.66L540 10L550 10L545 18.66L540 27.321L550 27.321L545 35.981L555 35.981L550 27.321L560 27.321L555 18.66L550 10L560 10L555 18.66L565 18.66L560 10L570 10L565 18.66L560 27.321L555 35.981L550 44.641L545 53.301L540 61.962L535 70.622L530 79.282L540 79.282L535 87.942L545 87.942L540 79.282L550 79.282L545 87.942L540 96.603L550 96.603L545 105.263L555 105.263L550 96.603L560 96.603L555 87.942L550 79.282L560 79.282L555 87.942L565 87.942L560 79.282L570 79.282L565 87.942L560 96.603L555 105.263L550 113.923L560 113.923L555 122.583L565 122.583L560 113.923L570 113.923L565 122.583L560 131.244L570 131.244L565 139.904L575 139.904L570 131.244L580 131.244L575 122.583L570 113.923L580 113.923L575 122.583L585 122.583L580 113.923L590 113.923L585 105.263L580 96.603L575 87.942L570 79.282L580 79.282L575 87.942L585 87.942L580 79.282L590 79.282L585 87.942L580 96.603L590 96.603L585 105.263L595 105.263L590 96.603L600 96.603L595 87.942L590 79.282L600 79.282L595 87.942L605 87.942L600 79.282L610 79.282L605 70.622L600 61.962L595 53.301L590 44.641L585 35.981L580 27.321L575 18.66L570 10L580 10L575 18.66L585 18.66L580 10L590 10L585 18.66L580 27.321L590 27.321L585 35.981L595 35.981L590 27.321L600 27.321L595 18.66L590 10L600 10L595 18.66L605 18.66L600 10L610 10L605 18.66L600 27.321L595 35.981L590 44.641L600 44.641L595 53.301L605 53.301L600 44.641L610 44.641L605 53.301L600 61.962L610 61.962L605 70.622L615 70.622L610 61.962L620 61.962L615 53.301L610 44.641L620 44.641L615 53.301L625 53.301L620 44.641L630 44.641L625 35.981L620 27.321L615 18.66L610 10L620 10L615 18.66L625 18.66L620 10L630 10L625 18.66L620 27.321L630 27.321L625 35.981L635 35.981L630 27.321L640 27.321L635 18.66L630 10L640 10L635 18.66L645 18.66L640 10L650 10L645 18.66L640 27.321L635 35.981L630 44.641L625 53.301L620 61.962L615 70.622L610 79.282L605 87.942L600 96.603L595 105.263L590 113.923L585 122.583L580 131.244L575 139.904L570 148.564L565 157.224L560 165.885L555 174.545L550 183.205L545 191.865L540 200.526L535 209.186L530 217.846L525 226.506L520 235.167L515 243.827L510 252.487L505 261.147L500 269.808L495 278.468L490 287.128L485 295.788L480 304.449L475 313.109L470 321.769L465 330.429L460 339.09L455 347.75L450 356.41L445 365.07L440 373.731L435 382.391L430 391.051L425 399.711L420 408.372L415 417.032L410 425.692L405 434.352L400 443.013L395 451.673L390 460.333L385 468.993L380 477.654L375 486.314L370 494.974L365 503.634L360 512.295L355 520.955L350 529.615L345 538.275L340 546.936L335 555.596L330 564.256L325 555.596L320 546.936L315 538.275L310 529.615L305 520.955L300 512.295L295 503.634L290 494.974L285 486.314L280 477.654L275 468.993L270 460.333L265 451.673L260 443.013L255 434.352L250 425.692L245 417.032L240 408.372L235 399.711L230 391.051L225 382.391L220 373.731L215 365.07L210 356.41L205 347.75L200 339.09L195 330.429L190 321.769L185 313.109L180 304.449L175 295.788L170 287.128L165 278.468L160 269.808L155 261.147L150 252.487L145 243.827L140 235.167L135 226.506L130 217.846L125 209.186L120 200.526L115 191.865L110 183.205L105 174.545L100 165.885L95 157.224L90 148.564L85 139.904L80 131.244L75 122.583L70 113.923L65 105.263L60 96.603L55 87.942L50 79.282L45 70.622L40 61.962L35 53.301L30 44.641L25 35.981L20 27.321L15 18.66L10 10"/></svg>