<svg xmlns="http://www.w3.org/2000/svg" width="351.915" height="1196.126" viewBox="0 0 351.915 1196.126"><rect width="351.915" height="1196.126" fill="#ffffff"/><path fill="none" stroke="#111111" stroke-width="1" stroke-linecap="round" stroke-linejoin="round" d="M164.526 1186.126L164.526 1176.126L160.3 1167.063M164.526 1176.126L164.526 1166.126L168.752 1157.063M164.526 1166.126L164.526 1156.126L160.3 1147.063L152.64 1140.635M160.3 1147.063L156.074 1138L156.074 1128M156.074 1138L151.848 1128.937M164.526 1156.126L164.526 1146.126L160.3 1137.063M164.526 1146.126L164.526 1136.126L168.752 1127.063M164.526 1136.126L164.526 1126.126L168.752 1117.063L168.752 1107.063M168.752 1117.063L172.979 1108M164.526 1126.126L164.526 1116.126L160.3 1107.063M164.526 1116.126L164.526 1106.126L160.3 1097.063L152.64 1090.635M160.3 1097.063L156.074 1088L156.074 1078M156.074 1088L151.848 1078.937L144.187 1072.509L134.528 1069.921M144.187 1072.509L136.527 1066.081L132.301 1057.018M136.527 1066.081L128.866 1059.653M151.848 1078.937L147.621 1069.874L139.961 1063.446M147.621 1069.874L143.395 1060.811L143.395 1050.811L139.169 1041.748M143.395 1050.811L143.395 1040.811M143.395 1060.811L139.169 1051.748L131.509 1045.32M139.169 1051.748L134.943 1042.685M164.526 1106.126L164.526 1096.126L168.752 1087.063M164.526 1096.126L164.526 1086.126L168.752 1077.063L176.413 1070.635M168.752 1077.063L172.979 1068M164.526 1086.126L164.526 1076.126L160.3 1067.063M164.526 1076.126L164.526 1066.126L168.752 1057.063L168.752 1047.063M168.752 1057.063L172.979 1048L172.979 1038L177.205 1028.937M172.979 1038L172.979 1028M172.979 1048L177.205 1038.937L177.205 1028.937M177.205 1038.937L181.431 1029.874L189.091 1023.446M181.431 1029.874L185.657 1020.811L193.318 1014.383L202.977 1011.795M193.318 1014.383L200.978 1007.955M185.657 1020.811L189.883 1011.748L197.544 1005.32M189.883 1011.748L194.109 1002.685M164.526 1066.126L164.526 1056.126L168.752 1047.063M164.526 1056.126L164.526 1046.126L160.3 1037.063L160.3 1027.063M160.3 1037.063L156.074 1028M164.526 1046.126L164.526 1036.126L160.3 1027.063M164.526 1036.126L164.526 1026.126L160.3 1017.063L152.64 1010.635M160.3 1017.063L156.074 1008L148.413 1001.572L138.754 998.984M148.413 1001.572L140.753 995.144L136.527 986.081M140.753 995.144L133.092 988.716M156.074 1008L151.848 998.937L144.187 992.509M151.848 998.937L147.621 989.874L139.961 983.446L130.302 980.858M139.961 983.446L132.301 977.018L128.074 967.955M132.301 977.018L124.64 970.59L114.981 968.002L105.133 969.738M114.981 968.002L105.322 965.414L97.661 958.986M105.322 965.414L95.662 962.826M124.64 970.59L116.98 964.162L107.32 961.574M116.98 964.162L109.319 957.734L105.093 948.671M109.319 957.734L101.659 951.307M147.621 989.874L143.395 980.811L135.735 974.383M143.395 980.811L139.169 971.748L139.169 961.748M139.169 971.748L134.943 962.685L127.282 956.257L117.623 953.668M127.282 956.257L119.622 949.829M134.943 962.685L130.717 953.621L123.056 947.194M130.717 953.621L126.491 944.558L126.491 934.558M126.491 944.558L122.264 935.495M164.526 1026.126L164.526 1016.126L160.3 1007.063M164.526 1016.126L164.526 1006.126L168.752 997.063M164.526 1006.126L164.526 996.126L160.3 987.063L152.64 980.635M160.3 987.063L156.074 978L156.074 968M156.074 978L151.848 968.937M164.526 996.126L164.526 986.126L160.3 977.063M164.526 986.126L164.526 976.126L168.752 967.063M164.526 976.126L164.526 966.126L168.752 957.063L168.752 947.063M168.752 957.063L172.979 948M164.526 966.126L164.526 956.126L160.3 947.063M164.526 956.126L164.526 946.126L168.752 937.063M164.526 946.126L164.526 936.126L160.3 927.063L160.3 917.063M160.3 927.063L156.074 918L148.413 911.572L138.754 908.984M148.413 911.572L140.753 905.144M156.074 918L151.848 908.937L144.187 902.509M151.848 908.937L147.621 899.874L147.621 889.874M147.621 899.874L143.395 890.811L143.395 880.811L139.169 871.748M143.395 880.811L143.395 870.811L147.621 861.748M143.395 870.811L143.395 860.811M143.395 890.811L139.169 881.748L131.509 875.32M139.169 881.748L134.943 872.685M164.526 936.126L164.526 926.126L160.3 917.063M164.526 926.126L164.526 916.126L160.3 907.063L152.64 900.635M160.3 907.063L156.074 898L156.074 888M156.074 898L151.848 888.937M164.526 916.126L164.526 906.126L168.752 897.063M164.526 906.126L164.526 896.126L168.752 887.063L176.413 880.635M168.752 887.063L172.979 878M164.526 896.126L164.526 886.126L160.3 877.063M164.526 886.126L164.526 876.126L168.752 867.063L168.752 857.063M168.752 867.063L172.979 858L180.639 851.572L184.865 842.509M180.639 851.572L188.299 845.144L197.959 842.556M188.299 845.144L195.96 838.716M172.979 858L177.205 848.937L177.205 838.937M177.205 848.937L181.431 839.874L189.091 833.446M181.431 839.874L185.657 830.811M164.526 876.126L164.526 866.126L160.3 857.063M164.526 866.126L164.526 856.126L160.3 847.063L152.64 840.635M160.3 847.063L156.074 838L156.074 828M156.074 838L151.848 828.937M164.526 856.126L164.526 846.126L168.752 837.063M164.526 846.126L164.526 836.126L168.752 827.063L168.752 817.063M168.752 827.063L172.979 818L180.639 811.572M172.979 818L177.205 808.937L177.205 798.937L172.979 789.874M177.205 798.937L177.205 788.937L181.431 779.874M177.205 788.937L177.205 778.937M177.205 808.937L181.431 799.874L189.091 793.446M181.431 799.874L185.657 790.811L193.318 784.383L197.544 775.32M193.318 784.383L200.978 777.955M185.657 790.811L189.883 781.748L189.883 771.748M189.883 781.748L194.109 772.685L201.77 766.257M194.109 772.685L198.336 763.621L198.336 753.621L194.109 744.558M198.336 753.621L198.336 743.621L194.109 734.558L186.449 728.131M194.109 734.558L189.883 725.495L189.883 715.495M189.883 725.495L185.657 716.432M198.336 743.621L198.336 733.621L194.109 724.558M198.336 733.621L198.336 723.621M198.336 763.621L202.562 754.558L210.222 748.131M202.562 754.558L206.788 745.495L206.788 735.495L211.014 726.432M206.788 735.495L206.788 725.495M206.788 745.495L211.014 736.432L218.675 730.004M211.014 736.432L215.24 727.369M164.526 836.126L164.526 826.126L160.3 817.063M164.526 826.126L164.526 816.126L168.752 807.063M164.526 816.126L164.526 806.126L160.3 797.063L152.64 790.635M160.3 797.063L156.074 788M164.526 806.126L164.526 796.126L160.3 787.063M164.526 796.126L164.526 786.126L168.752 777.063M164.526 786.126L164.526 776.126L168.752 767.063L176.413 760.635M168.752 767.063L172.979 758M164.526 776.126L164.526 766.126L160.3 757.063M164.526 766.126L164.526 756.126L160.3 747.063L160.3 737.063M160.3 747.063L156.074 738L156.074 728L151.848 718.937M156.074 728L156.074 718L160.3 708.937M156.074 718L156.074 708M156.074 738L151.848 728.937L144.187 722.509M151.848 728.937L147.621 719.874L147.621 709.874M147.621 719.874L143.395 710.811M164.526 756.126L164.526 746.126L168.752 737.063M164.526 746.126L164.526 736.126L168.752 727.063L176.413 720.635M168.752 727.063L172.979 718M164.526 736.126L164.526 726.126L168.752 717.063M164.526 726.126L164.526 716.126L168.752 707.063L176.413 700.635M168.752 707.063L172.979 698L172.979 688L177.205 678.937M172.979 688L172.979 678M172.979 698L177.205 688.937L184.865 682.509M177.205 688.937L181.431 679.874L189.091 673.446L193.318 664.383M189.091 673.446L196.752 667.018L206.411 664.43M196.752 667.018L204.412 660.59M181.431 679.874L185.657 670.811L185.657 660.811M185.657 670.811L189.883 661.748M164.526 716.126L164.526 706.126L160.3 697.063M164.526 706.126L164.526 696.126L160.3 687.063L152.64 680.635M160.3 687.063L156.074 678L156.074 668M156.074 678L151.848 668.937M164.526 696.126L164.526 686.126L160.3 677.063M164.526 686.126L164.526 676.126L168.752 667.063M164.526 676.126L164.526 666.126L160.3 657.063L152.64 650.635M160.3 657.063L156.074 648L156.074 638M156.074 648L151.848 638.937L144.187 632.509L134.528 629.921M144.187 632.509L136.527 626.081L132.301 617.018M136.527 626.081L128.866 619.653M151.848 638.937L147.621 629.874L147.621 619.874M147.621 629.874L143.395 620.811L135.735 614.383L131.509 605.32M135.735 614.383L128.074 607.955L123.848 598.892L116.188 592.464M123.848 598.892L119.622 589.829M128.074 607.955L120.414 601.527L116.188 592.464M120.414 601.527L112.753 595.099M143.395 620.811L139.169 611.748L139.169 601.748M139.169 611.748L134.943 602.685L134.943 592.685L139.169 583.621M134.943 592.685L134.943 582.685M134.943 602.685L130.717 593.621L123.056 587.194M130.717 593.621L126.491 584.558L126.491 574.558L122.264 565.495M126.491 574.558L126.491 564.558L130.717 555.495M126.491 564.558L126.491 554.558L122.264 545.495L114.604 539.067M122.264 545.495L118.038 536.432L118.038 526.432M118.038 536.432L113.812 527.369M126.491 554.558L126.491 544.558L122.264 535.495M126.491 544.558L126.491 534.558L130.717 525.495M126.491 534.558L126.491 524.558L130.717 515.495L130.717 505.495M130.717 515.495L134.943 506.432L142.603 500.004M134.943 506.432L139.169 497.369M126.491 524.558L126.491 514.558L122.264 505.495M126.491 514.558L126.491 504.558M126.491 584.558L122.264 575.495L122.264 565.495M122.264 575.495L118.038 566.432L118.038 556.432L122.264 547.369M118.038 556.432L118.038 546.432M118.038 566.432L113.812 557.369L106.152 550.941M113.812 557.369L109.586 548.306L101.925 541.878L92.266 539.29M101.925 541.878L94.265 535.45L84.606 532.862L76.945 526.434M84.606 532.862L74.946 530.274M94.265 535.45L86.604 529.022L76.945 526.434M86.604 529.022L78.944 522.595L74.718 513.532M78.944 522.595L71.284 516.167L67.057 507.104L59.397 500.676M67.057 507.104L62.831 498.041M71.284 516.167L63.623 509.739L59.397 500.676M63.623 509.739L55.963 503.311L46.303 500.723L38.643 494.295M46.303 500.723L36.644 498.135L26.796 499.871L17.137 497.283M26.796 499.871L16.948 501.608M36.644 498.135L26.985 495.546L17.137 497.283M26.985 495.546L17.326 492.958M55.963 503.311L48.302 496.883L38.643 494.295M48.302 496.883L40.642 490.455L36.416 481.392M40.642 490.455L32.981 484.027L28.755 474.964L28.755 464.964M28.755 474.964L24.529 465.901M32.981 484.027L25.321 477.599L15.662 475.011M25.321 477.599L17.66 471.172L13.434 462.109M17.66 471.172L10 464.744M109.586 548.306L105.36 539.243L105.36 529.243M105.36 539.243L101.133 530.18L93.473 523.752L89.247 514.689M93.473 523.752L85.813 517.324M101.133 530.18L96.907 521.117L89.247 514.689M96.907 521.117L92.681 512.054L92.681 502.054L88.455 492.991M92.681 502.054L92.681 492.054M92.681 512.054L88.455 502.991L88.455 492.991M88.455 502.991L84.229 493.928L84.229 483.928L88.455 474.865M84.229 483.928L84.229 473.928L80.002 464.865L72.342 458.437M80.002 464.865L75.776 455.801L75.776 445.801M75.776 455.801L71.55 446.738M84.229 473.928L84.229 463.928L80.002 454.865M84.229 463.928L84.229 453.928L88.455 444.865M84.229 453.928L84.229 443.928M84.229 493.928L80.002 484.865L72.342 478.437M80.002 484.865L75.776 475.801L75.776 465.801M75.776 475.801L71.55 466.738L63.89 460.311L59.664 451.247M63.89 460.311L56.229 453.883M71.55 466.738L67.324 457.675L67.324 447.675M67.324 457.675L63.098 448.612L63.098 438.612L58.872 429.549M63.098 438.612L63.098 428.612L67.324 419.549M63.098 428.612L63.098 418.612M63.098 448.612L58.872 439.549L58.872 429.549M58.872 439.549L54.645 430.486M164.526 666.126L164.526 656.126L168.752 647.063M164.526 656.126L164.526 646.126L168.752 637.063L168.752 627.063M168.752 637.063L172.979 628M164.526 646.126L164.526 636.126L160.3 627.063M164.526 636.126L164.526 626.126L160.3 617.063L152.64 610.635M160.3 617.063L156.074 608L156.074 598L151.848 588.937M156.074 598L156.074 588L160.3 578.937M156.074 588L156.074 578M156.074 608L151.848 598.937L144.187 592.509M151.848 598.937L147.621 589.874L147.621 579.874M147.621 589.874L143.395 580.811M164.526 626.126L164.526 616.126L168.752 607.063M164.526 616.126L164.526 606.126L160.3 597.063L152.64 590.635M160.3 597.063L156.074 588M164.526 606.126L164.526 596.126L160.3 587.063M164.526 596.126L164.526 586.126L168.752 577.063L176.413 570.635M168.752 577.063L172.979 568L180.639 561.572L184.865 552.509M180.639 561.572L188.299 555.144M172.979 568L177.205 558.937L184.865 552.509M177.205 558.937L181.431 549.874M164.526 586.126L164.526 576.126L168.752 567.063M164.526 576.126L164.526 566.126L160.3 557.063L152.64 550.635M160.3 557.063L156.074 548L156.074 538M156.074 548L151.848 538.937M164.526 566.126L164.526 556.126L160.3 547.063M164.526 556.126L164.526 546.126L168.752 537.063M164.526 546.126L164.526 536.126L168.752 527.063L168.752 517.063M168.752 527.063L172.979 518L180.639 511.572M172.979 518L177.205 508.937M164.526 536.126L164.526 526.126L160.3 517.063M164.526 526.126L164.526 516.126L168.752 507.063M164.526 516.126L164.526 506.126L160.3 497.063L152.64 490.635M160.3 497.063L156.074 488L156.074 478L151.848 468.937M156.074 478L156.074 468L160.3 458.937M156.074 468L156.074 458M156.074 488L151.848 478.937L144.187 472.509M151.848 478.937L147.621 469.874L139.961 463.446L130.302 460.858M139.961 463.446L132.301 457.018L128.074 447.955M132.301 457.018L124.64 450.59L114.981 448.002L107.32 441.574M114.981 448.002L105.322 445.414M124.64 450.59L116.98 444.162L107.32 441.574M116.98 444.162L109.319 437.734M147.621 469.874L143.395 460.811L135.735 454.383M143.395 460.811L139.169 451.748L131.509 445.32L121.849 442.732M131.509 445.32L123.848 438.892M139.169 451.748L134.943 442.685L134.943 432.685M134.943 442.685L130.717 433.621L130.717 423.621L126.491 414.558M130.717 423.621L130.717 413.621L126.491 404.558L126.491 394.558M126.491 404.558L122.264 395.495M130.717 413.621L130.717 403.621L126.491 394.558M130.717 403.621L130.717 393.621M130.717 433.621L126.491 424.558L118.83 418.131M126.491 424.558L122.264 415.495L122.264 405.495L118.038 396.432M122.264 405.495L122.264 395.495M122.264 415.495L118.038 406.432L110.378 400.004M118.038 406.432L113.812 397.369L113.812 387.369M113.812 397.369L109.586 388.306M164.526 506.126L164.526 496.126L160.3 487.063M164.526 496.126L164.526 486.126L168.752 477.063L168.752 467.063M168.752 477.063L172.979 468L180.639 461.572M172.979 468L177.205 458.937M164.526 486.126L164.526 476.126L160.3 467.063M164.526 476.126L164.526 466.126L168.752 457.063M164.526 466.126L164.526 456.126L160.3 447.063L160.3 437.063M160.3 447.063L156.074 438L148.413 431.572L138.754 428.984M148.413 431.572L140.753 425.144L136.527 416.081M140.753 425.144L133.092 418.716M156.074 438L151.848 428.937L144.187 422.509M151.848 428.937L147.621 419.874M164.526 456.126L164.526 446.126L168.752 437.063M164.526 446.126L164.526 436.126L160.3 427.063L152.64 420.635M160.3 427.063L156.074 418M164.526 436.126L164.526 426.126L160.3 417.063M164.526 426.126L164.526 416.126L168.752 407.063M164.526 416.126L164.526 406.126L168.752 397.063L168.752 387.063M168.752 397.063L172.979 388L172.979 378L168.752 368.937M172.979 378L172.979 368M172.979 388L177.205 378.937L184.865 372.509M177.205 378.937L181.431 369.874L189.091 363.446L193.318 354.383M189.091 363.446L196.752 357.018L206.411 354.43M196.752 357.018L204.412 350.59M181.431 369.874L185.657 360.811L185.657 350.811M185.657 360.811L189.883 351.748L197.544 345.32L201.77 336.257M197.544 345.32L205.204 338.892L214.863 336.304M205.204 338.892L212.865 332.464L222.524 329.876L230.184 323.448M222.524 329.876L232.183 327.288L242.031 329.024M232.183 327.288L241.842 324.699M212.865 332.464L220.525 326.036L230.184 323.448M220.525 326.036L228.185 319.608M189.883 351.748L194.109 342.685L194.109 332.685M194.109 342.685L198.336 333.621L198.336 323.621L194.109 314.558M198.336 323.621L198.336 313.621M198.336 333.621L202.562 324.558L210.222 318.131M202.562 324.558L206.788 315.495M164.526 406.126L164.526 396.126L168.752 387.063M164.526 396.126L164.526 386.126L168.752 377.063L168.752 367.063M168.752 377.063L172.979 368M164.526 386.126L164.526 376.126L160.3 367.063M164.526 376.126L164.526 366.126L160.3 357.063L152.64 350.635M160.3 357.063L156.074 348L156.074 338L151.848 328.937M156.074 338L156.074 328M156.074 348L151.848 338.937L151.848 328.937M151.848 338.937L147.621 329.874M164.526 366.126L164.526 356.126L160.3 347.063M164.526 356.126L164.526 346.126L160.3 337.063L152.64 330.635M160.3 337.063L156.074 328M164.526 346.126L164.526 336.126L160.3 327.063M164.526 336.126L164.526 326.126L168.752 317.063L176.413 310.635M168.752 317.063L172.979 308M164.526 326.126L164.526 316.126L168.752 307.063M164.526 316.126L164.526 306.126L168.752 297.063L176.413 290.635M168.752 297.063L172.979 288L172.979 278L177.205 268.937M172.979 278L172.979 268M172.979 288L177.205 278.937L177.205 268.937M177.205 278.937L181.431 269.874L189.091 263.446M181.431 269.874L185.657 260.811L185.657 250.811L181.431 241.748M185.657 250.811L185.657 240.811L189.883 231.748L197.544 225.32M189.883 231.748L194.109 222.685M185.657 240.811L185.657 230.811L189.883 221.748M185.657 230.811L185.657 220.811M185.657 260.811L189.883 251.748L189.883 241.748M189.883 251.748L194.109 242.685L201.77 236.257M194.109 242.685L198.336 233.621L198.336 223.621L194.109 214.558M198.336 223.621L198.336 213.621L202.562 204.558M198.336 213.621L198.336 203.621M198.336 233.621L202.562 224.558L202.562 214.558M202.562 224.558L206.788 215.495L214.448 209.067L218.675 200.004M214.448 209.067L222.109 202.64L231.768 200.051M222.109 202.64L229.769 196.212M206.788 215.495L211.014 206.432L211.014 196.432M211.014 206.432L215.24 197.369L222.901 190.941M215.24 197.369L219.467 188.306L219.467 178.306L215.24 169.243M219.467 178.306L219.467 168.306L223.693 159.243M219.467 168.306L219.467 158.306L215.24 149.243L215.24 139.243M215.24 149.243L211.014 140.18M219.467 158.306L219.467 148.306L223.693 139.243M219.467 148.306L219.467 138.306L223.693 129.243L231.353 122.815M223.693 129.243L227.919 120.18L227.919 110.18L223.693 101.117M227.919 110.18L227.919 100.18L232.145 91.117M227.919 100.18L227.919 90.18M227.919 120.18L232.145 111.117L239.806 104.689M232.145 111.117L236.371 102.054L244.032 95.626L248.258 86.563M244.032 95.626L251.692 89.198M236.371 102.054L240.597 92.991L240.597 82.991M240.597 92.991L244.824 83.928L252.484 77.5M244.824 83.928L249.05 74.865M219.467 138.306L219.467 128.306L223.693 119.243M219.467 128.306L219.467 118.306L215.24 109.243L215.24 99.243M215.24 109.243L211.014 100.18M219.467 118.306L219.467 108.306L215.24 99.243M219.467 108.306L219.467 98.306L223.693 89.243M219.467 98.306L219.467 88.306L223.693 79.243L231.353 72.815M223.693 79.243L227.919 70.18M219.467 88.306L219.467 78.306L215.24 69.243M219.467 78.306L219.467 68.306M219.467 188.306L223.693 179.243L223.693 169.243M223.693 179.243L227.919 170.18L227.919 160.18L232.145 151.117M227.919 160.18L227.919 150.18M227.919 170.18L232.145 161.117L239.806 154.689M232.145 161.117L236.371 152.054L244.032 145.626L248.258 136.563M244.032 145.626L251.692 139.198L261.351 136.61M251.692 139.198L259.353 132.77M236.371 152.054L240.597 142.991L240.597 132.991M240.597 142.991L244.824 133.928L244.824 123.928L240.597 114.865M244.824 123.928L244.824 113.928L249.05 104.865L249.05 94.865M249.05 104.865L253.276 95.801M244.824 113.928L244.824 103.928L240.597 94.865M244.824 103.928L244.824 93.928L249.05 84.865M244.824 93.928L244.824 83.928M244.824 133.928L249.05 124.865L249.05 114.865M249.05 124.865L253.276 115.801L260.936 109.374M253.276 115.801L257.502 106.738L257.502 96.738L261.728 87.675M257.502 96.738L257.502 86.738M257.502 106.738L261.728 97.675L261.728 87.675M261.728 97.675L265.955 88.612L273.615 82.184M265.955 88.612L270.181 79.549L277.841 73.121L282.067 64.058M277.841 73.121L285.502 66.693M270.181 79.549L274.407 70.486L274.407 60.486M274.407 70.486L278.633 61.423L286.294 54.995L290.52 45.932M286.294 54.995L293.954 48.567L303.613 45.979M293.954 48.567L301.614 42.139L305.841 33.076L305.841 23.076M305.841 33.076L310.067 24.013L317.727 17.585M310.067 24.013L314.293 14.95M301.614 42.139L309.275 35.712L313.501 26.648M309.275 35.712L316.935 29.284L326.595 26.695L334.255 20.268M326.595 26.695L336.254 24.107M316.935 29.284L324.596 22.856L328.822 13.793M324.596 22.856L332.256 16.428L341.915 13.84M332.256 16.428L339.917 10M278.633 61.423L282.859 52.36L290.52 45.932M282.859 52.36L287.085 43.297L287.085 33.297L291.312 24.234M287.085 33.297L287.085 23.297M287.085 43.297L291.312 34.234L298.972 27.806M291.312 34.234L295.538 25.171M164.526 306.126L164.526 296.126L160.3 287.063M164.526 296.126L164.526 286.126L168.752 277.063M164.526 286.126L164.526 276.126L168.752 267.063L168.752 257.063M168.752 267.063L172.979 258L180.639 251.572M172.979 258L177.205 248.937M164.526 276.126L164.526 266.126L160.3 257.063M164.526 266.126L164.526 256.126L168.752 247.063M164.526 256.126L164.526 246.126L168.752 237.063L176.413 230.635M168.752 237.063L172.979 228L172.979 218L168.752 208.937M172.979 218L172.979 208L177.205 198.937M172.979 208L172.979 198M172.979 228L177.205 218.937L177.205 208.937M177.205 218.937L181.431 209.874L189.091 203.446M181.431 209.874L185.657 200.811L193.318 194.383L197.544 185.32M193.318 194.383L200.978 187.955M185.657 200.811L189.883 191.748L197.544 185.32M189.883 191.748L194.109 182.685M164.526 246.126L164.526 236.126L168.752 227.063M164.526 236.126L164.526 226.126L160.3 217.063L152.64 210.635M160.3 217.063L156.074 208L156.074 198M156.074 208L151.848 198.937M164.526 226.126L164.526 216.126L160.3 207.063M164.526 216.126L164.526 206.126L168.752 197.063M164.526 206.126L164.526 196.126L160.3 187.063L160.3 177.063M160.3 187.063L156.074 178L148.413 171.572L138.754 168.984M148.413 171.572L140.753 165.144M156.074 178L151.848 168.937L151.848 158.937M151.848 168.937L147.621 159.874L139.961 153.446L130.302 150.858M139.961 153.446L132.301 147.018L128.074 137.955M132.301 147.018L124.64 140.59L120.414 131.527L112.753 125.099M120.414 131.527L116.188 122.464L116.188 112.464M116.188 122.464L111.962 113.401M124.64 140.59L116.98 134.162L112.753 125.099M116.98 134.162L109.319 127.734M147.621 159.874L143.395 150.811L135.735 144.383M143.395 150.811L139.169 141.748L139.169 131.748L134.943 122.685M139.169 131.748L139.169 121.748L143.395 112.685M139.169 121.748L139.169 111.748M139.169 141.748L134.943 132.685L134.943 122.685M134.943 132.685L130.717 123.621L130.717 113.621L126.491 104.558M130.717 113.621L130.717 103.621L134.943 94.558L142.603 88.131M134.943 94.558L139.169 85.495M130.717 103.621L130.717 93.621L126.491 84.558M130.717 93.621L130.717 83.621L134.943 74.558M130.717 83.621L130.717 73.621M130.717 123.621L126.491 114.558L126.491 104.558M126.491 114.558L122.264 105.495L114.604 99.067L104.945 96.479M114.604 99.067L106.943 92.64L102.717 83.577M106.943 92.64L99.283 86.212M122.264 105.495L118.038 96.432L118.038 86.432M118.038 96.432L113.812 87.369L113.812 77.369L109.586 68.306M113.812 77.369L113.812 67.369M113.812 87.369L109.586 78.306L101.925 71.878M109.586 78.306L105.36 69.243M164.526 196.126L164.526 186.126L160.3 177.063M164.526 186.126L164.526 176.126L160.3 167.063L160.3 157.063M160.3 167.063L156.074 158M164.526 176.126L164.526 166.126L160.3 157.063M164.526 166.126L164.526 156.126L168.752 147.063M164.526 156.126L164.526 146.126L160.3 137.063L152.64 130.635M160.3 137.063L156.074 128L156.074 118M156.074 128L151.848 118.937L144.187 112.509L134.528 109.921M144.187 112.509L136.527 106.081M151.848 118.937L147.621 109.874L139.961 103.446M147.621 109.874L143.395 100.811L143.395 90.811M143.395 100.811L139.169 91.748M164.526 146.126L164.526 136.126L160.3 127.063M164.526 136.126L164.526 126.126L168.752 117.063M164.526 126.126L164.526 116.126L168.752 107.063L168.752 97.063M168.752 107.063L172.979 98L180.639 91.572M172.979 98L177.205 88.937M164.526 116.126L164.526 106.126L160.3 97.063M164.526 106.126L164.526 96.126L168.752 87.063M164.526 96.126L164.526 86.126L168.752 77.063L168.752 67.063M168.752 77.063L172.979 68L180.639 61.572M172.979 68L177.205 58.937L184.865 52.509L189.091 43.446M184.865 52.509L192.526 46.081L202.185 43.493M192.526 46.081L200.186 39.653M177.205 58.937L181.431 49.874L181.431 39.874M181.431 49.874L185.657 40.811L193.318 34.383M185.657 40.811L189.883 31.748M164.526 86.126L164.526 76.126L168.752 67.063M164.526 76.126L164.526 66.126L160.3 57.063L152.64 50.635M160.3 57.063L156.074 48L156.074 38M156.074 48L151.848 38.937M164.526 66.126L164.526 56.126L160.3 47.063M164.526 56.126L164.526 46.126L168.752 37.063L168.752 27.063M168.752 37.063L172.979 28L180.639 21.572M172.979 28L177.205 18.937M164.526 46.126L164.526 36.126L160.3 27.063M164.526 36.126L164.526 26.126"/></svg>