<svg xmlns="http://www.w3.org/2000/svg" width="603" height="303" viewBox="0 0 603 303" shape-rendering="crispEdges"><rect width="603" height="303" fill="#ffffff"/><path fill="#111111" d="M300 0h3v3h-3zM297 3h9v3h-9zM294 6h6v3h-6zM306 6h3v3h-3zM291 9h6v3h-6zM300 9h12v3h-12zM288 12h6v3h-6zM300 12h3v3h-3zM312 12h3v3h-3zM285 15h6v3h-6zM294 15h12v3h-12zM309 15h9v3h-9zM282 18h6v3h-6zM294 18h3v3h-3zM309 18h3v3h-3zM318 18h3v3h-3zM279 21h6v3h-6zM288 21h12v3h-12zM306 21h18v3h-18zM276 24h6v3h-6zM288 24h3v3h-3zM300 24h9v3h-9zM324 24h3v3h-3zM273 27h6v3h-6zM282 27h12v3h-12zM297 27h6v3h-6zM309 27h3v3h-3zM321 27h9v3h-9zM270 30h6v3h-6zM282 30h3v3h-3zM297 30h3v3h-3zM303 30h12v3h-12zM318 30h6v3h-6zM330 30h3v3h-3zM267 33h6v3h-6zM276 33h12v3h-12zM294 33h6v3h-6zM303 33h3v3h-3zM318 33h3v3h-3zM324 33h12v3h-12zM264 36h6v3h-6zM276 36h3v3h-3zM288 36h9v3h-9zM303 36h6v3h-6zM315 36h6v3h-6zM324 36h3v3h-3zM336 36h3v3h-3zM261 39h6v3h-6zM270 39h12v3h-12zM285 39h6v3h-6zM297 39h9v3h-9zM309 39h9v3h-9zM324 39h6v3h-6zM333 39h9v3h-9zM258 42h6v3h-6zM270 42h3v3h-3zM285 42h3v3h-3zM291 42h9v3h-9zM309 42h3v3h-3zM318 42h9v3h-9zM333 42h3v3h-3zM342 42h3v3h-3zM255 45h6v3h-6zM264 45h12v3h-12zM282 45h6v3h-6zM291 45h3v3h-3zM300 45h3v3h-3zM306 45h15v3h-15zM327 45h21v3h-21zM252 48h6v3h-6zM264 48h3v3h-3zM276 48h9v3h-9zM291 48h12v3h-12zM306 48h3v3h-3zM321 48h9v3h-9zM348 48h3v3h-3zM249 51h6v3h-6zM258 51h12v3h-12zM273 51h6v3h-6zM285 51h9v3h-9zM306 51h6v3h-6zM318 51h6v3h-6zM330 51h3v3h-3zM345 51h9v3h-9zM246 54h6v3h-6zM258 54h3v3h-3zM273 54h3v3h-3zM279 54h9v3h-9zM294 54h3v3h-3zM303 54h6v3h-6zM312 54h9v3h-9zM324 54h12v3h-12zM342 54h6v3h-6zM354 54h3v3h-3zM243 57h6v3h-6zM252 57h12v3h-12zM270 57h6v3h-6zM279 57h3v3h-3zM288 57h18v3h-18zM312 57h3v3h-3zM324 57h3v3h-3zM336 57h9v3h-9zM348 57h12v3h-12zM240 60h6v3h-6zM252 60h3v3h-3zM264 60h9v3h-9zM279 60h12v3h-12zM306 60h12v3h-12zM321 60h9v3h-9zM333 60h6v3h-6zM348 60h3v3h-3zM360 60h3v3h-3zM237 63h6v3h-6zM246 63h12v3h-12zM261 63h6v3h-6zM273 63h9v3h-9zM291 63h3v3h-3zM303 63h6v3h-6zM321 63h3v3h-3zM333 63h3v3h-3zM339 63h3v3h-3zM345 63h9v3h-9zM357 63h9v3h-9zM234 66h6v3h-6zM246 66h3v3h-3zM261 66h3v3h-3zM267 66h9v3h-9zM282 66h3v3h-3zM288 66h9v3h-9zM300 66h6v3h-6zM309 66h3v3h-3zM318 66h9v3h-9zM330 66h6v3h-6zM339 66h3v3h-3zM345 66h3v3h-3zM357 66h3v3h-3zM366 66h3v3h-3zM231 69h6v3h-6zM240 69h12v3h-12zM258 69h6v3h-6zM267 69h3v3h-3zM276 69h9v3h-9zM288 69h3v3h-3zM300 69h3v3h-3zM309 69h12v3h-12zM330 69h3v3h-3zM339 69h3v3h-3zM345 69h6v3h-6zM354 69h18v3h-18zM228 72h6v3h-6zM240 72h3v3h-3zM252 72h9v3h-9zM267 72h12v3h-12zM288 72h6v3h-6zM297 72h15v3h-15zM321 72h3v3h-3zM327 72h15v3h-15zM345 72h3v3h-3zM354 72h3v3h-3zM372 72h3v3h-3zM225 75h6v3h-6zM234 75h12v3h-12zM249 75h6v3h-6zM261 75h9v3h-9zM279 75h3v3h-3zM285 75h6v3h-6zM297 75h3v3h-3zM312 75h3v3h-3zM318 75h6v3h-6zM327 75h3v3h-3zM345 75h15v3h-15zM369 75h9v3h-9zM222 78h6v3h-6zM234 78h3v3h-3zM249 78h3v3h-3zM255 78h9v3h-9zM270 78h3v3h-3zM276 78h6v3h-6zM285 78h3v3h-3zM291 78h12v3h-12zM309 78h6v3h-6zM318 78h3v3h-3zM327 78h6v3h-6zM342 78h6v3h-6zM360 78h3v3h-3zM366 78h6v3h-6zM378 78h3v3h-3zM219 81h6v3h-6zM228 81h12v3h-12zM246 81h6v3h-6zM255 81h3v3h-3zM264 81h9v3h-9zM276 81h3v3h-3zM285 81h3v3h-3zM291 81h3v3h-3zM303 81h9v3h-9zM318 81h12v3h-12zM333 81h3v3h-3zM339 81h6v3h-6zM348 81h3v3h-3zM357 81h6v3h-6zM366 81h3v3h-3zM372 81h12v3h-12zM216 84h6v3h-6zM228 84h3v3h-3zM240 84h9v3h-9zM255 84h12v3h-12zM276 84h12v3h-12zM291 84h6v3h-6zM300 84h6v3h-6zM312 84h9v3h-9zM333 84h3v3h-3zM339 84h3v3h-3zM348 84h12v3h-12zM366 84h3v3h-3zM372 84h3v3h-3zM384 84h3v3h-3zM213 87h6v3h-6zM222 87h12v3h-12zM237 87h6v3h-6zM249 87h9v3h-9zM267 87h3v3h-3zM273 87h6v3h-6zM291 87h3v3h-3zM300 87h3v3h-3zM306 87h9v3h-9zM321 87h3v3h-3zM330 87h6v3h-6zM339 87h12v3h-12zM360 87h9v3h-9zM372 87h6v3h-6zM381 87h9v3h-9zM210 90h6v3h-6zM222 90h3v3h-3zM237 90h3v3h-3zM243 90h9v3h-9zM258 90h3v3h-3zM264 90h6v3h-6zM273 90h3v3h-3zM279 90h3v3h-3zM288 90h15v3h-15zM306 90h3v3h-3zM315 90h18v3h-18zM339 90h3v3h-3zM351 90h3v3h-3zM357 90h6v3h-6zM372 90h3v3h-3zM381 90h3v3h-3zM390 90h3v3h-3zM207 93h6v3h-6zM216 93h12v3h-12zM234 93h6v3h-6zM243 93h3v3h-3zM252 93h9v3h-9zM264 93h3v3h-3zM273 93h3v3h-3zM279 93h12v3h-12zM306 93h12v3h-12zM333 93h12v3h-12zM348 93h6v3h-6zM357 93h3v3h-3zM363 93h3v3h-3zM369 93h27v3h-27zM204 96h6v3h-6zM216 96h3v3h-3zM228 96h9v3h-9zM243 96h12v3h-12zM264 96h12v3h-12zM279 96h3v3h-3zM291 96h3v3h-3zM303 96h6v3h-6zM318 96h3v3h-3zM330 96h6v3h-6zM348 96h3v3h-3zM357 96h3v3h-3zM363 96h3v3h-3zM369 96h3v3h-3zM396 96h3v3h-3zM201 99h6v3h-6zM210 99h12v3h-12zM225 99h6v3h-6zM237 99h9v3h-9zM255 99h3v3h-3zM261 99h6v3h-6zM279 99h6v3h-6zM288 99h9v3h-9zM300 99h6v3h-6zM309 99h3v3h-3zM315 99h9v3h-9zM327 99h6v3h-6zM336 99h3v3h-3zM345 99h15v3h-15zM363 99h3v3h-3zM369 99h6v3h-6zM393 99h9v3h-9zM198 102h6v3h-6zM210 102h3v3h-3zM225 102h3v3h-3zM231 102h9v3h-9zM246 102h3v3h-3zM252 102h6v3h-6zM261 102h3v3h-3zM267 102h3v3h-3zM276 102h6v3h-6zM288 102h3v3h-3zM300 102h3v3h-3zM309 102h3v3h-3zM315 102h3v3h-3zM327 102h3v3h-3zM336 102h12v3h-12zM363 102h3v3h-3zM369 102h3v3h-3zM375 102h3v3h-3zM390 102h6v3h-6zM402 102h3v3h-3zM195 105h6v3h-6zM204 105h12v3h-12zM222 105h6v3h-6zM231 105h3v3h-3zM240 105h9v3h-9zM252 105h3v3h-3zM261 105h3v3h-3zM267 105h12v3h-12zM282 105h12v3h-12zM297 105h15v3h-15zM315 105h6v3h-6zM324 105h15v3h-15zM348 105h3v3h-3zM360 105h6v3h-6zM369 105h3v3h-3zM375 105h6v3h-6zM387 105h6v3h-6zM396 105h12v3h-12zM192 108h6v3h-6zM204 108h3v3h-3zM216 108h9v3h-9zM231 108h12v3h-12zM252 108h12v3h-12zM267 108h3v3h-3zM282 108h3v3h-3zM297 108h3v3h-3zM315 108h3v3h-3zM324 108h3v3h-3zM339 108h3v3h-3zM345 108h9v3h-9zM357 108h6v3h-6zM369 108h3v3h-3zM375 108h3v3h-3zM381 108h9v3h-9zM396 108h3v3h-3zM408 108h3v3h-3zM189 111h6v3h-6zM198 111h12v3h-12zM213 111h6v3h-6zM225 111h9v3h-9zM243 111h3v3h-3zM249 111h6v3h-6zM267 111h6v3h-6zM279 111h9v3h-9zM294 111h9v3h-9zM312 111h18v3h-18zM336 111h6v3h-6zM345 111h3v3h-3zM357 111h3v3h-3zM363 111h9v3h-9zM375 111h3v3h-3zM381 111h3v3h-3zM390 111h12v3h-12zM405 111h9v3h-9zM186 114h6v3h-6zM198 114h3v3h-3zM213 114h3v3h-3zM219 114h9v3h-9zM234 114h3v3h-3zM240 114h6v3h-6zM249 114h3v3h-3zM255 114h3v3h-3zM264 114h6v3h-6zM273 114h9v3h-9zM288 114h9v3h-9zM303 114h3v3h-3zM309 114h6v3h-6zM330 114h9v3h-9zM345 114h6v3h-6zM354 114h6v3h-6zM363 114h3v3h-3zM375 114h3v3h-3zM381 114h12v3h-12zM405 114h3v3h-3zM414 114h3v3h-3zM183 117h6v3h-6zM192 117h12v3h-12zM210 117h6v3h-6zM219 117h3v3h-3zM228 117h9v3h-9zM240 117h3v3h-3zM249 117h3v3h-3zM255 117h12v3h-12zM273 117h3v3h-3zM282 117h9v3h-9zM297 117h9v3h-9zM309 117h3v3h-3zM315 117h3v3h-3zM327 117h6v3h-6zM339 117h9v3h-9zM354 117h3v3h-3zM363 117h6v3h-6zM372 117h6v3h-6zM381 117h3v3h-3zM393 117h3v3h-3zM402 117h18v3h-18zM180 120h6v3h-6zM192 120h3v3h-3zM204 120h9v3h-9zM219 120h12v3h-12zM240 120h12v3h-12zM255 120h3v3h-3zM267 120h18v3h-18zM291 120h9v3h-9zM309 120h3v3h-3zM315 120h6v3h-6zM324 120h6v3h-6zM333 120h9v3h-9zM348 120h18v3h-18zM372 120h3v3h-3zM381 120h6v3h-6zM390 120h15v3h-15zM420 120h3v3h-3zM177 123h6v3h-6zM186 123h12v3h-12zM201 123h6v3h-6zM213 123h9v3h-9zM231 123h3v3h-3zM237 123h6v3h-6zM255 123h6v3h-6zM264 123h6v3h-6zM285 123h9v3h-9zM300 123h3v3h-3zM306 123h6v3h-6zM315 123h3v3h-3zM324 123h3v3h-3zM333 123h3v3h-3zM342 123h9v3h-9zM366 123h18v3h-18zM390 123h3v3h-3zM405 123h3v3h-3zM417 123h9v3h-9zM174 126h6v3h-6zM186 126h3v3h-3zM201 126h3v3h-3zM207 126h9v3h-9zM222 126h3v3h-3zM228 126h6v3h-6zM237 126h3v3h-3zM243 126h3v3h-3zM252 126h6v3h-6zM264 126h3v3h-3zM270 126h3v3h-3zM282 126h6v3h-6zM294 126h9v3h-9zM306 126h3v3h-3zM315 126h30v3h-30zM351 126h3v3h-3zM363 126h6v3h-6zM384 126h12v3h-12zM402 126h9v3h-9zM414 126h6v3h-6zM426 126h3v3h-3zM171 129h6v3h-6zM180 129h12v3h-12zM198 129h6v3h-6zM207 129h3v3h-3zM216 129h9v3h-9zM228 129h3v3h-3zM237 129h3v3h-3zM243 129h12v3h-12zM258 129h9v3h-9zM270 129h6v3h-6zM279 129h6v3h-6zM288 129h9v3h-9zM306 129h12v3h-12zM345 129h12v3h-12zM360 129h6v3h-6zM369 129h3v3h-3zM381 129h6v3h-6zM396 129h9v3h-9zM414 129h3v3h-3zM420 129h12v3h-12zM168 132h6v3h-6zM180 132h3v3h-3zM192 132h9v3h-9zM207 132h12v3h-12zM228 132h12v3h-12zM243 132h3v3h-3zM258 132h3v3h-3zM270 132h3v3h-3zM279 132h3v3h-3zM288 132h3v3h-3zM297 132h3v3h-3zM303 132h6v3h-6zM318 132h3v3h-3zM342 132h6v3h-6zM360 132h3v3h-3zM369 132h6v3h-6zM378 132h6v3h-6zM387 132h3v3h-3zM393 132h6v3h-6zM405 132h3v3h-3zM411 132h6v3h-6zM420 132h3v3h-3zM432 132h3v3h-3zM165 135h6v3h-6zM174 135h12v3h-12zM189 135h6v3h-6zM201 135h9v3h-9zM219 135h3v3h-3zM225 135h6v3h-6zM243 135h6v3h-6zM255 135h9v3h-9zM267 135h33v3h-33zM303 135h3v3h-3zM309 135h3v3h-3zM315 135h9v3h-9zM339 135h6v3h-6zM348 135h3v3h-3zM357 135h15v3h-15zM378 135h3v3h-3zM387 135h3v3h-3zM393 135h3v3h-3zM399 135h9v3h-9zM411 135h3v3h-3zM420 135h6v3h-6zM429 135h9v3h-9zM162 138h6v3h-6zM174 138h3v3h-3zM189 138h3v3h-3zM195 138h9v3h-9zM210 138h3v3h-3zM216 138h6v3h-6zM225 138h3v3h-3zM231 138h3v3h-3zM240 138h6v3h-6zM249 138h9v3h-9zM267 138h3v3h-3zM303 138h3v3h-3zM309 138h3v3h-3zM315 138h3v3h-3zM324 138h3v3h-3zM336 138h6v3h-6zM348 138h12v3h-12zM372 138h18v3h-18zM393 138h3v3h-3zM399 138h3v3h-3zM411 138h12v3h-12zM429 138h3v3h-3zM438 138h3v3h-3zM159 141h6v3h-6zM168 141h12v3h-12zM186 141h6v3h-6zM195 141h3v3h-3zM204 141h9v3h-9zM216 141h3v3h-3zM225 141h3v3h-3zM231 141h12v3h-12zM249 141h3v3h-3zM258 141h3v3h-3zM264 141h9v3h-9zM300 141h6v3h-6zM309 141h3v3h-3zM315 141h15v3h-15zM333 141h6v3h-6zM342 141h9v3h-9zM360 141h3v3h-3zM369 141h6v3h-6zM393 141h3v3h-3zM399 141h6v3h-6zM408 141h6v3h-6zM423 141h21v3h-21zM156 144h6v3h-6zM168 144h3v3h-3zM180 144h9v3h-9zM195 144h12v3h-12zM216 144h12v3h-12zM231 144h3v3h-3zM243 144h18v3h-18zM264 144h3v3h-3zM273 144h3v3h-3zM297 144h6v3h-6zM309 144h3v3h-3zM315 144h3v3h-3zM333 144h3v3h-3zM342 144h3v3h-3zM351 144h3v3h-3zM357 144h15v3h-15zM375 144h3v3h-3zM390 144h6v3h-6zM399 144h3v3h-3zM408 144h3v3h-3zM414 144h3v3h-3zM420 144h6v3h-6zM444 144h3v3h-3zM153 147h6v3h-6zM162 147h12v3h-12zM177 147h6v3h-6zM189 147h9v3h-9zM207 147h3v3h-3zM213 147h6v3h-6zM231 147h6v3h-6zM240 147h6v3h-6zM264 147h15v3h-15zM294 147h6v3h-6zM303 147h9v3h-9zM315 147h6v3h-6zM330 147h24v3h-24zM357 147h3v3h-3zM375 147h6v3h-6zM387 147h6v3h-6zM399 147h12v3h-12zM414 147h3v3h-3zM420 147h3v3h-3zM426 147h3v3h-3zM441 147h9v3h-9zM150 150h6v3h-6zM162 150h3v3h-3zM177 150h3v3h-3zM183 150h9v3h-9zM198 150h3v3h-3zM204 150h6v3h-6zM213 150h3v3h-3zM219 150h3v3h-3zM228 150h6v3h-6zM240 150h3v3h-3zM246 150h3v3h-3zM261 150h6v3h-6zM279 150h3v3h-3zM291 150h6v3h-6zM303 150h3v3h-3zM315 150h3v3h-3zM321 150h3v3h-3zM327 150h6v3h-6zM357 150h6v3h-6zM372 150h6v3h-6zM381 150h9v3h-9zM393 150h9v3h-9zM414 150h3v3h-3zM420 150h3v3h-3zM426 150h6v3h-6zM438 150h6v3h-6zM450 150h3v3h-3zM147 153h6v3h-6zM156 153h12v3h-12zM174 153h6v3h-6zM183 153h3v3h-3zM192 153h9v3h-9zM204 153h3v3h-3zM213 153h3v3h-3zM219 153h12v3h-12zM234 153h9v3h-9zM246 153h6v3h-6zM258 153h6v3h-6zM267 153h3v3h-3zM276 153h9v3h-9zM288 153h6v3h-6zM297 153h12v3h-12zM312 153h6v3h-6zM321 153h3v3h-3zM327 153h3v3h-3zM333 153h3v3h-3zM354 153h6v3h-6zM363 153h3v3h-3zM369 153h6v3h-6zM381 153h3v3h-3zM393 153h3v3h-3zM402 153h3v3h-3zM411 153h6v3h-6zM420 153h3v3h-3zM426 153h3v3h-3zM432 153h9v3h-9zM444 153h12v3h-12zM144 156h6v3h-6zM156 156h3v3h-3zM168 156h9v3h-9zM183 156h12v3h-12zM204 156h12v3h-12zM219 156h3v3h-3zM234 156h3v3h-3zM246 156h3v3h-3zM252 156h9v3h-9zM267 156h12v3h-12zM288 156h3v3h-3zM297 156h3v3h-3zM312 156h3v3h-3zM321 156h3v3h-3zM327 156h3v3h-3zM333 156h6v3h-6zM351 156h6v3h-6zM363 156h3v3h-3zM369 156h3v3h-3zM375 156h12v3h-12zM390 156h24v3h-24zM420 156h3v3h-3zM426 156h3v3h-3zM432 156h3v3h-3zM444 156h3v3h-3zM456 156h3v3h-3zM141 159h6v3h-6zM150 159h12v3h-12zM165 159h6v3h-6zM177 159h9v3h-9zM195 159h3v3h-3zM201 159h6v3h-6zM219 159h6v3h-6zM231 159h9v3h-9zM243 159h6v3h-6zM252 159h3v3h-3zM261 159h9v3h-9zM279 159h3v3h-3zM285 159h18v3h-18zM309 159h15v3h-15zM327 159h3v3h-3zM333 159h3v3h-3zM339 159h3v3h-3zM348 159h6v3h-6zM357 159h9v3h-9zM369 159h3v3h-3zM375 159h3v3h-3zM390 159h3v3h-3zM414 159h9v3h-9zM426 159h3v3h-3zM432 159h6v3h-6zM441 159h9v3h-9zM453 159h9v3h-9zM138 162h6v3h-6zM150 162h3v3h-3zM165 162h3v3h-3zM171 162h9v3h-9zM186 162h3v3h-3zM192 162h6v3h-6zM201 162h3v3h-3zM207 162h3v3h-3zM216 162h6v3h-6zM225 162h9v3h-9zM243 162h3v3h-3zM252 162h12v3h-12zM270 162h3v3h-3zM276 162h6v3h-6zM285 162h3v3h-3zM303 162h9v3h-9zM327 162h3v3h-3zM333 162h3v3h-3zM339 162h12v3h-12zM357 162h3v3h-3zM369 162h3v3h-3zM375 162h6v3h-6zM387 162h9v3h-9zM411 162h6v3h-6zM426 162h3v3h-3zM432 162h3v3h-3zM441 162h3v3h-3zM453 162h3v3h-3zM462 162h3v3h-3zM135 165h6v3h-6zM144 165h12v3h-12zM162 165h6v3h-6zM171 165h3v3h-3zM180 165h9v3h-9zM192 165h3v3h-3zM201 165h3v3h-3zM207 165h12v3h-12zM225 165h3v3h-3zM234 165h3v3h-3zM240 165h15v3h-15zM264 165h9v3h-9zM276 165h3v3h-3zM285 165h6v3h-6zM300 165h6v3h-6zM312 165h3v3h-3zM324 165h6v3h-6zM333 165h3v3h-3zM339 165h3v3h-3zM351 165h12v3h-12zM366 165h6v3h-6zM375 165h3v3h-3zM381 165h9v3h-9zM396 165h3v3h-3zM408 165h6v3h-6zM417 165h3v3h-3zM423 165h6v3h-6zM432 165h15v3h-15zM450 165h18v3h-18zM132 168h6v3h-6zM144 168h3v3h-3zM156 168h9v3h-9zM171 168h12v3h-12zM192 168h12v3h-12zM207 168h3v3h-3zM219 168h18v3h-18zM240 168h3v3h-3zM255 168h3v3h-3zM261 168h6v3h-6zM276 168h12v3h-12zM291 168h3v3h-3zM297 168h6v3h-6zM306 168h12v3h-12zM321 168h6v3h-6zM333 168h3v3h-3zM339 168h6v3h-6zM348 168h6v3h-6zM366 168h3v3h-3zM375 168h3v3h-3zM381 168h3v3h-3zM390 168h12v3h-12zM405 168h6v3h-6zM417 168h3v3h-3zM423 168h3v3h-3zM432 168h3v3h-3zM450 168h3v3h-3zM468 168h3v3h-3zM129 171h6v3h-6zM138 171h12v3h-12zM153 171h6v3h-6zM165 171h9v3h-9zM183 171h3v3h-3zM189 171h6v3h-6zM207 171h6v3h-6zM216 171h6v3h-6zM240 171h6v3h-6zM252 171h6v3h-6zM261 171h3v3h-3zM267 171h3v3h-3zM273 171h6v3h-6zM291 171h3v3h-3zM297 171h3v3h-3zM306 171h3v3h-3zM321 171h3v3h-3zM327 171h9v3h-9zM339 171h3v3h-3zM348 171h3v3h-3zM354 171h3v3h-3zM363 171h15v3h-15zM381 171h12v3h-12zM405 171h3v3h-3zM411 171h9v3h-9zM423 171h15v3h-15zM447 171h9v3h-9zM465 171h9v3h-9zM126 174h6v3h-6zM138 174h3v3h-3zM153 174h3v3h-3zM159 174h9v3h-9zM174 174h3v3h-3zM180 174h6v3h-6zM189 174h3v3h-3zM195 174h3v3h-3zM204 174h6v3h-6zM216 174h3v3h-3zM222 174h3v3h-3zM237 174h6v3h-6zM246 174h9v3h-9zM261 174h3v3h-3zM267 174h3v3h-3zM273 174h3v3h-3zM279 174h3v3h-3zM288 174h6v3h-6zM297 174h15v3h-15zM318 174h6v3h-6zM327 174h3v3h-3zM339 174h12v3h-12zM354 174h12v3h-12zM381 174h3v3h-3zM393 174h3v3h-3zM402 174h6v3h-6zM411 174h3v3h-3zM423 174h3v3h-3zM438 174h3v3h-3zM444 174h6v3h-6zM456 174h3v3h-3zM462 174h6v3h-6zM474 174h3v3h-3zM123 177h6v3h-6zM132 177h12v3h-12zM150 177h6v3h-6zM159 177h3v3h-3zM168 177h9v3h-9zM180 177h3v3h-3zM189 177h3v3h-3zM195 177h12v3h-12zM210 177h9v3h-9zM222 177h6v3h-6zM234 177h6v3h-6zM246 177h3v3h-3zM255 177h9v3h-9zM267 177h3v3h-3zM273 177h3v3h-3zM279 177h12v3h-12zM297 177h3v3h-3zM312 177h9v3h-9zM327 177h6v3h-6zM336 177h6v3h-6zM354 177h3v3h-3zM366 177h3v3h-3zM378 177h9v3h-9zM390 177h15v3h-15zM411 177h6v3h-6zM420 177h9v3h-9zM435 177h6v3h-6zM444 177h3v3h-3zM450 177h9v3h-9zM462 177h3v3h-3zM468 177h12v3h-12zM120 180h6v3h-6zM132 180h3v3h-3zM144 180h9v3h-9zM159 180h12v3h-12zM180 180h12v3h-12zM195 180h3v3h-3zM210 180h3v3h-3zM222 180h3v3h-3zM228 180h9v3h-9zM240 180h18v3h-18zM267 180h3v3h-3zM273 180h3v3h-3zM279 180h3v3h-3zM291 180h12v3h-12zM309 180h6v3h-6zM321 180h9v3h-9zM336 180h3v3h-3zM342 180h3v3h-3zM351 180h9v3h-9zM363 180h9v3h-9zM375 180h6v3h-6zM390 180h3v3h-3zM405 180h9v3h-9zM420 180h3v3h-3zM429 180h9v3h-9zM444 180h3v3h-3zM450 180h3v3h-3zM462 180h3v3h-3zM468 180h3v3h-3zM480 180h3v3h-3zM117 183h6v3h-6zM126 183h12v3h-12zM141 183h6v3h-6zM153 183h9v3h-9zM171 183h3v3h-3zM177 183h6v3h-6zM195 183h6v3h-6zM207 183h9v3h-9zM219 183h6v3h-6zM228 183h3v3h-3zM240 183h3v3h-3zM258 183h3v3h-3zM264 183h6v3h-6zM273 183h3v3h-3zM279 183h6v3h-6zM288 183h6v3h-6zM303 183h9v3h-9zM315 183h9v3h-9zM330 183h9v3h-9zM342 183h12v3h-12zM363 183h3v3h-3zM375 183h3v3h-3zM381 183h3v3h-3zM387 183h9v3h-9zM402 183h6v3h-6zM414 183h18v3h-18zM438 183h9v3h-9zM450 183h6v3h-6zM459 183h6v3h-6zM468 183h6v3h-6zM477 183h9v3h-9zM114 186h6v3h-6zM126 186h3v3h-3zM141 186h3v3h-3zM147 186h9v3h-9zM162 186h3v3h-3zM168 186h6v3h-6zM177 186h3v3h-3zM183 186h3v3h-3zM192 186h6v3h-6zM201 186h9v3h-9zM219 186h3v3h-3zM228 186h6v3h-6zM237 186h9v3h-9zM255 186h6v3h-6zM264 186h3v3h-3zM273 186h3v3h-3zM279 186h3v3h-3zM288 186h3v3h-3zM294 186h3v3h-3zM300 186h6v3h-6zM315 186h3v3h-3zM324 186h9v3h-9zM342 186h3v3h-3zM354 186h3v3h-3zM360 186h9v3h-9zM372 186h6v3h-6zM381 186h3v3h-3zM387 186h3v3h-3zM396 186h9v3h-9zM408 186h9v3h-9zM432 186h9v3h-9zM450 186h3v3h-3zM459 186h3v3h-3zM468 186h3v3h-3zM477 186h3v3h-3zM486 186h3v3h-3zM111 189h6v3h-6zM120 189h12v3h-12zM138 189h6v3h-6zM147 189h3v3h-3zM156 189h9v3h-9zM168 189h3v3h-3zM177 189h3v3h-3zM183 189h12v3h-12zM201 189h3v3h-3zM210 189h3v3h-3zM216 189h15v3h-15zM237 189h3v3h-3zM246 189h3v3h-3zM252 189h6v3h-6zM264 189h12v3h-12zM279 189h12v3h-12zM294 189h3v3h-3zM300 189h3v3h-3zM306 189h3v3h-3zM312 189h15v3h-15zM333 189h3v3h-3zM339 189h9v3h-9zM351 189h6v3h-6zM360 189h3v3h-3zM372 189h3v3h-3zM381 189h3v3h-3zM387 189h12v3h-12zM408 189h3v3h-3zM417 189h3v3h-3zM429 189h6v3h-6zM441 189h3v3h-3zM447 189h45v3h-45zM108 192h6v3h-6zM120 192h3v3h-3zM132 192h9v3h-9zM147 192h12v3h-12zM168 192h12v3h-12zM183 192h3v3h-3zM195 192h18v3h-18zM216 192h3v3h-3zM231 192h18v3h-18zM252 192h3v3h-3zM258 192h9v3h-9zM279 192h3v3h-3zM294 192h3v3h-3zM300 192h3v3h-3zM306 192h3v3h-3zM312 192h3v3h-3zM327 192h9v3h-9zM339 192h3v3h-3zM351 192h3v3h-3zM360 192h6v3h-6zM369 192h15v3h-15zM387 192h3v3h-3zM399 192h3v3h-3zM405 192h18v3h-18zM426 192h6v3h-6zM435 192h9v3h-9zM447 192h3v3h-3zM492 192h3v3h-3zM105 195h6v3h-6zM114 195h12v3h-12zM129 195h6v3h-6zM141 195h9v3h-9zM159 195h3v3h-3zM165 195h6v3h-6zM183 195h6v3h-6zM192 195h6v3h-6zM216 195h6v3h-6zM228 195h6v3h-6zM252 195h3v3h-3zM258 195h3v3h-3zM267 195h3v3h-3zM276 195h9v3h-9zM291 195h6v3h-6zM300 195h3v3h-3zM306 195h3v3h-3zM312 195h6v3h-6zM324 195h6v3h-6zM339 195h6v3h-6zM348 195h15v3h-15zM369 195h3v3h-3zM387 195h6v3h-6zM396 195h6v3h-6zM405 195h3v3h-3zM426 195h3v3h-3zM435 195h3v3h-3zM447 195h6v3h-6zM489 195h9v3h-9zM102 198h6v3h-6zM114 198h3v3h-3zM129 198h3v3h-3zM135 198h9v3h-9zM150 198h3v3h-3zM156 198h6v3h-6zM165 198h3v3h-3zM171 198h3v3h-3zM180 198h6v3h-6zM192 198h3v3h-3zM198 198h3v3h-3zM213 198h6v3h-6zM222 198h9v3h-9zM234 198h3v3h-3zM249 198h6v3h-6zM258 198h21v3h-21zM285 198h9v3h-9zM300 198h3v3h-3zM306 198h3v3h-3zM312 198h3v3h-3zM318 198h9v3h-9zM330 198h3v3h-3zM336 198h6v3h-6zM348 198h3v3h-3zM363 198h12v3h-12zM384 198h6v3h-6zM396 198h3v3h-3zM405 198h6v3h-6zM423 198h18v3h-18zM444 198h6v3h-6zM453 198h3v3h-3zM486 198h6v3h-6zM498 198h3v3h-3zM99 201h6v3h-6zM108 201h12v3h-12zM126 201h6v3h-6zM135 201h3v3h-3zM144 201h9v3h-9zM156 201h3v3h-3zM165 201h3v3h-3zM171 201h12v3h-12zM186 201h9v3h-9zM198 201h6v3h-6zM210 201h6v3h-6zM222 201h3v3h-3zM234 201h6v3h-6zM246 201h6v3h-6zM258 201h3v3h-3zM279 201h9v3h-9zM294 201h9v3h-9zM306 201h3v3h-3zM312 201h3v3h-3zM318 201h3v3h-3zM330 201h3v3h-3zM336 201h3v3h-3zM342 201h12v3h-12zM360 201h6v3h-6zM375 201h3v3h-3zM381 201h6v3h-6zM390 201h18v3h-18zM411 201h3v3h-3zM420 201h6v3h-6zM444 201h3v3h-3zM453 201h6v3h-6zM483 201h6v3h-6zM492 201h12v3h-12zM96 204h6v3h-6zM108 204h3v3h-3zM120 204h9v3h-9zM135 204h12v3h-12zM156 204h12v3h-12zM171 204h3v3h-3zM186 204h3v3h-3zM198 204h3v3h-3zM204 204h9v3h-9zM216 204h12v3h-12zM231 204h6v3h-6zM240 204h9v3h-9zM252 204h12v3h-12zM276 204h6v3h-6zM288 204h9v3h-9zM306 204h3v3h-3zM312 204h3v3h-3zM318 204h6v3h-6zM327 204h6v3h-6zM336 204h3v3h-3zM342 204h3v3h-3zM354 204h9v3h-9zM366 204h3v3h-3zM372 204h6v3h-6zM381 204h3v3h-3zM390 204h3v3h-3zM411 204h12v3h-12zM426 204h3v3h-3zM441 204h15v3h-15zM459 204h3v3h-3zM480 204h6v3h-6zM492 204h3v3h-3zM504 204h3v3h-3zM93 207h6v3h-6zM102 207h12v3h-12zM117 207h6v3h-6zM129 207h9v3h-9zM147 207h3v3h-3zM153 207h6v3h-6zM171 207h6v3h-6zM183 207h9v3h-9zM195 207h6v3h-6zM204 207h3v3h-3zM216 207h3v3h-3zM231 207h3v3h-3zM240 207h3v3h-3zM252 207h3v3h-3zM264 207h3v3h-3zM273 207h6v3h-6zM282 207h9v3h-9zM297 207h3v3h-3zM303 207h6v3h-6zM312 207h3v3h-3zM318 207h3v3h-3zM327 207h3v3h-3zM336 207h3v3h-3zM342 207h6v3h-6zM351 207h6v3h-6zM366 207h3v3h-3zM372 207h3v3h-3zM381 207h15v3h-15zM408 207h6v3h-6zM426 207h6v3h-6zM438 207h6v3h-6zM459 207h6v3h-6zM477 207h6v3h-6zM486 207h12v3h-12zM501 207h9v3h-9zM90 210h6v3h-6zM102 210h3v3h-3zM117 210h3v3h-3zM123 210h9v3h-9zM138 210h3v3h-3zM144 210h6v3h-6zM153 210h3v3h-3zM159 210h3v3h-3zM168 210h6v3h-6zM177 210h9v3h-9zM195 210h3v3h-3zM204 210h6v3h-6zM213 210h9v3h-9zM228 210h18v3h-18zM249 210h9v3h-9zM261 210h15v3h-15zM282 210h3v3h-3zM291 210h9v3h-9zM303 210h3v3h-3zM312 210h3v3h-3zM318 210h21v3h-21zM342 210h3v3h-3zM351 210h3v3h-3zM357 210h3v3h-3zM363 210h6v3h-6zM372 210h12v3h-12zM396 210h3v3h-3zM405 210h6v3h-6zM414 210h3v3h-3zM423 210h6v3h-6zM432 210h9v3h-9zM444 210h3v3h-3zM456 210h6v3h-6zM465 210h3v3h-3zM474 210h6v3h-6zM486 210h3v3h-3zM501 210h3v3h-3zM510 210h3v3h-3zM87 213h6v3h-6zM96 213h12v3h-12zM114 213h6v3h-6zM123 213h3v3h-3zM132 213h9v3h-9zM144 213h3v3h-3zM153 213h3v3h-3zM159 213h12v3h-12zM177 213h3v3h-3zM186 213h3v3h-3zM192 213h15v3h-15zM213 213h3v3h-3zM222 213h9v3h-9zM249 213h3v3h-3zM261 213h3v3h-3zM276 213h18v3h-18zM303 213h12v3h-12zM318 213h3v3h-3zM342 213h12v3h-12zM357 213h3v3h-3zM363 213h3v3h-3zM372 213h3v3h-3zM384 213h3v3h-3zM393 213h15v3h-15zM414 213h12v3h-12zM432 213h3v3h-3zM444 213h6v3h-6zM453 213h6v3h-6zM465 213h12v3h-12zM480 213h12v3h-12zM498 213h18v3h-18zM84 216h6v3h-6zM96 216h3v3h-3zM108 216h9v3h-9zM123 216h12v3h-12zM144 216h12v3h-12zM159 216h3v3h-3zM171 216h18v3h-18zM192 216h3v3h-3zM207 216h18v3h-18zM231 216h3v3h-3zM246 216h9v3h-9zM258 216h9v3h-9zM273 216h6v3h-6zM294 216h3v3h-3zM300 216h6v3h-6zM318 216h6v3h-6zM339 216h6v3h-6zM357 216h3v3h-3zM363 216h15v3h-15zM381 216h15v3h-15zM408 216h9v3h-9zM426 216h12v3h-12zM441 216h6v3h-6zM453 216h3v3h-3zM459 216h9v3h-9zM480 216h3v3h-3zM492 216h9v3h-9zM516 216h3v3h-3zM81 219h6v3h-6zM90 219h12v3h-12zM105 219h6v3h-6zM117 219h9v3h-9zM135 219h3v3h-3zM141 219h6v3h-6zM159 219h6v3h-6zM168 219h6v3h-6zM192 219h6v3h-6zM204 219h6v3h-6zM225 219h12v3h-12zM243 219h6v3h-6zM258 219h3v3h-3zM267 219h9v3h-9zM279 219h3v3h-3zM291 219h6v3h-6zM300 219h3v3h-3zM306 219h3v3h-3zM315 219h6v3h-6zM324 219h3v3h-3zM336 219h6v3h-6zM345 219h3v3h-3zM354 219h6v3h-6zM363 219h3v3h-3zM381 219h3v3h-3zM396 219h3v3h-3zM405 219h6v3h-6zM417 219h3v3h-3zM423 219h6v3h-6zM441 219h3v3h-3zM447 219h9v3h-9zM459 219h3v3h-3zM468 219h3v3h-3zM477 219h9v3h-9zM489 219h6v3h-6zM501 219h3v3h-3zM513 219h9v3h-9zM78 222h6v3h-6zM90 222h3v3h-3zM105 222h3v3h-3zM111 222h9v3h-9zM126 222h3v3h-3zM132 222h6v3h-6zM141 222h3v3h-3zM147 222h3v3h-3zM156 222h6v3h-6zM168 222h3v3h-3zM174 222h3v3h-3zM189 222h6v3h-6zM198 222h9v3h-9zM210 222h3v3h-3zM222 222h6v3h-6zM237 222h9v3h-9zM249 222h3v3h-3zM255 222h15v3h-15zM279 222h6v3h-6zM288 222h6v3h-6zM300 222h3v3h-3zM306 222h12v3h-12zM324 222h6v3h-6zM333 222h6v3h-6zM345 222h12v3h-12zM363 222h6v3h-6zM378 222h9v3h-9zM393 222h15v3h-15zM411 222h9v3h-9zM423 222h3v3h-3zM429 222h3v3h-3zM438 222h6v3h-6zM447 222h3v3h-3zM459 222h21v3h-21zM489 222h3v3h-3zM495 222h12v3h-12zM510 222h6v3h-6zM522 222h3v3h-3zM75 225h6v3h-6zM84 225h12v3h-12zM102 225h6v3h-6zM111 225h3v3h-3zM120 225h9v3h-9zM132 225h3v3h-3zM141 225h3v3h-3zM147 225h12v3h-12zM162 225h9v3h-9zM174 225h6v3h-6zM186 225h6v3h-6zM198 225h3v3h-3zM210 225h6v3h-6zM219 225h6v3h-6zM228 225h3v3h-3zM234 225h6v3h-6zM249 225h3v3h-3zM255 225h3v3h-3zM270 225h3v3h-3zM276 225h6v3h-6zM288 225h3v3h-3zM294 225h9v3h-9zM306 225h3v3h-3zM318 225h9v3h-9zM333 225h3v3h-3zM339 225h9v3h-9zM357 225h9v3h-9zM369 225h3v3h-3zM375 225h6v3h-6zM387 225h9v3h-9zM411 225h3v3h-3zM423 225h3v3h-3zM429 225h12v3h-12zM447 225h6v3h-6zM456 225h6v3h-6zM480 225h3v3h-3zM486 225h6v3h-6zM495 225h3v3h-3zM510 225h3v3h-3zM516 225h12v3h-12zM72 228h6v3h-6zM84 228h3v3h-3zM96 228h9v3h-9zM111 228h12v3h-12zM132 228h12v3h-12zM147 228h3v3h-3zM162 228h3v3h-3zM174 228h3v3h-3zM180 228h9v3h-9zM192 228h12v3h-12zM207 228h6v3h-6zM219 228h3v3h-3zM228 228h3v3h-3zM234 228h3v3h-3zM240 228h3v3h-3zM246 228h6v3h-6zM255 228h6v3h-6zM267 228h6v3h-6zM276 228h3v3h-3zM282 228h9v3h-9zM294 228h3v3h-3zM306 228h6v3h-6zM315 228h6v3h-6zM327 228h9v3h-9zM339 228h3v3h-3zM348 228h3v3h-3zM354 228h6v3h-6zM369 228h3v3h-3zM375 228h3v3h-3zM381 228h9v3h-9zM396 228h3v3h-3zM408 228h9v3h-9zM420 228h6v3h-6zM429 228h3v3h-3zM441 228h9v3h-9zM456 228h3v3h-3zM462 228h3v3h-3zM477 228h6v3h-6zM486 228h3v3h-3zM495 228h6v3h-6zM507 228h6v3h-6zM516 228h3v3h-3zM528 228h3v3h-3zM69 231h6v3h-6zM78 231h12v3h-12zM93 231h6v3h-6zM105 231h9v3h-9zM123 231h3v3h-3zM129 231h6v3h-6zM147 231h6v3h-6zM159 231h9v3h-9zM171 231h6v3h-6zM180 231h3v3h-3zM192 231h3v3h-3zM207 231h3v3h-3zM213 231h18v3h-18zM234 231h3v3h-3zM240 231h3v3h-3zM246 231h3v3h-3zM255 231h3v3h-3zM261 231h9v3h-9zM276 231h3v3h-3zM282 231h3v3h-3zM294 231h6v3h-6zM303 231h6v3h-6zM315 231h3v3h-3zM321 231h9v3h-9zM339 231h12v3h-12zM354 231h3v3h-3zM360 231h3v3h-3zM366 231h6v3h-6zM375 231h3v3h-3zM381 231h3v3h-3zM390 231h12v3h-12zM405 231h6v3h-6zM420 231h3v3h-3zM429 231h6v3h-6zM438 231h6v3h-6zM450 231h9v3h-9zM462 231h6v3h-6zM474 231h6v3h-6zM486 231h12v3h-12zM501 231h9v3h-9zM516 231h6v3h-6zM525 231h9v3h-9zM66 234h6v3h-6zM78 234h3v3h-3zM93 234h3v3h-3zM99 234h9v3h-9zM114 234h3v3h-3zM120 234h6v3h-6zM129 234h3v3h-3zM135 234h3v3h-3zM144 234h6v3h-6zM153 234h9v3h-9zM171 234h3v3h-3zM180 234h6v3h-6zM189 234h9v3h-9zM204 234h6v3h-6zM213 234h3v3h-3zM234 234h3v3h-3zM240 234h3v3h-3zM246 234h12v3h-12zM261 234h3v3h-3zM270 234h9v3h-9zM282 234h6v3h-6zM291 234h6v3h-6zM303 234h3v3h-3zM309 234h9v3h-9zM321 234h3v3h-3zM330 234h3v3h-3zM336 234h6v3h-6zM354 234h3v3h-3zM360 234h3v3h-3zM366 234h3v3h-3zM375 234h3v3h-3zM381 234h12v3h-12zM405 234h3v3h-3zM411 234h3v3h-3zM417 234h15v3h-15zM438 234h3v3h-3zM444 234h9v3h-9zM462 234h3v3h-3zM468 234h9v3h-9zM480 234h9v3h-9zM501 234h3v3h-3zM510 234h9v3h-9zM525 234h3v3h-3zM534 234h3v3h-3zM63 237h6v3h-6zM72 237h12v3h-12zM90 237h6v3h-6zM99 237h3v3h-3zM108 237h9v3h-9zM120 237h3v3h-3zM129 237h3v3h-3zM135 237h12v3h-12zM153 237h3v3h-3zM162 237h3v3h-3zM168 237h15v3h-15zM189 237h3v3h-3zM198 237h9v3h-9zM213 237h6v3h-6zM231 237h6v3h-6zM240 237h3v3h-3zM246 237h3v3h-3zM261 237h12v3h-12zM282 237h3v3h-3zM291 237h3v3h-3zM297 237h9v3h-9zM309 237h3v3h-3zM321 237h12v3h-12zM336 237h3v3h-3zM342 237h3v3h-3zM351 237h6v3h-6zM360 237h3v3h-3zM366 237h12v3h-12zM381 237h3v3h-3zM393 237h3v3h-3zM402 237h6v3h-6zM411 237h3v3h-3zM417 237h3v3h-3zM432 237h9v3h-9zM444 237h3v3h-3zM453 237h3v3h-3zM459 237h6v3h-6zM468 237h3v3h-3zM480 237h3v3h-3zM489 237h3v3h-3zM498 237h15v3h-15zM519 237h21v3h-21zM60 240h6v3h-6zM72 240h3v3h-3zM84 240h9v3h-9zM99 240h12v3h-12zM120 240h12v3h-12zM135 240h3v3h-3zM147 240h18v3h-18zM168 240h3v3h-3zM183 240h18v3h-18zM207 240h9v3h-9zM219 240h3v3h-3zM228 240h6v3h-6zM240 240h3v3h-3zM246 240h6v3h-6zM258 240h6v3h-6zM273 240h3v3h-3zM279 240h15v3h-15zM297 240h3v3h-3zM309 240h6v3h-6zM318 240h6v3h-6zM336 240h3v3h-3zM342 240h12v3h-12zM360 240h3v3h-3zM366 240h3v3h-3zM381 240h6v3h-6zM390 240h15v3h-15zM411 240h3v3h-3zM417 240h6v3h-6zM429 240h6v3h-6zM444 240h12v3h-12zM459 240h3v3h-3zM468 240h6v3h-6zM477 240h24v3h-24zM513 240h9v3h-9zM540 240h3v3h-3zM57 243h6v3h-6zM66 243h12v3h-12zM81 243h6v3h-6zM93 243h9v3h-9zM111 243h3v3h-3zM117 243h6v3h-6zM135 243h6v3h-6zM144 243h6v3h-6zM168 243h6v3h-6zM180 243h6v3h-6zM201 243h9v3h-9zM219 243h12v3h-12zM234 243h9v3h-9zM246 243h3v3h-3zM252 243h9v3h-9zM264 243h3v3h-3zM270 243h6v3h-6zM279 243h3v3h-3zM297 243h6v3h-6zM306 243h6v3h-6zM318 243h3v3h-3zM324 243h3v3h-3zM333 243h6v3h-6zM342 243h3v3h-3zM354 243h9v3h-9zM366 243h6v3h-6zM378 243h6v3h-6zM390 243h3v3h-3zM405 243h9v3h-9zM417 243h3v3h-3zM423 243h9v3h-9zM435 243h3v3h-3zM441 243h6v3h-6zM459 243h12v3h-12zM477 243h3v3h-3zM501 243h3v3h-3zM510 243h6v3h-6zM522 243h3v3h-3zM537 243h9v3h-9zM54 246h6v3h-6zM66 246h3v3h-3zM81 246h3v3h-3zM87 246h9v3h-9zM102 246h3v3h-3zM108 246h6v3h-6zM117 246h3v3h-3zM123 246h3v3h-3zM132 246h6v3h-6zM144 246h3v3h-3zM150 246h3v3h-3zM165 246h6v3h-6zM174 246h9v3h-9zM186 246h3v3h-3zM198 246h6v3h-6zM210 246h3v3h-3zM216 246h6v3h-6zM234 246h3v3h-3zM246 246h3v3h-3zM252 246h3v3h-3zM264 246h3v3h-3zM270 246h3v3h-3zM279 246h6v3h-6zM294 246h6v3h-6zM306 246h3v3h-3zM312 246h9v3h-9zM324 246h12v3h-12zM342 246h6v3h-6zM351 246h6v3h-6zM366 246h3v3h-3zM372 246h9v3h-9zM384 246h12v3h-12zM402 246h6v3h-6zM417 246h3v3h-3zM423 246h3v3h-3zM435 246h3v3h-3zM441 246h3v3h-3zM447 246h3v3h-3zM456 246h6v3h-6zM471 246h12v3h-12zM498 246h15v3h-15zM516 246h12v3h-12zM534 246h6v3h-6zM546 246h3v3h-3zM51 249h6v3h-6zM60 249h12v3h-12zM78 249h6v3h-6zM87 249h3v3h-3zM96 249h9v3h-9zM108 249h3v3h-3zM117 249h3v3h-3zM123 249h12v3h-12zM138 249h9v3h-9zM150 249h6v3h-6zM162 249h6v3h-6zM174 249h3v3h-3zM186 249h6v3h-6zM195 249h6v3h-6zM204 249h9v3h-9zM216 249h3v3h-3zM222 249h3v3h-3zM231 249h9v3h-9zM243 249h6v3h-6zM252 249h6v3h-6zM261 249h6v3h-6zM270 249h12v3h-12zM285 249h3v3h-3zM291 249h6v3h-6zM300 249h9v3h-9zM312 249h3v3h-3zM324 249h3v3h-3zM336 249h9v3h-9zM351 249h3v3h-3zM357 249h3v3h-3zM363 249h6v3h-6zM372 249h3v3h-3zM384 249h3v3h-3zM396 249h9v3h-9zM408 249h3v3h-3zM414 249h6v3h-6zM423 249h6v3h-6zM432 249h6v3h-6zM441 249h3v3h-3zM447 249h12v3h-12zM462 249h3v3h-3zM468 249h6v3h-6zM483 249h3v3h-3zM495 249h6v3h-6zM516 249h3v3h-3zM528 249h9v3h-9zM540 249h12v3h-12zM48 252h6v3h-6zM60 252h3v3h-3zM72 252h9v3h-9zM87 252h12v3h-12zM108 252h12v3h-12zM123 252h3v3h-3zM138 252h3v3h-3zM150 252h3v3h-3zM156 252h9v3h-9zM168 252h12v3h-12zM183 252h6v3h-6zM195 252h3v3h-3zM204 252h3v3h-3zM216 252h3v3h-3zM222 252h12v3h-12zM243 252h3v3h-3zM252 252h3v3h-3zM261 252h3v3h-3zM270 252h3v3h-3zM285 252h3v3h-3zM291 252h3v3h-3zM300 252h3v3h-3zM312 252h6v3h-6zM321 252h9v3h-9zM333 252h6v3h-6zM345 252h9v3h-9zM357 252h3v3h-3zM363 252h3v3h-3zM372 252h6v3h-6zM381 252h9v3h-9zM393 252h6v3h-6zM408 252h3v3h-3zM414 252h3v3h-3zM423 252h3v3h-3zM432 252h3v3h-3zM441 252h3v3h-3zM447 252h3v3h-3zM462 252h3v3h-3zM468 252h3v3h-3zM474 252h3v3h-3zM480 252h9v3h-9zM492 252h6v3h-6zM501 252h3v3h-3zM513 252h9v3h-9zM525 252h6v3h-6zM540 252h3v3h-3zM552 252h3v3h-3zM45 255h6v3h-6zM54 255h12v3h-12zM69 255h6v3h-6zM81 255h9v3h-9zM99 255h3v3h-3zM105 255h6v3h-6zM123 255h6v3h-6zM135 255h9v3h-9zM147 255h6v3h-6zM156 255h3v3h-3zM168 255h3v3h-3zM183 255h3v3h-3zM189 255h21v3h-21zM213 255h6v3h-6zM222 255h3v3h-3zM234 255h3v3h-3zM240 255h36v3h-36zM282 255h6v3h-6zM291 255h15v3h-15zM309 255h6v3h-6zM321 255h3v3h-3zM333 255h3v3h-3zM339 255h9v3h-9zM357 255h3v3h-3zM363 255h12v3h-12zM381 255h3v3h-3zM393 255h3v3h-3zM399 255h3v3h-3zM405 255h6v3h-6zM414 255h30v3h-30zM447 255h6v3h-6zM459 255h6v3h-6zM468 255h3v3h-3zM474 255h3v3h-3zM480 255h3v3h-3zM492 255h3v3h-3zM501 255h6v3h-6zM510 255h6v3h-6zM525 255h3v3h-3zM531 255h3v3h-3zM537 255h9v3h-9zM549 255h9v3h-9zM42 258h6v3h-6zM54 258h3v3h-3zM69 258h3v3h-3zM75 258h9v3h-9zM90 258h3v3h-3zM96 258h6v3h-6zM105 258h3v3h-3zM111 258h3v3h-3zM120 258h6v3h-6zM129 258h9v3h-9zM147 258h3v3h-3zM156 258h6v3h-6zM165 258h9v3h-9zM180 258h6v3h-6zM189 258h3v3h-3zM213 258h3v3h-3zM222 258h6v3h-6zM231 258h6v3h-6zM240 258h3v3h-3zM276 258h9v3h-9zM291 258h3v3h-3zM309 258h3v3h-3zM315 258h12v3h-12zM330 258h6v3h-6zM339 258h3v3h-3zM348 258h3v3h-3zM354 258h6v3h-6zM363 258h3v3h-3zM375 258h12v3h-12zM390 258h6v3h-6zM399 258h3v3h-3zM405 258h3v3h-3zM414 258h3v3h-3zM447 258h3v3h-3zM453 258h9v3h-9zM468 258h3v3h-3zM474 258h3v3h-3zM480 258h6v3h-6zM489 258h15v3h-15zM510 258h3v3h-3zM516 258h3v3h-3zM522 258h6v3h-6zM531 258h3v3h-3zM537 258h3v3h-3zM549 258h3v3h-3zM558 258h3v3h-3zM39 261h6v3h-6zM48 261h12v3h-12zM66 261h6v3h-6zM75 261h3v3h-3zM84 261h9v3h-9zM96 261h3v3h-3zM105 261h3v3h-3zM111 261h12v3h-12zM129 261h3v3h-3zM138 261h3v3h-3zM144 261h15v3h-15zM165 261h3v3h-3zM174 261h9v3h-9zM189 261h6v3h-6zM210 261h15v3h-15zM231 261h3v3h-3zM240 261h6v3h-6zM273 261h6v3h-6zM285 261h12v3h-12zM306 261h6v3h-6zM315 261h3v3h-3zM330 261h3v3h-3zM339 261h12v3h-12zM354 261h3v3h-3zM363 261h6v3h-6zM372 261h6v3h-6zM390 261h3v3h-3zM399 261h3v3h-3zM405 261h15v3h-15zM444 261h6v3h-6zM453 261h3v3h-3zM462 261h9v3h-9zM474 261h3v3h-3zM480 261h3v3h-3zM489 261h3v3h-3zM504 261h9v3h-9zM516 261h3v3h-3zM522 261h3v3h-3zM531 261h3v3h-3zM537 261h6v3h-6zM546 261h18v3h-18zM36 264h6v3h-6zM48 264h3v3h-3zM60 264h9v3h-9zM75 264h12v3h-12zM96 264h12v3h-12zM111 264h3v3h-3zM123 264h18v3h-18zM144 264h3v3h-3zM159 264h18v3h-18zM183 264h9v3h-9zM195 264h3v3h-3zM207 264h6v3h-6zM225 264h18v3h-18zM246 264h3v3h-3zM270 264h6v3h-6zM279 264h9v3h-9zM297 264h3v3h-3zM303 264h6v3h-6zM315 264h6v3h-6zM327 264h15v3h-15zM354 264h12v3h-12zM372 264h3v3h-3zM378 264h3v3h-3zM387 264h15v3h-15zM405 264h3v3h-3zM420 264h3v3h-3zM441 264h6v3h-6zM453 264h12v3h-12zM474 264h3v3h-3zM480 264h15v3h-15zM501 264h6v3h-6zM516 264h3v3h-3zM522 264h12v3h-12zM537 264h3v3h-3zM546 264h3v3h-3zM564 264h3v3h-3zM33 267h6v3h-6zM42 267h12v3h-12zM57 267h6v3h-6zM69 267h9v3h-9zM87 267h3v3h-3zM93 267h6v3h-6zM111 267h6v3h-6zM120 267h6v3h-6zM144 267h6v3h-6zM156 267h6v3h-6zM177 267h9v3h-9zM195 267h6v3h-6zM204 267h6v3h-6zM213 267h3v3h-3zM222 267h6v3h-6zM246 267h6v3h-6zM267 267h6v3h-6zM279 267h3v3h-3zM288 267h3v3h-3zM294 267h6v3h-6zM303 267h3v3h-3zM309 267h9v3h-9zM321 267h9v3h-9zM342 267h3v3h-3zM351 267h6v3h-6zM366 267h9v3h-9zM378 267h12v3h-12zM405 267h6v3h-6zM417 267h9v3h-9zM438 267h6v3h-6zM447 267h9v3h-9zM465 267h3v3h-3zM471 267h6v3h-6zM480 267h3v3h-3zM495 267h9v3h-9zM507 267h3v3h-3zM513 267h6v3h-6zM522 267h3v3h-3zM537 267h15v3h-15zM561 267h9v3h-9zM30 270h6v3h-6zM42 270h3v3h-3zM57 270h3v3h-3zM63 270h9v3h-9zM78 270h3v3h-3zM84 270h6v3h-6zM93 270h3v3h-3zM99 270h3v3h-3zM108 270h6v3h-6zM120 270h3v3h-3zM126 270h3v3h-3zM141 270h6v3h-6zM150 270h9v3h-9zM162 270h3v3h-3zM174 270h6v3h-6zM186 270h3v3h-3zM192 270h6v3h-6zM204 270h3v3h-3zM213 270h12v3h-12zM228 270h3v3h-3zM243 270h6v3h-6zM252 270h3v3h-3zM264 270h6v3h-6zM273 270h18v3h-18zM294 270h3v3h-3zM303 270h3v3h-3zM309 270h3v3h-3zM321 270h3v3h-3zM330 270h3v3h-3zM339 270h15v3h-15zM357 270h3v3h-3zM363 270h6v3h-6zM378 270h3v3h-3zM390 270h3v3h-3zM402 270h6v3h-6zM411 270h9v3h-9zM426 270h3v3h-3zM435 270h6v3h-6zM447 270h3v3h-3zM456 270h3v3h-3zM462 270h6v3h-6zM471 270h3v3h-3zM480 270h6v3h-6zM492 270h6v3h-6zM507 270h3v3h-3zM513 270h3v3h-3zM522 270h6v3h-6zM534 270h6v3h-6zM552 270h3v3h-3zM558 270h6v3h-6zM570 270h3v3h-3zM27 273h6v3h-6zM36 273h12v3h-12zM54 273h6v3h-6zM63 273h3v3h-3zM72 273h9v3h-9zM84 273h3v3h-3zM93 273h3v3h-3zM99 273h12v3h-12zM114 273h9v3h-9zM126 273h6v3h-6zM138 273h6v3h-6zM150 273h3v3h-3zM162 273h6v3h-6zM171 273h6v3h-6zM180 273h9v3h-9zM192 273h3v3h-3zM198 273h18v3h-18zM228 273h6v3h-6zM240 273h6v3h-6zM252 273h6v3h-6zM261 273h6v3h-6zM273 273h3v3h-3zM294 273h12v3h-12zM309 273h6v3h-6zM318 273h24v3h-24zM357 273h3v3h-3zM363 273h3v3h-3zM369 273h3v3h-3zM375 273h9v3h-9zM387 273h9v3h-9zM399 273h6v3h-6zM411 273h3v3h-3zM420 273h18v3h-18zM441 273h18v3h-18zM462 273h3v3h-3zM471 273h12v3h-12zM486 273h9v3h-9zM498 273h3v3h-3zM504 273h6v3h-6zM513 273h12v3h-12zM528 273h9v3h-9zM540 273h3v3h-3zM549 273h6v3h-6zM558 273h3v3h-3zM564 273h12v3h-12zM24 276h6v3h-6zM36 276h3v3h-3zM48 276h9v3h-9zM63 276h12v3h-12zM84 276h12v3h-12zM99 276h3v3h-3zM114 276h3v3h-3zM126 276h3v3h-3zM132 276h9v3h-9zM144 276h12v3h-12zM159 276h6v3h-6zM171 276h3v3h-3zM180 276h3v3h-3zM192 276h3v3h-3zM198 276h3v3h-3zM216 276h3v3h-3zM225 276h6v3h-6zM234 276h9v3h-9zM246 276h9v3h-9zM261 276h3v3h-3zM267 276h12v3h-12zM291 276h6v3h-6zM309 276h3v3h-3zM318 276h3v3h-3zM342 276h3v3h-3zM354 276h6v3h-6zM363 276h3v3h-3zM369 276h3v3h-3zM375 276h3v3h-3zM387 276h3v3h-3zM399 276h3v3h-3zM405 276h18v3h-18zM441 276h3v3h-3zM462 276h12v3h-12zM486 276h3v3h-3zM498 276h3v3h-3zM504 276h3v3h-3zM513 276h3v3h-3zM528 276h3v3h-3zM540 276h12v3h-12zM558 276h3v3h-3zM564 276h3v3h-3zM576 276h3v3h-3zM21 279h6v3h-6zM30 279h12v3h-12zM45 279h6v3h-6zM57 279h9v3h-9zM75 279h3v3h-3zM81 279h6v3h-6zM99 279h6v3h-6zM111 279h9v3h-9zM123 279h6v3h-6zM132 279h3v3h-3zM144 279h3v3h-3zM159 279h3v3h-3zM165 279h21v3h-21zM189 279h6v3h-6zM198 279h6v3h-6zM213 279h15v3h-15zM234 279h3v3h-3zM246 279h3v3h-3zM255 279h9v3h-9zM267 279h3v3h-3zM279 279h3v3h-3zM288 279h6v3h-6zM297 279h3v3h-3zM306 279h18v3h-18zM339 279h9v3h-9zM351 279h6v3h-6zM363 279h3v3h-3zM369 279h3v3h-3zM375 279h6v3h-6zM384 279h9v3h-9zM396 279h6v3h-6zM405 279h3v3h-3zM423 279h3v3h-3zM438 279h9v3h-9zM459 279h6v3h-6zM474 279h3v3h-3zM483 279h9v3h-9zM495 279h6v3h-6zM504 279h15v3h-15zM525 279h9v3h-9zM537 279h6v3h-6zM552 279h9v3h-9zM564 279h6v3h-6zM573 279h9v3h-9zM18 282h6v3h-6zM30 282h3v3h-3zM45 282h3v3h-3zM51 282h9v3h-9zM66 282h3v3h-3zM72 282h6v3h-6zM81 282h3v3h-3zM87 282h3v3h-3zM96 282h6v3h-6zM105 282h9v3h-9zM123 282h3v3h-3zM132 282h6v3h-6zM141 282h9v3h-9zM156 282h6v3h-6zM165 282h3v3h-3zM189 282h3v3h-3zM198 282h3v3h-3zM204 282h3v3h-3zM210 282h6v3h-6zM228 282h12v3h-12zM243 282h15v3h-15zM267 282h6v3h-6zM276 282h15v3h-15zM297 282h12v3h-12zM324 282h3v3h-3zM336 282h6v3h-6zM351 282h3v3h-3zM357 282h9v3h-9zM369 282h3v3h-3zM375 282h3v3h-3zM384 282h3v3h-3zM396 282h3v3h-3zM405 282h6v3h-6zM420 282h9v3h-9zM435 282h6v3h-6zM447 282h3v3h-3zM456 282h6v3h-6zM465 282h3v3h-3zM471 282h15v3h-15zM495 282h3v3h-3zM504 282h3v3h-3zM519 282h9v3h-9zM537 282h3v3h-3zM543 282h3v3h-3zM549 282h6v3h-6zM564 282h3v3h-3zM573 282h3v3h-3zM582 282h3v3h-3zM15 285h6v3h-6zM24 285h12v3h-12zM42 285h6v3h-6zM51 285h3v3h-3zM60 285h9v3h-9zM72 285h3v3h-3zM81 285h3v3h-3zM87 285h12v3h-12zM105 285h3v3h-3zM114 285h3v3h-3zM120 285h15v3h-15zM141 285h3v3h-3zM150 285h9v3h-9zM165 285h6v3h-6zM186 285h15v3h-15zM204 285h3v3h-3zM210 285h3v3h-3zM216 285h3v3h-3zM225 285h6v3h-6zM243 285h3v3h-3zM258 285h3v3h-3zM264 285h6v3h-6zM276 285h3v3h-3zM291 285h9v3h-9zM309 285h3v3h-3zM321 285h9v3h-9zM333 285h6v3h-6zM342 285h3v3h-3zM348 285h6v3h-6zM357 285h3v3h-3zM369 285h3v3h-3zM375 285h15v3h-15zM393 285h15v3h-15zM411 285h3v3h-3zM417 285h6v3h-6zM429 285h9v3h-9zM441 285h18v3h-18zM465 285h3v3h-3zM471 285h3v3h-3zM486 285h3v3h-3zM492 285h18v3h-18zM516 285h6v3h-6zM528 285h3v3h-3zM534 285h6v3h-6zM543 285h3v3h-3zM549 285h3v3h-3zM555 285h3v3h-3zM561 285h27v3h-27zM12 288h6v3h-6zM24 288h3v3h-3zM36 288h9v3h-9zM51 288h12v3h-12zM72 288h12v3h-12zM87 288h3v3h-3zM99 288h18v3h-18zM120 288h3v3h-3zM135 288h18v3h-18zM159 288h9v3h-9zM171 288h3v3h-3zM183 288h6v3h-6zM204 288h3v3h-3zM210 288h3v3h-3zM216 288h12v3h-12zM231 288h3v3h-3zM240 288h9v3h-9zM255 288h6v3h-6zM264 288h3v3h-3zM270 288h12v3h-12zM288 288h6v3h-6zM300 288h3v3h-3zM306 288h9v3h-9zM318 288h6v3h-6zM333 288h3v3h-3zM342 288h3v3h-3zM348 288h3v3h-3zM357 288h6v3h-6zM366 288h6v3h-6zM375 288h3v3h-3zM393 288h3v3h-3zM411 288h3v3h-3zM417 288h3v3h-3zM423 288h9v3h-9zM441 288h3v3h-3zM459 288h9v3h-9zM471 288h6v3h-6zM483 288h6v3h-6zM492 288h3v3h-3zM510 288h9v3h-9zM522 288h9v3h-9zM534 288h3v3h-3zM543 288h3v3h-3zM549 288h3v3h-3zM555 288h3v3h-3zM561 288h3v3h-3zM588 288h3v3h-3zM9 291h6v3h-6zM18 291h12v3h-12zM33 291h6v3h-6zM45 291h9v3h-9zM63 291h3v3h-3zM69 291h6v3h-6zM87 291h6v3h-6zM96 291h6v3h-6zM120 291h6v3h-6zM132 291h6v3h-6zM153 291h9v3h-9zM171 291h6v3h-6zM180 291h6v3h-6zM189 291h3v3h-3zM201 291h6v3h-6zM210 291h3v3h-3zM216 291h3v3h-3zM231 291h12v3h-12zM249 291h9v3h-9zM264 291h3v3h-3zM270 291h3v3h-3zM282 291h9v3h-9zM294 291h9v3h-9zM306 291h3v3h-3zM318 291h3v3h-3zM324 291h3v3h-3zM330 291h15v3h-15zM348 291h12v3h-12zM366 291h3v3h-3zM375 291h6v3h-6zM390 291h9v3h-9zM408 291h6v3h-6zM417 291h3v3h-3zM423 291h3v3h-3zM432 291h3v3h-3zM438 291h9v3h-9zM456 291h6v3h-6zM471 291h3v3h-3zM477 291h9v3h-9zM492 291h6v3h-6zM507 291h6v3h-6zM522 291h3v3h-3zM534 291h12v3h-12zM549 291h3v3h-3zM555 291h3v3h-3zM561 291h6v3h-6zM585 291h9v3h-9zM6 294h6v3h-6zM18 294h3v3h-3zM33 294h3v3h-3zM39 294h9v3h-9zM54 294h3v3h-3zM60 294h6v3h-6zM69 294h3v3h-3zM75 294h3v3h-3zM84 294h6v3h-6zM96 294h3v3h-3zM102 294h3v3h-3zM117 294h6v3h-6zM126 294h9v3h-9zM138 294h3v3h-3zM150 294h6v3h-6zM162 294h3v3h-3zM168 294h6v3h-6zM180 294h3v3h-3zM189 294h6v3h-6zM198 294h6v3h-6zM210 294h3v3h-3zM216 294h6v3h-6zM228 294h6v3h-6zM243 294h9v3h-9zM258 294h9v3h-9zM270 294h6v3h-6zM279 294h6v3h-6zM294 294h3v3h-3zM306 294h6v3h-6zM315 294h6v3h-6zM324 294h3v3h-3zM330 294h3v3h-3zM348 294h3v3h-3zM360 294h18v3h-18zM381 294h3v3h-3zM387 294h6v3h-6zM399 294h3v3h-3zM405 294h6v3h-6zM417 294h3v3h-3zM423 294h12v3h-12zM438 294h3v3h-3zM447 294h3v3h-3zM453 294h6v3h-6zM462 294h3v3h-3zM468 294h6v3h-6zM477 294h3v3h-3zM486 294h9v3h-9zM498 294h3v3h-3zM504 294h6v3h-6zM513 294h3v3h-3zM519 294h9v3h-9zM531 294h6v3h-6zM549 294h3v3h-3zM555 294h3v3h-3zM561 294h3v3h-3zM567 294h3v3h-3zM582 294h6v3h-6zM594 294h3v3h-3zM3 297h6v3h-6zM12 297h12v3h-12zM30 297h6v3h-6zM39 297h3v3h-3zM48 297h9v3h-9zM60 297h3v3h-3zM69 297h3v3h-3zM75 297h12v3h-12zM90 297h9v3h-9zM102 297h6v3h-6zM114 297h6v3h-6zM126 297h3v3h-3zM138 297h6v3h-6zM147 297h6v3h-6zM156 297h9v3h-9zM168 297h3v3h-3zM174 297h18v3h-18zM198 297h3v3h-3zM204 297h9v3h-9zM216 297h3v3h-3zM222 297h9v3h-9zM234 297h3v3h-3zM240 297h6v3h-6zM252 297h9v3h-9zM270 297h3v3h-3zM279 297h3v3h-3zM285 297h3v3h-3zM291 297h9v3h-9zM303 297h6v3h-6zM315 297h3v3h-3zM324 297h3v3h-3zM330 297h6v3h-6zM345 297h9v3h-9zM357 297h6v3h-6zM381 297h3v3h-3zM387 297h3v3h-3zM393 297h9v3h-9zM405 297h3v3h-3zM411 297h9v3h-9zM423 297h3v3h-3zM438 297h12v3h-12zM453 297h3v3h-3zM462 297h3v3h-3zM468 297h3v3h-3zM477 297h12v3h-12zM498 297h3v3h-3zM504 297h3v3h-3zM513 297h3v3h-3zM519 297h3v3h-3zM531 297h3v3h-3zM537 297h3v3h-3zM546 297h6v3h-6zM555 297h3v3h-3zM561 297h3v3h-3zM567 297h6v3h-6zM579 297h6v3h-6zM588 297h12v3h-12zM0 300h6v3h-6zM12 300h3v3h-3zM24 300h9v3h-9zM39 300h12v3h-12zM60 300h12v3h-12zM75 300h3v3h-3zM90 300h3v3h-3zM102 300h3v3h-3zM108 300h9v3h-9zM120 300h12v3h-12zM135 300h6v3h-6zM147 300h3v3h-3zM156 300h3v3h-3zM168 300h3v3h-3zM174 300h3v3h-3zM192 300h9v3h-9zM204 300h3v3h-3zM216 300h3v3h-3zM222 300h3v3h-3zM234 300h3v3h-3zM240 300h3v3h-3zM246 300h9v3h-9zM261 300h3v3h-3zM267 300h15v3h-15zM285 300h3v3h-3zM291 300h3v3h-3zM303 300h3v3h-3zM309 300h18v3h-18zM330 300h3v3h-3zM336 300h3v3h-3zM342 300h6v3h-6zM357 300h3v3h-3zM363 300h3v3h-3zM378 300h6v3h-6zM387 300h3v3h-3zM393 300h3v3h-3zM405 300h3v3h-3zM411 300h3v3h-3zM423 300h6v3h-6zM435 300h6v3h-6zM453 300h12v3h-12zM468 300h12v3h-12zM489 300h3v3h-3zM495 300h6v3h-6zM504 300h12v3h-12zM519 300h6v3h-6zM528 300h6v3h-6zM537 300h12v3h-12zM555 300h3v3h-3zM561 300h3v3h-3zM567 300h3v3h-3zM573 300h9v3h-9zM588 300h3v3h-3zM600 300h3v3h-3z"/></svg>