<svg xmlns="http://www.w3.org/2000/svg" width="508" height="256" viewBox="0 0 508 256" shape-rendering="crispEdges"><rect width="508" height="256" fill="#ffffff"/><path fill="#111111" d="M252 0h4v4h-4zM248 4h4v4h-4zM256 4h4v4h-4zM244 8h4v4h-4zM260 8h4v4h-4zM240 12h4v4h-4zM248 12h4v4h-4zM256 12h4v4h-4zM264 12h4v4h-4zM236 16h4v4h-4zM268 16h4v4h-4zM232 20h4v4h-4zM240 20h4v4h-4zM264 20h4v4h-4zM272 20h4v4h-4zM228 24h4v4h-4zM244 24h4v4h-4zM260 24h4v4h-4zM276 24h4v4h-4zM224 28h4v4h-4zM232 28h4v4h-4zM240 28h4v4h-4zM248 28h4v4h-4zM256 28h4v4h-4zM264 28h4v4h-4zM272 28h4v4h-4zM280 28h4v4h-4zM220 32h4v4h-4zM284 32h4v4h-4zM216 36h4v4h-4zM224 36h4v4h-4zM280 36h4v4h-4zM288 36h4v4h-4zM212 40h4v4h-4zM228 40h4v4h-4zM276 40h4v4h-4zM292 40h4v4h-4zM208 44h4v4h-4zM216 44h4v4h-4zM224 44h4v4h-4zM232 44h4v4h-4zM272 44h4v4h-4zM280 44h4v4h-4zM288 44h4v4h-4zM296 44h4v4h-4zM204 48h4v4h-4zM236 48h4v4h-4zM268 48h4v4h-4zM300 48h4v4h-4zM200 52h4v4h-4zM208 52h4v4h-4zM232 52h4v4h-4zM240 52h4v4h-4zM264 52h4v4h-4zM272 52h4v4h-4zM296 52h4v4h-4zM304 52h4v4h-4zM196 56h4v4h-4zM212 56h4v4h-4zM228 56h4v4h-4zM244 56h4v4h-4zM260 56h4v4h-4zM276 56h4v4h-4zM292 56h4v4h-4zM308 56h4v4h-4zM192 60h4v4h-4zM200 60h4v4h-4zM208 60h4v4h-4zM216 60h4v4h-4zM224 60h4v4h-4zM232 60h4v4h-4zM240 60h4v4h-4zM248 60h4v4h-4zM256 60h4v4h-4zM264 60h4v4h-4zM272 60h4v4h-4zM280 60h4v4h-4zM288 60h4v4h-4zM296 60h4v4h-4zM304 60h4v4h-4zM312 60h4v4h-4zM188 64h4v4h-4zM316 64h4v4h-4zM184 68h4v4h-4zM192 68h4v4h-4zM312 68h4v4h-4zM320 68h4v4h-4zM180 72h4v4h-4zM196 72h4v4h-4zM308 72h4v4h-4zM324 72h4v4h-4zM176 76h4v4h-4zM184 76h4v4h-4zM192 76h4v4h-4zM200 76h4v4h-4zM304 76h4v4h-4zM312 76h4v4h-4zM320 76h4v4h-4zM328 76h4v4h-4zM172 80h4v4h-4zM204 80h4v4h-4zM300 80h4v4h-4zM332 80h4v4h-4zM168 84h4v4h-4zM176 84h4v4h-4zM200 84h4v4h-4zM208 84h4v4h-4zM296 84h4v4h-4zM304 84h4v4h-4zM328 84h4v4h-4zM336 84h4v4h-4zM164 88h4v4h-4zM180 88h4v4h-4zM196 88h4v4h-4zM212 88h4v4h-4zM292 88h4v4h-4zM308 88h4v4h-4zM324 88h4v4h-4zM340 88h4v4h-4zM160 92h4v4h-4zM168 92h4v4h-4zM176 92h4v4h-4zM184 92h4v4h-4zM192 92h4v4h-4zM200 92h4v4h-4zM208 92h4v4h-4zM216 92h4v4h-4zM288 92h4v4h-4zM296 92h4v4h-4zM304 92h4v4h-4zM312 92h4v4h-4zM320 92h4v4h-4zM328 92h4v4h-4zM336 92h4v4h-4zM344 92h4v4h-4zM156 96h4v4h-4zM220 96h4v4h-4zM284 96h4v4h-4zM348 96h4v4h-4zM152 100h4v4h-4zM160 100h4v4h-4zM216 100h4v4h-4zM224 100h4v4h-4zM280 100h4v4h-4zM288 100h4v4h-4zM344 100h4v4h-4zM352 100h4v4h-4zM148 104h4v4h-4zM164 104h4v4h-4zM212 104h4v4h-4zM228 104h4v4h-4zM276 104h4v4h-4zM292 104h4v4h-4zM340 104h4v4h-4zM356 104h4v4h-4zM144 108h4v4h-4zM152 108h4v4h-4zM160 108h4v4h-4zM168 108h4v4h-4zM208 108h4v4h-4zM216 108h4v4h-4zM224 108h4v4h-4zM232 108h4v4h-4zM272 108h4v4h-4zM280 108h4v4h-4zM288 108h4v4h-4zM296 108h4v4h-4zM336 108h4v4h-4zM344 108h4v4h-4zM352 108h4v4h-4zM360 108h4v4h-4zM140 112h4v4h-4zM172 112h4v4h-4zM204 112h4v4h-4zM236 112h4v4h-4zM268 112h4v4h-4zM300 112h4v4h-4zM332 112h4v4h-4zM364 112h4v4h-4zM136 116h4v4h-4zM144 116h4v4h-4zM168 116h4v4h-4zM176 116h4v4h-4zM200 116h4v4h-4zM208 116h4v4h-4zM232 116h4v4h-4zM240 116h4v4h-4zM264 116h4v4h-4zM272 116h4v4h-4zM296 116h4v4h-4zM304 116h4v4h-4zM328 116h4v4h-4zM336 116h4v4h-4zM360 116h4v4h-4zM368 116h4v4h-4zM132 120h4v4h-4zM148 120h4v4h-4zM164 120h4v4h-4zM180 120h4v4h-4zM196 120h4v4h-4zM212 120h4v4h-4zM228 120h4v4h-4zM244 120h4v4h-4zM260 120h4v4h-4zM276 120h4v4h-4zM292 120h4v4h-4zM308 120h4v4h-4zM324 120h4v4h-4zM340 120h4v4h-4zM356 120h4v4h-4zM372 120h4v4h-4zM128 124h4v4h-4zM136 124h4v4h-4zM144 124h4v4h-4zM152 124h4v4h-4zM160 124h4v4h-4zM168 124h4v4h-4zM176 124h4v4h-4zM184 124h4v4h-4zM192 124h4v4h-4zM200 124h4v4h-4zM208 124h4v4h-4zM216 124h4v4h-4zM224 124h4v4h-4zM232 124h4v4h-4zM240 124h4v4h-4zM248 124h4v4h-4zM256 124h4v4h-4zM264 124h4v4h-4zM272 124h4v4h-4zM280 124h4v4h-4zM288 124h4v4h-4zM296 124h4v4h-4zM304 124h4v4h-4zM312 124h4v4h-4zM320 124h4v4h-4zM328 124h4v4h-4zM336 124h4v4h-4zM344 124h4v4h-4zM352 124h4v4h-4zM360 124h4v4h-4zM368 124h4v4h-4zM376 124h4v4h-4zM124 128h4v4h-4zM380 128h4v4h-4zM120 132h4v4h-4zM128 132h4v4h-4zM376 132h4v4h-4zM384 132h4v4h-4zM116 136h4v4h-4zM132 136h4v4h-4zM372 136h4v4h-4zM388 136h4v4h-4zM112 140h4v4h-4zM120 140h4v4h-4zM128 140h4v4h-4zM136 140h4v4h-4zM368 140h4v4h-4zM376 140h4v4h-4zM384 140h4v4h-4zM392 140h4v4h-4zM108 144h4v4h-4zM140 144h4v4h-4zM364 144h4v4h-4zM396 144h4v4h-4zM104 148h4v4h-4zM112 148h4v4h-4zM136 148h4v4h-4zM144 148h4v4h-4zM360 148h4v4h-4zM368 148h4v4h-4zM392 148h4v4h-4zM400 148h4v4h-4zM100 152h4v4h-4zM116 152h4v4h-4zM132 152h4v4h-4zM148 152h4v4h-4zM356 152h4v4h-4zM372 152h4v4h-4zM388 152h4v4h-4zM404 152h4v4h-4zM96 156h4v4h-4zM104 156h4v4h-4zM112 156h4v4h-4zM120 156h4v4h-4zM128 156h4v4h-4zM136 156h4v4h-4zM144 156h4v4h-4zM152 156h4v4h-4zM352 156h4v4h-4zM360 156h4v4h-4zM368 156h4v4h-4zM376 156h4v4h-4zM384 156h4v4h-4zM392 156h4v4h-4zM400 156h4v4h-4zM408 156h4v4h-4zM92 160h4v4h-4zM156 160h4v4h-4zM348 160h4v4h-4zM412 160h4v4h-4zM88 164h4v4h-4zM96 164h4v4h-4zM152 164h4v4h-4zM160 164h4v4h-4zM344 164h4v4h-4zM352 164h4v4h-4zM408 164h4v4h-4zM416 164h4v4h-4zM84 168h4v4h-4zM100 168h4v4h-4zM148 168h4v4h-4zM164 168h4v4h-4zM340 168h4v4h-4zM356 168h4v4h-4zM404 168h4v4h-4zM420 168h4v4h-4zM80 172h4v4h-4zM88 172h4v4h-4zM96 172h4v4h-4zM104 172h4v4h-4zM144 172h4v4h-4zM152 172h4v4h-4zM160 172h4v4h-4zM168 172h4v4h-4zM336 172h4v4h-4zM344 172h4v4h-4zM352 172h4v4h-4zM360 172h4v4h-4zM400 172h4v4h-4zM408 172h4v4h-4zM416 172h4v4h-4zM424 172h4v4h-4zM76 176h4v4h-4zM108 176h4v4h-4zM140 176h4v4h-4zM172 176h4v4h-4zM332 176h4v4h-4zM364 176h4v4h-4zM396 176h4v4h-4zM428 176h4v4h-4zM72 180h4v4h-4zM80 180h4v4h-4zM104 180h4v4h-4zM112 180h4v4h-4zM136 180h4v4h-4zM144 180h4v4h-4zM168 180h4v4h-4zM176 180h4v4h-4zM328 180h4v4h-4zM336 180h4v4h-4zM360 180h4v4h-4zM368 180h4v4h-4zM392 180h4v4h-4zM400 180h4v4h-4zM424 180h4v4h-4zM432 180h4v4h-4zM68 184h4v4h-4zM84 184h4v4h-4zM100 184h4v4h-4zM116 184h4v4h-4zM132 184h4v4h-4zM148 184h4v4h-4zM164 184h4v4h-4zM180 184h4v4h-4zM324 184h4v4h-4zM340 184h4v4h-4zM356 184h4v4h-4zM372 184h4v4h-4zM388 184h4v4h-4zM404 184h4v4h-4zM420 184h4v4h-4zM436 184h4v4h-4zM64 188h4v4h-4zM72 188h4v4h-4zM80 188h4v4h-4zM88 188h4v4h-4zM96 188h4v4h-4zM104 188h4v4h-4zM112 188h4v4h-4zM120 188h4v4h-4zM128 188h4v4h-4zM136 188h4v4h-4zM144 188h4v4h-4zM152 188h4v4h-4zM160 188h4v4h-4zM168 188h4v4h-4zM176 188h4v4h-4zM184 188h4v4h-4zM320 188h4v4h-4zM328 188h4v4h-4zM336 188h4v4h-4zM344 188h4v4h-4zM352 188h4v4h-4zM360 188h4v4h-4zM368 188h4v4h-4zM376 188h4v4h-4zM384 188h4v4h-4zM392 188h4v4h-4zM400 188h4v4h-4zM408 188h4v4h-4zM416 188h4v4h-4zM424 188h4v4h-4zM432 188h4v4h-4zM440 188h4v4h-4zM60 192h4v4h-4zM188 192h4v4h-4zM316 192h4v4h-4zM444 192h4v4h-4zM56 196h4v4h-4zM64 196h4v4h-4zM184 196h4v4h-4zM192 196h4v4h-4zM312 196h4v4h-4zM320 196h4v4h-4zM440 196h4v4h-4zM448 196h4v4h-4zM52 200h4v4h-4zM68 200h4v4h-4zM180 200h4v4h-4zM196 200h4v4h-4zM308 200h4v4h-4zM324 200h4v4h-4zM436 200h4v4h-4zM452 200h4v4h-4zM48 204h4v4h-4zM56 204h4v4h-4zM64 204h4v4h-4zM72 204h4v4h-4zM176 204h4v4h-4zM184 204h4v4h-4zM192 204h4v4h-4zM200 204h4v4h-4zM304 204h4v4h-4zM312 204h4v4h-4zM320 204h4v4h-4zM328 204h4v4h-4zM432 204h4v4h-4zM440 204h4v4h-4zM448 204h4v4h-4zM456 204h4v4h-4zM44 208h4v4h-4zM76 208h4v4h-4zM172 208h4v4h-4zM204 208h4v4h-4zM300 208h4v4h-4zM332 208h4v4h-4zM428 208h4v4h-4zM460 208h4v4h-4zM40 212h4v4h-4zM48 212h4v4h-4zM72 212h4v4h-4zM80 212h4v4h-4zM168 212h4v4h-4zM176 212h4v4h-4zM200 212h4v4h-4zM208 212h4v4h-4zM296 212h4v4h-4zM304 212h4v4h-4zM328 212h4v4h-4zM336 212h4v4h-4zM424 212h4v4h-4zM432 212h4v4h-4zM456 212h4v4h-4zM464 212h4v4h-4zM36 216h4v4h-4zM52 216h4v4h-4zM68 216h4v4h-4zM84 216h4v4h-4zM164 216h4v4h-4zM180 216h4v4h-4zM196 216h4v4h-4zM212 216h4v4h-4zM292 216h4v4h-4zM308 216h4v4h-4zM324 216h4v4h-4zM340 216h4v4h-4zM420 216h4v4h-4zM436 216h4v4h-4zM452 216h4v4h-4zM468 216h4v4h-4zM32 220h4v4h-4zM40 220h4v4h-4zM48 220h4v4h-4zM56 220h4v4h-4zM64 220h4v4h-4zM72 220h4v4h-4zM80 220h4v4h-4zM88 220h4v4h-4zM160 220h4v4h-4zM168 220h4v4h-4zM176 220h4v4h-4zM184 220h4v4h-4zM192 220h4v4h-4zM200 220h4v4h-4zM208 220h4v4h-4zM216 220h4v4h-4zM288 220h4v4h-4zM296 220h4v4h-4zM304 220h4v4h-4zM312 220h4v4h-4zM320 220h4v4h-4zM328 220h4v4h-4zM336 220h4v4h-4zM344 220h4v4h-4zM416 220h4v4h-4zM424 220h4v4h-4zM432 220h4v4h-4zM440 220h4v4h-4zM448 220h4v4h-4zM456 220h4v4h-4zM464 220h4v4h-4zM472 220h4v4h-4zM28 224h4v4h-4zM92 224h4v4h-4zM156 224h4v4h-4zM220 224h4v4h-4zM284 224h4v4h-4zM348 224h4v4h-4zM412 224h4v4h-4zM476 224h4v4h-4zM24 228h4v4h-4zM32 228h4v4h-4zM88 228h4v4h-4zM96 228h4v4h-4zM152 228h4v4h-4zM160 228h4v4h-4zM216 228h4v4h-4zM224 228h4v4h-4zM280 228h4v4h-4zM288 228h4v4h-4zM344 228h4v4h-4zM352 228h4v4h-4zM408 228h4v4h-4zM416 228h4v4h-4zM472 228h4v4h-4zM480 228h4v4h-4zM20 232h4v4h-4zM36 232h4v4h-4zM84 232h4v4h-4zM100 232h4v4h-4zM148 232h4v4h-4zM164 232h4v4h-4zM212 232h4v4h-4zM228 232h4v4h-4zM276 232h4v4h-4zM292 232h4v4h-4zM340 232h4v4h-4zM356 232h4v4h-4zM404 232h4v4h-4zM420 232h4v4h-4zM468 232h4v4h-4zM484 232h4v4h-4zM16 236h4v4h-4zM24 236h4v4h-4zM32 236h4v4h-4zM40 236h4v4h-4zM80 236h4v4h-4zM88 236h4v4h-4zM96 236h4v4h-4zM104 236h4v4h-4zM144 236h4v4h-4zM152 236h4v4h-4zM160 236h4v4h-4zM168 236h4v4h-4zM208 236h4v4h-4zM216 236h4v4h-4zM224 236h4v4h-4zM232 236h4v4h-4zM272 236h4v4h-4zM280 236h4v4h-4zM288 236h4v4h-4zM296 236h4v4h-4zM336 236h4v4h-4zM344 236h4v4h-4zM352 236h4v4h-4zM360 236h4v4h-4zM400 236h4v4h-4zM408 236h4v4h-4zM416 236h4v4h-4zM424 236h4v4h-4zM464 236h4v4h-4zM472 236h4v4h-4zM480 236h4v4h-4zM488 236h4v4h-4zM12 240h4v4h-4zM44 240h4v4h-4zM76 240h4v4h-4zM108 240h4v4h-4zM140 240h4v4h-4zM172 240h4v4h-4zM204 240h4v4h-4zM236 240h4v4h-4zM268 240h4v4h-4zM300 240h4v4h-4zM332 240h4v4h-4zM364 240h4v4h-4zM396 240h4v4h-4zM428 240h4v4h-4zM460 240h4v4h-4zM492 240h4v4h-4zM8 244h4v4h-4zM16 244h4v4h-4zM40 244h4v4h-4zM48 244h4v4h-4zM72 244h4v4h-4zM80 244h4v4h-4zM104 244h4v4h-4zM112 244h4v4h-4zM136 244h4v4h-4zM144 244h4v4h-4zM168 244h4v4h-4zM176 244h4v4h-4zM200 244h4v4h-4zM208 244h4v4h-4zM232 244h4v4h-4zM240 244h4v4h-4zM264 244h4v4h-4zM272 244h4v4h-4zM296 244h4v4h-4zM304 244h4v4h-4zM328 244h4v4h-4zM336 244h4v4h-4zM360 244h4v4h-4zM368 244h4v4h-4zM392 244h4v4h-4zM400 244h4v4h-4zM424 244h4v4h-4zM432 244h4v4h-4zM456 244h4v4h-4zM464 244h4v4h-4zM488 244h4v4h-4zM496 244h4v4h-4zM4 248h4v4h-4zM20 248h4v4h-4zM36 248h4v4h-4zM52 248h4v4h-4zM68 248h4v4h-4zM84 248h4v4h-4zM100 248h4v4h-4zM116 248h4v4h-4zM132 248h4v4h-4zM148 248h4v4h-4zM164 248h4v4h-4zM180 248h4v4h-4zM196 248h4v4h-4zM212 248h4v4h-4zM228 248h4v4h-4zM244 248h4v4h-4zM260 248h4v4h-4zM276 248h4v4h-4zM292 248h4v4h-4zM308 248h4v4h-4zM324 248h4v4h-4zM340 248h4v4h-4zM356 248h4v4h-4zM372 248h4v4h-4zM388 248h4v4h-4zM404 248h4v4h-4zM420 248h4v4h-4zM436 248h4v4h-4zM452 248h4v4h-4zM468 248h4v4h-4zM484 248h4v4h-4zM500 248h4v4h-4zM0 252h4v4h-4zM8 252h4v4h-4zM16 252h4v4h-4zM24 252h4v4h-4zM32 252h4v4h-4zM40 252h4v4h-4zM48 252h4v4h-4zM56 252h4v4h-4zM64 252h4v4h-4zM72 252h4v4h-4zM80 252h4v4h-4zM88 252h4v4h-4zM96 252h4v4h-4zM104 252h4v4h-4zM112 252h4v4h-4zM120 252h4v4h-4zM128 252h4v4h-4zM136 252h4v4h-4zM144 252h4v4h-4zM152 252h4v4h-4zM160 252h4v4h-4zM168 252h4v4h-4zM176 252h4v4h-4zM184 252h4v4h-4zM192 252h4v4h-4zM200 252h4v4h-4zM208 252h4v4h-4zM216 252h4v4h-4zM224 252h4v4h-4zM232 252h4v4h-4zM240 252h4v4h-4zM248 252h4v4h-4zM256 252h4v4h-4zM264 252h4v4h-4zM272 252h4v4h-4zM280 252h4v4h-4zM288 252h4v4h-4zM296 252h4v4h-4zM304 252h4v4h-4zM312 252h4v4h-4zM320 252h4v4h-4zM328 252h4v4h-4zM336 252h4v4h-4zM344 252h4v4h-4zM352 252h4v4h-4zM360 252h4v4h-4zM368 252h4v4h-4zM376 252h4v4h-4zM384 252h4v4h-4zM392 252h4v4h-4zM400 252h4v4h-4zM408 252h4v4h-4zM416 252h4v4h-4zM424 252h4v4h-4zM432 252h4v4h-4zM440 252h4v4h-4zM448 252h4v4h-4zM456 252h4v4h-4zM464 252h4v4h-4zM472 252h4v4h-4zM480 252h4v4h-4zM488 252h4v4h-4zM496 252h4v4h-4zM504 252h4v4h-4z"/></svg>