<svg xmlns="http://www.w3.org/2000/svg" width="576" height="384" viewBox="0 0 576 384" shape-rendering="crispEdges"><rect width="576" height="384" fill="#ffffff"/><path fill="#48cae4" d="M8 0h8v8h-8zM152 0h8v8h-8zM176 0h8v8h-8zM200 0h8v8h-8zM272 0h8v8h-8zM368 0h8v8h-8zM440 0h8v8h-8zM560 0h8v8h-8zM0 8h16v8h-16zM32 8h152v8h-152zM200 8h152v8h-152zM368 8h8v8h-8zM416 8h32v8h-32zM464 8h80v8h-80zM560 8h16v8h-16zM8 16h8v8h-8zM32 16h8v8h-8zM176 16h8v8h-8zM224 16h8v8h-8zM248 16h8v8h-8zM296 16h8v8h-8zM344 16h8v8h-8zM368 16h8v8h-8zM416 16h8v8h-8zM440 16h8v8h-8zM464 16h8v8h-8zM512 16h8v8h-8zM536 16h8v8h-8zM8 24h8v8h-8zM32 24h8v8h-8zM176 24h8v8h-8zM224 24h8v8h-8zM248 24h8v8h-8zM296 24h8v8h-8zM344 24h8v8h-8zM368 24h8v8h-8zM416 24h8v8h-8zM440 24h8v8h-8zM464 24h8v8h-8zM512 24h8v8h-8zM536 24h8v8h-8zM0 32h16v8h-16zM32 32h32v8h-32zM176 32h8v8h-8zM224 32h56v8h-56zM296 32h8v8h-8zM320 32h80v8h-80zM416 32h56v8h-56zM512 32h32v8h-32zM8 40h8v8h-8zM56 40h8v8h-8zM176 40h8v8h-8zM272 40h8v8h-8zM296 40h8v8h-8zM320 40h8v8h-8zM392 40h8v8h-8zM512 40h8v8h-8zM8 48h8v8h-8zM56 48h8v8h-8zM176 48h8v8h-8zM272 48h8v8h-8zM296 48h8v8h-8zM320 48h8v8h-8zM392 48h8v8h-8zM512 48h8v8h-8zM0 56h16v8h-16zM56 56h32v8h-32zM176 56h104v8h-104zM296 56h32v8h-32zM368 56h32v8h-32zM440 56h80v8h-80zM560 56h16v8h-16zM56 64h8v8h-8zM80 64h8v8h-8zM176 64h8v8h-8zM200 64h8v8h-8zM272 64h8v8h-8zM296 64h8v8h-8zM368 64h8v8h-8zM440 64h8v8h-8zM512 64h8v8h-8zM560 64h8v8h-8zM56 72h8v8h-8zM80 72h8v8h-8zM176 72h8v8h-8zM200 72h8v8h-8zM272 72h8v8h-8zM296 72h8v8h-8zM368 72h8v8h-8zM440 72h8v8h-8zM512 72h8v8h-8zM560 72h8v8h-8zM8 80h32v8h-32zM56 80h8v8h-8zM80 80h8v8h-8zM104 80h32v8h-32zM176 80h32v8h-32zM272 80h32v8h-32zM320 80h56v8h-56zM416 80h80v8h-80zM512 80h64v8h-64zM8 88h8v8h-8zM32 88h8v8h-8zM56 88h8v8h-8zM80 88h8v8h-8zM104 88h8v8h-8zM128 88h8v8h-8zM176 88h8v8h-8zM272 88h8v8h-8zM320 88h8v8h-8zM344 88h8v8h-8zM368 88h8v8h-8zM416 88h8v8h-8zM488 88h8v8h-8zM8 96h8v8h-8zM32 96h8v8h-8zM56 96h8v8h-8zM80 96h8v8h-8zM104 96h8v8h-8zM128 96h8v8h-8zM176 96h8v8h-8zM272 96h8v8h-8zM320 96h8v8h-8zM344 96h8v8h-8zM368 96h8v8h-8zM416 96h8v8h-8zM488 96h8v8h-8zM0 104h88v8h-88zM104 104h56v8h-56zM176 104h56v8h-56zM272 104h32v8h-32zM320 104h8v8h-8zM344 104h32v8h-32zM416 104h56v8h-56zM488 104h88v8h-88zM80 112h8v8h-8zM152 112h8v8h-8zM176 112h8v8h-8zM200 112h8v8h-8zM224 112h8v8h-8zM272 112h8v8h-8zM296 112h8v8h-8zM320 112h8v8h-8zM416 112h8v8h-8zM464 112h8v8h-8zM488 112h8v8h-8zM80 120h8v8h-8zM152 120h8v8h-8zM176 120h8v8h-8zM200 120h8v8h-8zM224 120h8v8h-8zM272 120h8v8h-8zM296 120h8v8h-8zM320 120h8v8h-8zM416 120h8v8h-8zM464 120h8v8h-8zM488 120h8v8h-8zM0 128h88v8h-88zM128 128h32v8h-32zM176 128h8v8h-8zM200 128h128v8h-128zM368 128h32v8h-32zM416 128h32v8h-32zM464 128h8v8h-8zM488 128h8v8h-8zM512 128h64v8h-64zM32 136h8v8h-8zM56 136h8v8h-8zM128 136h8v8h-8zM176 136h8v8h-8zM200 136h8v8h-8zM248 136h8v8h-8zM296 136h8v8h-8zM320 136h8v8h-8zM368 136h8v8h-8zM392 136h8v8h-8zM440 136h8v8h-8zM464 136h8v8h-8zM488 136h8v8h-8zM512 136h8v8h-8zM536 136h8v8h-8zM560 136h8v8h-8zM32 144h8v8h-8zM56 144h8v8h-8zM128 144h8v8h-8zM176 144h8v8h-8zM200 144h8v8h-8zM248 144h8v8h-8zM296 144h8v8h-8zM320 144h8v8h-8zM368 144h8v8h-8zM392 144h8v8h-8zM440 144h8v8h-8zM464 144h8v8h-8zM488 144h8v8h-8zM512 144h8v8h-8zM536 144h8v8h-8zM560 144h8v8h-8zM32 152h32v8h-32zM128 152h8v8h-8zM152 152h56v8h-56zM248 152h8v8h-8zM296 152h8v8h-8zM320 152h152v8h-152zM488 152h56v8h-56zM560 152h16v8h-16zM128 160h8v8h-8zM152 160h8v8h-8zM176 160h8v8h-8zM248 160h8v8h-8zM296 160h8v8h-8zM344 160h8v8h-8zM392 160h8v8h-8zM440 160h8v8h-8zM464 160h8v8h-8zM512 160h8v8h-8zM128 168h8v8h-8zM152 168h8v8h-8zM176 168h8v8h-8zM248 168h8v8h-8zM296 168h8v8h-8zM344 168h8v8h-8zM392 168h8v8h-8zM440 168h8v8h-8zM464 168h8v8h-8zM512 168h8v8h-8zM0 176h16v8h-16zM80 176h32v8h-32zM128 176h8v8h-8zM152 176h56v8h-56zM248 176h56v8h-56zM344 176h8v8h-8zM368 176h32v8h-32zM440 176h8v8h-8zM464 176h8v8h-8zM512 176h64v8h-64zM8 184h8v8h-8zM80 184h8v8h-8zM104 184h8v8h-8zM128 184h8v8h-8zM200 184h8v8h-8zM248 184h8v8h-8zM296 184h8v8h-8zM344 184h8v8h-8zM368 184h8v8h-8zM392 184h8v8h-8zM440 184h8v8h-8zM464 184h8v8h-8zM8 192h8v8h-8zM80 192h8v8h-8zM104 192h8v8h-8zM128 192h8v8h-8zM200 192h8v8h-8zM248 192h8v8h-8zM296 192h8v8h-8zM344 192h8v8h-8zM368 192h8v8h-8zM392 192h8v8h-8zM440 192h8v8h-8zM464 192h8v8h-8zM0 200h16v8h-16zM32 200h104v8h-104zM176 200h32v8h-32zM224 200h80v8h-80zM320 200h56v8h-56zM392 200h56v8h-56zM464 200h32v8h-32zM512 200h32v8h-32zM32 208h8v8h-8zM128 208h8v8h-8zM176 208h8v8h-8zM200 208h8v8h-8zM224 208h8v8h-8zM296 208h8v8h-8zM320 208h8v8h-8zM440 208h8v8h-8zM464 208h8v8h-8zM488 208h8v8h-8zM512 208h8v8h-8zM536 208h8v8h-8zM32 216h8v8h-8zM128 216h8v8h-8zM176 216h8v8h-8zM200 216h8v8h-8zM224 216h8v8h-8zM296 216h8v8h-8zM320 216h8v8h-8zM440 216h8v8h-8zM464 216h8v8h-8zM488 216h8v8h-8zM512 216h8v8h-8zM536 216h8v8h-8zM32 224h32v8h-32zM128 224h56v8h-56zM200 224h32v8h-32zM248 224h32v8h-32zM296 224h32v8h-32zM344 224h32v8h-32zM392 224h128v8h-128zM536 224h8v8h-8zM560 224h16v8h-16zM32 232h8v8h-8zM56 232h8v8h-8zM128 232h8v8h-8zM176 232h8v8h-8zM248 232h8v8h-8zM272 232h8v8h-8zM296 232h8v8h-8zM320 232h8v8h-8zM344 232h8v8h-8zM368 232h8v8h-8zM392 232h8v8h-8zM440 232h8v8h-8zM488 232h8v8h-8zM512 232h8v8h-8zM536 232h8v8h-8zM560 232h8v8h-8zM32 240h8v8h-8zM56 240h8v8h-8zM128 240h8v8h-8zM176 240h8v8h-8zM248 240h8v8h-8zM272 240h8v8h-8zM296 240h8v8h-8zM320 240h8v8h-8zM344 240h8v8h-8zM368 240h8v8h-8zM392 240h8v8h-8zM440 240h8v8h-8zM488 240h8v8h-8zM512 240h8v8h-8zM536 240h8v8h-8zM560 240h8v8h-8zM32 248h32v8h-32zM128 248h8v8h-8zM176 248h104v8h-104zM296 248h32v8h-32zM344 248h56v8h-56zM416 248h32v8h-32zM464 248h32v8h-32zM512 248h8v8h-8zM536 248h32v8h-32zM32 256h8v8h-8zM128 256h8v8h-8zM200 256h8v8h-8zM296 256h8v8h-8zM320 256h8v8h-8zM392 256h8v8h-8zM416 256h8v8h-8zM464 256h8v8h-8zM512 256h8v8h-8zM32 264h8v8h-8zM128 264h8v8h-8zM200 264h8v8h-8zM296 264h8v8h-8zM320 264h8v8h-8zM392 264h8v8h-8zM416 264h8v8h-8zM464 264h8v8h-8zM512 264h8v8h-8zM0 272h40v8h-40zM128 272h8v8h-8zM176 272h80v8h-80zM272 272h56v8h-56zM344 272h80v8h-80zM440 272h32v8h-32zM488 272h32v8h-32zM128 280h8v8h-8zM176 280h8v8h-8zM200 280h8v8h-8zM224 280h8v8h-8zM248 280h8v8h-8zM272 280h8v8h-8zM296 280h8v8h-8zM320 280h8v8h-8zM344 280h8v8h-8zM368 280h8v8h-8zM416 280h8v8h-8zM440 280h8v8h-8zM488 280h8v8h-8zM128 288h8v8h-8zM176 288h8v8h-8zM200 288h8v8h-8zM224 288h8v8h-8zM248 288h8v8h-8zM272 288h8v8h-8zM296 288h8v8h-8zM320 288h8v8h-8zM344 288h8v8h-8zM368 288h8v8h-8zM416 288h8v8h-8zM440 288h8v8h-8zM488 288h8v8h-8zM0 296h16v8h-16zM32 296h104v8h-104zM152 296h56v8h-56zM224 296h32v8h-32zM272 296h32v8h-32zM320 296h8v8h-8zM344 296h8v8h-8zM368 296h56v8h-56zM440 296h32v8h-32zM488 296h8v8h-8zM560 296h16v8h-16zM8 304h8v8h-8zM32 304h8v8h-8zM152 304h8v8h-8zM176 304h8v8h-8zM248 304h8v8h-8zM296 304h8v8h-8zM320 304h8v8h-8zM344 304h8v8h-8zM392 304h8v8h-8zM416 304h8v8h-8zM440 304h8v8h-8zM464 304h8v8h-8zM488 304h8v8h-8zM560 304h8v8h-8zM8 312h8v8h-8zM32 312h8v8h-8zM152 312h8v8h-8zM176 312h8v8h-8zM248 312h8v8h-8zM296 312h8v8h-8zM320 312h8v8h-8zM344 312h8v8h-8zM392 312h8v8h-8zM416 312h8v8h-8zM440 312h8v8h-8zM464 312h8v8h-8zM488 312h8v8h-8zM560 312h8v8h-8zM0 320h40v8h-40zM56 320h56v8h-56zM128 320h32v8h-32zM176 320h8v8h-8zM200 320h104v8h-104zM320 320h32v8h-32zM392 320h32v8h-32zM440 320h32v8h-32zM488 320h56v8h-56zM560 320h16v8h-16zM8 328h8v8h-8zM56 328h8v8h-8zM104 328h8v8h-8zM128 328h8v8h-8zM176 328h8v8h-8zM200 328h8v8h-8zM248 328h8v8h-8zM272 328h8v8h-8zM296 328h8v8h-8zM440 328h8v8h-8zM464 328h8v8h-8zM536 328h8v8h-8zM560 328h8v8h-8zM8 336h8v8h-8zM56 336h8v8h-8zM104 336h8v8h-8zM128 336h8v8h-8zM176 336h8v8h-8zM200 336h8v8h-8zM248 336h8v8h-8zM272 336h8v8h-8zM296 336h8v8h-8zM440 336h8v8h-8zM464 336h8v8h-8zM536 336h8v8h-8zM560 336h8v8h-8zM0 344h40v8h-40zM56 344h8v8h-8zM104 344h8v8h-8zM128 344h32v8h-32zM176 344h32v8h-32zM248 344h200v8h-200zM464 344h8v8h-8zM536 344h8v8h-8zM560 344h16v8h-16zM32 352h8v8h-8zM56 352h8v8h-8zM104 352h8v8h-8zM128 352h8v8h-8zM152 352h8v8h-8zM176 352h8v8h-8zM248 352h8v8h-8zM272 352h8v8h-8zM296 352h8v8h-8zM320 352h8v8h-8zM440 352h8v8h-8zM464 352h8v8h-8zM536 352h8v8h-8zM32 360h8v8h-8zM56 360h8v8h-8zM104 360h8v8h-8zM128 360h8v8h-8zM152 360h8v8h-8zM176 360h8v8h-8zM248 360h8v8h-8zM272 360h8v8h-8zM296 360h8v8h-8zM320 360h8v8h-8zM440 360h8v8h-8zM464 360h8v8h-8zM536 360h8v8h-8zM8 368h56v8h-56zM80 368h56v8h-56zM152 368h128v8h-128zM296 368h104v8h-104zM416 368h32v8h-32zM464 368h8v8h-8zM488 368h56v8h-56zM560 368h16v8h-16zM8 376h8v8h-8zM80 376h8v8h-8zM320 376h8v8h-8zM344 376h8v8h-8zM392 376h8v8h-8zM416 376h8v8h-8zM464 376h8v8h-8zM488 376h8v8h-8zM560 376h8v8h-8z"/></svg>