<svg xmlns="http://www.w3.org/2000/svg" width="640" height="448" viewBox="0 0 640 448" shape-rendering="crispEdges"><rect width="640" height="448" fill="#ffffff"/><path fill="#1d4e89" d="M0 0h32v8h-32zM96 0h104v8h-104zM232 0h24v8h-24zM296 0h40v8h-40zM376 0h80v8h-80zM496 0h32v8h-32zM560 0h16v8h-16zM632 0h8v8h-8zM0 8h40v8h-40zM88 8h120v8h-120zM240 8h16v8h-16zM304 8h32v8h-32zM368 8h96v8h-96zM496 8h32v8h-32zM560 8h16v8h-16zM624 8h16v8h-16zM32 16h16v8h-16zM80 16h136v8h-136zM248 16h40v8h-40zM312 16h24v8h-24zM360 16h112v8h-112zM496 16h32v8h-32zM560 16h48v8h-48zM616 16h24v8h-24zM32 24h24v8h-24zM72 24h152v8h-152zM256 24h32v8h-32zM320 24h16v8h-16zM352 24h128v8h-128zM496 24h32v8h-32zM560 24h80v8h-80zM40 32h104v8h-104zM160 32h64v8h-64zM264 32h24v8h-24zM352 32h16v8h-16zM384 32h56v8h-56zM448 32h64v8h-64zM528 32h112v8h-112zM48 40h40v8h-40zM96 40h48v8h-48zM168 40h56v8h-56zM272 40h16v8h-16zM344 40h24v8h-24zM384 40h48v8h-48zM448 40h56v8h-56zM528 40h40v8h-40zM576 40h64v8h-64zM0 48h32v8h-32zM56 48h24v8h-24zM128 48h16v8h-16zM176 48h80v8h-80zM280 48h40v8h-40zM336 48h32v8h-32zM416 48h8v8h-8zM480 48h16v8h-16zM528 48h32v8h-32zM608 48h32v8h-32zM0 56h32v8h-32zM64 56h8v8h-8zM128 56h16v8h-16zM184 56h72v8h-72zM288 56h32v8h-32zM328 56h40v8h-40zM480 56h8v8h-8zM528 56h24v8h-24zM608 56h32v8h-32zM0 64h32v8h-32zM88 64h8v8h-8zM160 64h8v8h-8zM192 64h48v8h-48zM288 64h64v8h-64zM432 64h24v8h-24zM512 64h32v8h-32zM608 64h32v8h-32zM8 72h24v8h-24zM80 72h16v8h-16zM152 72h24v8h-24zM192 72h48v8h-48zM288 72h64v8h-64zM432 72h32v8h-32zM512 72h40v8h-40zM600 72h40v8h-40zM16 80h48v8h-48zM72 80h56v8h-56zM144 80h40v8h-40zM224 80h16v8h-16zM320 80h64v8h-64zM432 80h40v8h-40zM544 80h16v8h-16zM592 80h48v8h-48zM24 88h104v8h-104zM136 88h56v8h-56zM224 88h16v8h-16zM320 88h64v8h-64zM432 88h48v8h-48zM544 88h24v8h-24zM584 88h56v8h-56zM16 96h40v8h-40zM64 96h136v8h-136zM240 96h24v8h-24zM320 96h64v8h-64zM416 96h48v8h-48zM504 96h8v8h-8zM552 96h48v8h-48zM616 96h24v8h-24zM16 104h32v8h-32zM72 104h80v8h-80zM160 104h48v8h-48zM240 104h32v8h-32zM320 104h64v8h-64zM424 104h40v8h-40zM496 104h24v8h-24zM560 104h32v8h-32zM624 104h16v8h-16zM16 112h24v8h-24zM80 112h64v8h-64zM192 112h24v8h-24zM240 112h40v8h-40zM352 112h64v8h-64zM432 112h32v8h-32zM488 112h40v8h-40zM568 112h16v8h-16zM632 112h8v8h-8zM16 120h16v8h-16zM88 120h48v8h-48zM192 120h32v8h-32zM240 120h48v8h-48zM352 120h64v8h-64zM440 120h24v8h-24zM480 120h56v8h-56zM0 128h32v8h-32zM88 128h24v8h-24zM200 128h80v8h-80zM312 128h8v8h-8zM360 128h40v8h-40zM440 128h8v8h-8zM480 128h64v8h-64zM592 128h16v8h-16zM8 136h24v8h-24zM80 136h32v8h-32zM208 136h64v8h-64zM304 136h16v8h-16zM368 136h32v8h-32zM432 136h16v8h-16zM480 136h72v8h-72zM592 136h24v8h-24zM16 144h48v8h-48zM72 144h40v8h-40zM216 144h48v8h-48zM296 144h56v8h-56zM376 144h24v8h-24zM424 144h56v8h-56zM512 144h48v8h-48zM592 144h32v8h-32zM24 152h88v8h-88zM224 152h32v8h-32zM288 152h64v8h-64zM384 152h16v8h-16zM416 152h64v8h-64zM512 152h56v8h-56zM592 152h40v8h-40zM0 160h8v8h-8zM32 160h56v8h-56zM152 160h8v8h-8zM232 160h24v8h-24zM288 160h56v8h-56zM424 160h48v8h-48zM512 160h88v8h-88zM608 160h32v8h-32zM0 168h16v8h-16zM40 168h40v8h-40zM144 168h16v8h-16zM240 168h16v8h-16zM288 168h48v8h-48zM432 168h32v8h-32zM504 168h32v8h-32zM544 168h48v8h-48zM616 168h24v8h-24zM0 176h24v8h-24zM48 176h24v8h-24zM136 176h56v8h-56zM248 176h40v8h-40zM320 176h8v8h-8zM440 176h16v8h-16zM496 176h32v8h-32zM576 176h8v8h-8zM624 176h16v8h-16zM0 184h32v8h-32zM56 184h8v8h-8zM128 184h64v8h-64zM256 184h32v8h-32zM488 184h32v8h-32zM632 184h8v8h-8zM0 192h32v8h-32zM80 192h16v8h-16zM128 192h48v8h-48zM256 192h16v8h-16zM432 192h24v8h-24zM480 192h32v8h-32zM560 192h16v8h-16zM624 192h16v8h-16zM8 200h32v8h-32zM80 200h24v8h-24zM128 200h48v8h-48zM248 200h24v8h-24zM376 200h8v8h-8zM432 200h32v8h-32zM488 200h24v8h-24zM560 200h16v8h-16zM624 200h16v8h-16zM16 208h32v8h-32zM80 208h32v8h-32zM160 208h16v8h-16zM240 208h32v8h-32zM368 208h48v8h-48zM432 208h40v8h-40zM496 208h48v8h-48zM560 208h48v8h-48zM624 208h16v8h-16zM24 216h32v8h-32zM80 216h40v8h-40zM160 216h16v8h-16zM232 216h40v8h-40zM360 216h56v8h-56zM432 216h48v8h-48zM504 216h40v8h-40zM560 216h48v8h-48zM624 216h16v8h-16zM32 224h48v8h-48zM96 224h32v8h-32zM208 224h40v8h-40zM304 224h16v8h-16zM360 224h48v8h-48zM424 224h40v8h-40zM504 224h24v8h-24zM552 224h72v8h-72zM32 232h48v8h-48zM96 232h32v8h-32zM208 232h32v8h-32zM304 232h24v8h-24zM368 232h32v8h-32zM432 232h32v8h-32zM496 232h32v8h-32zM560 232h64v8h-64zM64 240h16v8h-16zM128 240h32v8h-32zM208 240h24v8h-24zM304 240h32v8h-32zM376 240h16v8h-16zM440 240h24v8h-24zM488 240h40v8h-40zM568 240h56v8h-56zM64 248h16v8h-16zM128 248h32v8h-32zM208 248h16v8h-16zM304 248h40v8h-40zM448 248h16v8h-16zM480 248h48v8h-48zM576 248h48v8h-48zM16 256h16v8h-16zM120 256h40v8h-40zM192 256h40v8h-40zM272 256h80v8h-80zM464 256h48v8h-48zM560 256h32v8h-32zM632 256h8v8h-8zM16 264h16v8h-16zM112 264h48v8h-48zM200 264h40v8h-40zM272 264h40v8h-40zM328 264h24v8h-24zM408 264h8v8h-8zM464 264h48v8h-48zM560 264h32v8h-32zM624 264h16v8h-16zM16 272h48v8h-48zM104 272h88v8h-88zM208 272h40v8h-40zM272 272h32v8h-32zM336 272h48v8h-48zM400 272h48v8h-48zM464 272h80v8h-80zM560 272h32v8h-32zM616 272h24v8h-24zM16 280h48v8h-48zM96 280h96v8h-96zM216 280h40v8h-40zM272 280h24v8h-24zM344 280h40v8h-40zM392 280h56v8h-56zM464 280h80v8h-80zM560 280h32v8h-32zM608 280h32v8h-32zM8 288h56v8h-56zM96 288h80v8h-80zM216 288h40v8h-40zM264 288h32v8h-32zM352 288h120v8h-120zM488 288h72v8h-72zM608 288h32v8h-32zM16 296h40v8h-40zM96 296h80v8h-80zM208 296h40v8h-40zM272 296h32v8h-32zM352 296h56v8h-56zM416 296h48v8h-48zM496 296h64v8h-64zM608 296h32v8h-32zM24 304h24v8h-24zM128 304h48v8h-48zM200 304h40v8h-40zM280 304h32v8h-32zM384 304h16v8h-16zM448 304h8v8h-8zM504 304h56v8h-56zM32 312h8v8h-8zM128 312h48v8h-48zM192 312h40v8h-40zM288 312h32v8h-32zM384 312h8v8h-8zM512 312h48v8h-48zM112 320h48v8h-48zM192 320h32v8h-32zM280 320h40v8h-40zM416 320h8v8h-8zM480 320h8v8h-8zM512 320h32v8h-32zM608 320h8v8h-8zM24 328h8v8h-8zM112 328h40v8h-40zM200 328h32v8h-32zM272 328h48v8h-48zM408 328h24v8h-24zM472 328h24v8h-24zM512 328h40v8h-40zM600 328h24v8h-24zM16 336h48v8h-48zM112 336h32v8h-32zM208 336h32v8h-32zM264 336h88v8h-88zM400 336h40v8h-40zM464 336h40v8h-40zM544 336h16v8h-16zM592 336h40v8h-40zM8 344h56v8h-56zM112 344h24v8h-24zM216 344h32v8h-32zM256 344h96v8h-96zM392 344h56v8h-56zM456 344h56v8h-56zM544 344h24v8h-24zM584 344h56v8h-56zM8 352h56v8h-56zM96 352h40v8h-40zM216 352h56v8h-56zM296 352h56v8h-56zM384 352h80v8h-80zM480 352h32v8h-32zM544 352h80v8h-80zM16 360h40v8h-40zM88 360h56v8h-56zM208 360h64v8h-64zM304 360h48v8h-48zM384 360h80v8h-80zM488 360h24v8h-24zM544 360h80v8h-80zM24 368h24v8h-24zM80 368h72v8h-72zM200 368h72v8h-72zM312 368h72v8h-72zM416 368h48v8h-48zM496 368h48v8h-48zM576 368h48v8h-48zM32 376h8v8h-8zM72 376h88v8h-88zM192 376h80v8h-80zM320 376h64v8h-64zM416 376h48v8h-48zM504 376h40v8h-40zM576 376h48v8h-48zM64 384h48v8h-48zM136 384h24v8h-24zM192 384h64v8h-64zM320 384h64v8h-64zM400 384h48v8h-48zM512 384h24v8h-24zM560 384h32v8h-32zM624 384h16v8h-16zM56 392h56v8h-56zM144 392h16v8h-16zM192 392h64v8h-64zM320 392h56v8h-56zM400 392h48v8h-48zM504 392h24v8h-24zM560 392h32v8h-32zM624 392h16v8h-16zM0 400h32v8h-32zM48 400h64v8h-64zM152 400h40v8h-40zM224 400h64v8h-64zM352 400h16v8h-16zM400 400h80v8h-80zM496 400h24v8h-24zM560 400h32v8h-32zM624 400h16v8h-16zM0 408h32v8h-32zM40 408h72v8h-72zM160 408h32v8h-32zM224 408h64v8h-64zM352 408h8v8h-8zM400 408h80v8h-80zM488 408h24v8h-24zM560 408h32v8h-32zM624 408h16v8h-16zM0 416h104v8h-104zM144 416h48v8h-48zM224 416h64v8h-64zM376 416h120v8h-120zM544 416h32v8h-32zM608 416h32v8h-32zM0 424h24v8h-24zM40 424h72v8h-72zM144 424h48v8h-48zM232 424h64v8h-64zM368 424h128v8h-128zM552 424h24v8h-24zM608 424h32v8h-32zM0 432h16v8h-16zM48 432h72v8h-72zM144 432h80v8h-80zM240 432h64v8h-64zM360 432h136v8h-136zM560 432h48v8h-48zM0 440h8v8h-8zM56 440h72v8h-72zM144 440h80v8h-80zM248 440h64v8h-64zM352 440h144v8h-144zM568 440h40v8h-40z"/><path fill="#3a7d44" d="M32 0h64v8h-64zM200 0h32v8h-32zM256 0h40v8h-40zM336 0h40v8h-40zM456 0h40v8h-40zM528 0h32v8h-32zM576 0h56v8h-56zM40 8h48v8h-48zM208 8h32v8h-32zM256 8h48v8h-48zM336 8h32v8h-32zM464 8h32v8h-32zM528 8h32v8h-32zM576 8h48v8h-48zM0 16h32v8h-32zM48 16h32v8h-32zM216 16h32v8h-32zM288 16h24v8h-24zM336 16h24v8h-24zM472 16h24v8h-24zM528 16h32v8h-32zM608 16h8v8h-8zM0 24h32v8h-32zM56 24h16v8h-16zM224 24h32v8h-32zM288 24h32v8h-32zM336 24h16v8h-16zM480 24h16v8h-16zM528 24h32v8h-32zM0 32h40v8h-40zM144 32h16v8h-16zM224 32h40v8h-40zM288 32h64v8h-64zM368 32h16v8h-16zM440 32h8v8h-8zM512 32h16v8h-16zM0 40h48v8h-48zM88 40h8v8h-8zM144 40h24v8h-24zM224 40h48v8h-48zM288 40h56v8h-56zM368 40h16v8h-16zM432 40h16v8h-16zM504 40h24v8h-24zM568 40h8v8h-8zM32 48h24v8h-24zM80 48h48v8h-48zM144 48h32v8h-32zM256 48h24v8h-24zM320 48h16v8h-16zM368 48h48v8h-48zM424 48h56v8h-56zM496 48h32v8h-32zM560 48h48v8h-48zM32 56h32v8h-32zM72 56h56v8h-56zM144 56h40v8h-40zM256 56h32v8h-32zM320 56h8v8h-8zM368 56h112v8h-112zM488 56h40v8h-40zM552 56h56v8h-56zM32 64h56v8h-56zM96 64h64v8h-64zM168 64h24v8h-24zM240 64h48v8h-48zM352 64h80v8h-80zM456 64h56v8h-56zM544 64h64v8h-64zM0 72h8v8h-8zM32 72h48v8h-48zM96 72h56v8h-56zM176 72h16v8h-16zM240 72h48v8h-48zM352 72h80v8h-80zM464 72h48v8h-48zM552 72h48v8h-48zM0 80h16v8h-16zM64 80h8v8h-8zM128 80h16v8h-16zM184 80h40v8h-40zM240 80h80v8h-80zM384 80h48v8h-48zM472 80h72v8h-72zM560 80h32v8h-32zM0 88h24v8h-24zM128 88h8v8h-8zM192 88h32v8h-32zM240 88h80v8h-80zM384 88h48v8h-48zM480 88h64v8h-64zM568 88h16v8h-16zM0 96h16v8h-16zM56 96h8v8h-8zM200 96h40v8h-40zM264 96h56v8h-56zM384 96h32v8h-32zM464 96h40v8h-40zM512 96h40v8h-40zM600 96h16v8h-16zM0 104h16v8h-16zM48 104h24v8h-24zM152 104h8v8h-8zM208 104h32v8h-32zM272 104h48v8h-48zM384 104h40v8h-40zM464 104h32v8h-32zM520 104h40v8h-40zM592 104h32v8h-32zM0 112h16v8h-16zM40 112h40v8h-40zM144 112h48v8h-48zM216 112h24v8h-24zM280 112h72v8h-72zM416 112h16v8h-16zM464 112h24v8h-24zM528 112h40v8h-40zM584 112h48v8h-48zM0 120h16v8h-16zM32 120h56v8h-56zM136 120h56v8h-56zM224 120h16v8h-16zM288 120h64v8h-64zM416 120h24v8h-24zM464 120h16v8h-16zM536 120h104v8h-104zM32 128h56v8h-56zM112 128h88v8h-88zM280 128h32v8h-32zM320 128h40v8h-40zM400 128h40v8h-40zM448 128h32v8h-32zM544 128h48v8h-48zM608 128h32v8h-32zM0 136h8v8h-8zM32 136h48v8h-48zM112 136h96v8h-96zM272 136h32v8h-32zM320 136h48v8h-48zM400 136h32v8h-32zM448 136h32v8h-32zM552 136h40v8h-40zM616 136h24v8h-24zM0 144h16v8h-16zM64 144h8v8h-8zM112 144h104v8h-104zM264 144h32v8h-32zM352 144h24v8h-24zM400 144h24v8h-24zM480 144h32v8h-32zM560 144h32v8h-32zM624 144h16v8h-16zM0 152h24v8h-24zM112 152h112v8h-112zM256 152h32v8h-32zM352 152h32v8h-32zM400 152h16v8h-16zM480 152h32v8h-32zM568 152h24v8h-24zM632 152h8v8h-8zM8 160h24v8h-24zM88 160h64v8h-64zM160 160h72v8h-72zM256 160h32v8h-32zM344 160h80v8h-80zM472 160h40v8h-40zM600 160h8v8h-8zM16 168h24v8h-24zM80 168h64v8h-64zM160 168h80v8h-80zM256 168h32v8h-32zM336 168h96v8h-96zM464 168h40v8h-40zM536 168h8v8h-8zM592 168h24v8h-24zM24 176h24v8h-24zM72 176h64v8h-64zM192 176h56v8h-56zM288 176h32v8h-32zM328 176h112v8h-112zM456 176h40v8h-40zM528 176h48v8h-48zM584 176h40v8h-40zM32 184h24v8h-24zM64 184h64v8h-64zM192 184h64v8h-64zM288 184h200v8h-200zM520 184h112v8h-112zM32 192h48v8h-48zM96 192h32v8h-32zM176 192h80v8h-80zM272 192h160v8h-160zM456 192h24v8h-24zM512 192h48v8h-48zM576 192h48v8h-48zM0 200h8v8h-8zM40 200h40v8h-40zM104 200h24v8h-24zM176 200h72v8h-72zM272 200h104v8h-104zM384 200h48v8h-48zM464 200h24v8h-24zM512 200h48v8h-48zM576 200h48v8h-48zM0 208h16v8h-16zM48 208h32v8h-32zM112 208h48v8h-48zM176 208h64v8h-64zM272 208h96v8h-96zM416 208h16v8h-16zM472 208h24v8h-24zM544 208h16v8h-16zM608 208h16v8h-16zM0 216h24v8h-24zM56 216h24v8h-24zM120 216h40v8h-40zM176 216h56v8h-56zM272 216h88v8h-88zM416 216h16v8h-16zM480 216h24v8h-24zM544 216h16v8h-16zM608 216h16v8h-16zM0 224h32v8h-32zM80 224h16v8h-16zM128 224h80v8h-80zM248 224h56v8h-56zM320 224h40v8h-40zM408 224h16v8h-16zM464 224h40v8h-40zM528 224h24v8h-24zM624 224h16v8h-16zM0 232h32v8h-32zM80 232h16v8h-16zM128 232h80v8h-80zM240 232h64v8h-64zM328 232h40v8h-40zM400 232h32v8h-32zM464 232h32v8h-32zM528 232h32v8h-32zM624 232h16v8h-16zM0 240h64v8h-64zM80 240h48v8h-48zM160 240h48v8h-48zM232 240h72v8h-72zM336 240h40v8h-40zM392 240h48v8h-48zM464 240h24v8h-24zM528 240h40v8h-40zM624 240h16v8h-16zM0 248h64v8h-64zM80 248h48v8h-48zM160 248h48v8h-48zM224 248h80v8h-80zM344 248h104v8h-104zM464 248h16v8h-16zM528 248h48v8h-48zM624 248h16v8h-16zM0 256h16v8h-16zM32 256h88v8h-88zM160 256h32v8h-32zM232 256h40v8h-40zM352 256h112v8h-112zM512 256h48v8h-48zM592 256h40v8h-40zM0 264h16v8h-16zM32 264h80v8h-80zM160 264h40v8h-40zM240 264h32v8h-32zM312 264h16v8h-16zM352 264h56v8h-56zM416 264h48v8h-48zM512 264h48v8h-48zM592 264h32v8h-32zM0 272h16v8h-16zM64 272h40v8h-40zM192 272h16v8h-16zM248 272h24v8h-24zM304 272h32v8h-32zM384 272h16v8h-16zM448 272h16v8h-16zM544 272h16v8h-16zM592 272h24v8h-24zM0 280h16v8h-16zM64 280h32v8h-32zM192 280h24v8h-24zM256 280h16v8h-16zM296 280h48v8h-48zM384 280h8v8h-8zM448 280h16v8h-16zM544 280h16v8h-16zM592 280h16v8h-16zM0 288h8v8h-8zM64 288h32v8h-32zM176 288h40v8h-40zM256 288h8v8h-8zM296 288h56v8h-56zM472 288h16v8h-16zM560 288h48v8h-48zM0 296h16v8h-16zM56 296h40v8h-40zM176 296h32v8h-32zM248 296h24v8h-24zM304 296h48v8h-48zM408 296h8v8h-8zM464 296h32v8h-32zM560 296h48v8h-48zM0 304h24v8h-24zM48 304h80v8h-80zM176 304h24v8h-24zM240 304h40v8h-40zM312 304h72v8h-72zM400 304h48v8h-48zM456 304h48v8h-48zM560 304h80v8h-80zM0 312h32v8h-32zM40 312h88v8h-88zM176 312h16v8h-16zM232 312h56v8h-56zM320 312h64v8h-64zM392 312h120v8h-120zM560 312h80v8h-80zM0 320h112v8h-112zM160 320h32v8h-32zM224 320h56v8h-56zM320 320h96v8h-96zM424 320h56v8h-56zM488 320h24v8h-24zM544 320h64v8h-64zM616 320h24v8h-24zM0 328h24v8h-24zM32 328h80v8h-80zM152 328h48v8h-48zM232 328h40v8h-40zM320 328h88v8h-88zM432 328h40v8h-40zM496 328h16v8h-16zM552 328h48v8h-48zM624 328h16v8h-16zM0 336h16v8h-16zM64 336h48v8h-48zM144 336h64v8h-64zM240 336h24v8h-24zM352 336h48v8h-48zM440 336h24v8h-24zM504 336h40v8h-40zM560 336h32v8h-32zM632 336h8v8h-8zM0 344h8v8h-8zM64 344h48v8h-48zM136 344h80v8h-80zM248 344h8v8h-8zM352 344h40v8h-40zM448 344h8v8h-8zM512 344h32v8h-32zM568 344h16v8h-16zM0 352h8v8h-8zM64 352h32v8h-32zM136 352h80v8h-80zM272 352h24v8h-24zM352 352h32v8h-32zM464 352h16v8h-16zM512 352h32v8h-32zM624 352h16v8h-16zM0 360h16v8h-16zM56 360h32v8h-32zM144 360h64v8h-64zM272 360h32v8h-32zM352 360h32v8h-32zM464 360h24v8h-24zM512 360h32v8h-32zM624 360h16v8h-16zM0 368h24v8h-24zM48 368h32v8h-32zM152 368h48v8h-48zM272 368h40v8h-40zM384 368h32v8h-32zM464 368h32v8h-32zM544 368h32v8h-32zM624 368h16v8h-16zM0 376h32v8h-32zM40 376h32v8h-32zM160 376h32v8h-32zM272 376h48v8h-48zM384 376h32v8h-32zM464 376h40v8h-40zM544 376h32v8h-32zM624 376h16v8h-16zM0 384h64v8h-64zM112 384h24v8h-24zM160 384h32v8h-32zM256 384h64v8h-64zM384 384h16v8h-16zM448 384h64v8h-64zM536 384h24v8h-24zM592 384h32v8h-32zM0 392h56v8h-56zM112 392h32v8h-32zM160 392h32v8h-32zM256 392h64v8h-64zM376 392h24v8h-24zM448 392h56v8h-56zM528 392h32v8h-32zM592 392h32v8h-32zM32 400h16v8h-16zM112 400h40v8h-40zM192 400h32v8h-32zM288 400h64v8h-64zM368 400h32v8h-32zM480 400h16v8h-16zM520 400h40v8h-40zM592 400h32v8h-32zM32 408h8v8h-8zM112 408h48v8h-48zM192 408h32v8h-32zM288 408h64v8h-64zM360 408h40v8h-40zM480 408h8v8h-8zM512 408h48v8h-48zM592 408h32v8h-32zM104 416h40v8h-40zM192 416h32v8h-32zM288 416h88v8h-88zM496 416h48v8h-48zM576 416h32v8h-32zM24 424h16v8h-16zM112 424h32v8h-32zM192 424h40v8h-40zM296 424h72v8h-72zM496 424h56v8h-56zM576 424h32v8h-32zM16 432h32v8h-32zM120 432h24v8h-24zM224 432h16v8h-16zM304 432h56v8h-56zM496 432h64v8h-64zM608 432h32v8h-32zM8 440h48v8h-48zM128 440h16v8h-16zM224 440h24v8h-24zM312 440h40v8h-40zM496 440h72v8h-72zM608 440h32v8h-32z"/></svg>