<svg xmlns="http://www.w3.org/2000/svg" width="618" height="376" viewBox="0 0 618 376">
<rect width="618" height="376" fill="#0d1017"/>
<path d="M12 12H34M12 12V34M34 12H56M34 12V34M56 12H78M78 12H100M100 12H122M100 12V34M122 12H144M144 12H166M166 12H188M188 12H210M188 12V34M210 12H232M232 12H254M254 12H276M276 12H298M276 12V34M298 12H320M320 12H342M342 12H364M342 12V34M364 12H386M364 12V34M386 12H408M408 12H430M430 12H452M452 12H474M452 12V34M474 12H496M496 12H518M518 12H540M540 12H562M562 12H584M584 12H606M606 12V34M12 34V56M56 34H78M56 34V56M78 34V56M100 34V56M122 34H144M144 34H166M166 34V56M210 34H232M210 34V56M232 34H254M254 34V56M276 34V56M298 34H320M320 34V56M364 34V56M386 34H408M408 34H430M408 34V56M430 34V56M474 34V56M496 34H518M518 34V56M540 34H562M584 34V56M606 34V56M12 56H34M12 56V78M34 56H56M78 56V78M100 56V78M122 56H144M122 56V78M144 56V78M166 56H188M166 56V78M188 56H210M232 56V78M276 56V78M298 56V78M320 56V78M342 56H364M342 56V78M364 56H386M386 56V78M408 56V78M430 56H452M452 56H474M474 56H496M496 56V78M518 56H540M540 56H562M562 56H584M562 56V78M606 56V78M12 78V100M34 78H56M56 78V100M78 78V100M100 78V100M144 78V100M166 78V100M188 78H210M188 78V100M232 78V100M254 78H276M276 78V100M298 78V100M320 78H342M320 78V100M364 78V100M386 78V100M408 78H430M430 78V100M452 78H474M452 78V100M496 78H518M518 78V100M540 78V100M562 78H584M584 78V100M606 78V100M12 100H34M12 100V122M34 100V122M56 100V122M78 100V122M100 100H122M122 100H144M144 100V122M188 100V122M210 100H232M254 100V122M276 100H298M298 100V122M342 100H364M342 100V122M386 100H408M408 100V122M452 100V122M474 100H496M496 100V122M518 100V122M540 100H562M562 100V122M584 100V122M606 100V122M12 122V144M56 122V144M78 122H100M100 122H122M122 122V144M144 122V144M166 122V144M188 122V144M210 122V144M232 122H254M254 122H276M276 122V144M298 122V144M320 122H342M364 122H386M386 122V144M408 122H430M430 122H452M452 122H474M496 122V144M518 122V144M540 122H562M562 122V144M584 122V144M606 122V144M12 144H34M12 144V166M34 144H56M56 144H78M56 144V166M100 144V166M144 144V166M166 144V166M188 144V166M210 144H232M232 144V166M254 144H276M276 144V166M298 144H320M320 144H342M320 144V166M342 144H364M386 144H408M386 144V166M430 144H452M430 144V166M474 144V166M518 144H540M540 144V166M562 144V166M584 144V166M606 144V166M12 166V188M34 166V188M78 166H100M78 166V188M100 166H122M144 166V188M166 166V188M188 166H210M210 166V188M232 166H254M276 166H298M298 166V188M320 166V188M342 166H364M364 166V188M386 166V188M408 166H430M430 166V188M452 166H474M474 166H496M474 166V188M496 166H518M518 166V188M540 166V188M562 166V188M606 166V188M12 188V210M34 188H56M34 188V210M56 188H78M78 188V210M100 188H122M122 188H144M122 188V210M144 188H166M166 188V210M188 188V210M210 188V210M232 188H254M254 188H276M276 188H298M298 188V210M342 188V210M364 188H386M386 188V210M430 188H452M430 188V210M452 188V210M496 188V210M540 188V210M562 188V210M584 188H606M606 188V210M12 210V232M34 210V232M56 210V232M78 210H100M100 210V232M122 210V232M144 210V232M166 210V232M210 210H232M210 210V232M232 210H254M254 210H276M276 210V232M320 210H342M342 210H364M386 210H408M408 210V232M452 210H474M452 210V232M474 210H496M496 210H518M496 210V232M518 210H540M562 210H584M606 210V232M12 232V254M56 232V254M78 232V254M100 232V254M144 232V254M166 232V254M188 232H210M232 232H254M254 232V254M276 232H298M276 232V254M298 232H320M320 232H342M342 232V254M364 232H386M386 232H408M408 232H430M452 232V254M474 232V254M518 232V254M540 232H562M540 232V254M562 232H584M584 232V254M606 232V254M12 254V276M34 254H56M56 254V276M100 254H122M122 254H144M144 254V276M166 254H188M188 254V276M210 254H232M232 254H254M232 254V276M276 254V276M298 254H320M320 254V276M342 254H364M386 254H408M408 254H430M430 254H452M430 254V276M474 254H496M496 254V276M518 254H540M518 254V276M562 254V276M606 254V276M12 276H34M12 276V298M56 276H78M78 276H100M100 276H122M122 276V298M144 276H166M188 276H210M188 276V298M232 276V298M254 276H276M276 276H298M298 276V298M320 276H342M342 276H364M364 276H386M386 276H408M408 276V298M452 276H474M496 276H518M496 276V298M540 276H562M540 276V298M562 276H584M584 276V298M606 276V298M12 298V320M34 298H56M56 298H78M78 298H100M100 298V320M122 298H144M144 298H166M144 298V320M166 298H188M188 298H210M210 298V320M232 298H254M254 298H276M276 298V320M298 298H320M342 298H364M342 298V320M386 298V320M408 298H430M430 298V320M452 298H474M474 298H496M518 298H540M518 298V320M562 298H584M584 298V320M606 298V320M12 320V342M34 320H56M56 320H78M56 320V342M100 320H122M122 320V342M144 320V342M166 320V342M188 320V342M210 320V342M232 320H254M232 320V342M254 320H276M276 320H298M298 320H320M320 320V342M342 320V342M364 320H386M386 320H408M408 320V342M430 320H452M474 320H496M474 320V342M496 320H518M540 320H562M540 320V342M584 320V342M606 320V342M12 342V364M12 364H34M34 364H56M56 342V364M56 364H78M78 342H100M78 364H100M100 342H122M100 364H122M122 364H144M144 342H166M144 364H166M166 364H188M188 342V364M188 364H210M210 342H232M210 364H232M232 364H254M254 342V364M254 364H276M276 342H298M276 364H298M298 364H320M320 342H342M320 364H342M342 342H364M342 364H364M364 342H386M364 364H386M386 364H408M408 342H430M408 364H430M430 342H452M430 364H452M452 342H474M452 364H474M474 364H496M496 342H518M496 364H518M518 342H540M518 364H540M540 364H562M562 342V364M562 364H584M606 342V364M584 364H606" fill="none" stroke="#5b6478" stroke-width="2" stroke-linecap="square"/>
<polyline points="23.0,23.0 23.0,45.0 45.0,45.0 45.0,23.0 67.0,23.0 89.0,23.0 89.0,45.0 89.0,67.0 89.0,89.0 89.0,111.0 111.0,111.0 133.0,111.0 133.0,133.0 133.0,155.0 111.0,155.0 111.0,133.0 89.0,133.0 89.0,155.0 67.0,155.0 67.0,177.0 45.0,177.0 45.0,155.0 23.0,155.0 23.0,177.0 23.0,199.0 23.0,221.0 23.0,243.0 23.0,265.0 45.0,265.0 45.0,287.0 67.0,287.0 89.0,287.0 111.0,287.0 111.0,309.0 133.0,309.0 133.0,331.0 133.0,353.0 155.0,353.0 177.0,353.0 177.0,331.0 177.0,309.0 199.0,309.0 199.0,331.0 199.0,353.0 221.0,353.0 243.0,353.0 243.0,331.0 265.0,331.0 265.0,353.0 287.0,353.0 309.0,353.0 331.0,353.0 353.0,353.0 375.0,353.0 397.0,353.0 419.0,353.0 441.0,353.0 463.0,353.0 485.0,353.0 507.0,353.0 529.0,353.0 551.0,353.0 551.0,331.0 573.0,331.0 573.0,353.0 595.0,353.0" fill="none" stroke="#21d4fd" stroke-width="3" stroke-linejoin="round" stroke-linecap="round" opacity="0.9"/>
<circle cx="23.0" cy="23.0" r="6.2" fill="#2ecc71"/>
<circle cx="595.0" cy="353.0" r="6.2" fill="#ff4fa3"/>
</svg>
