<svg xmlns="http://www.w3.org/2000/svg" width="618" height="376" viewBox="0 0 618 376">
<rect width="618" height="376" fill="#0d1017"/>
<path d="M12 12H34M12 12V34M34 12H56M56 12H78M56 12V34M78 12H100M100 12H122M122 12H144M122 12V34M144 12H166M166 12H188M188 12H210M188 12V34M210 12H232M232 12H254M254 12H276M276 12H298M276 12V34M298 12H320M320 12H342M342 12H364M364 12H386M364 12V34M386 12H408M408 12H430M408 12V34M430 12H452M452 12H474M474 12H496M496 12H518M518 12H540M518 12V34M540 12H562M562 12H584M584 12H606M606 12V34M12 34H34M12 34V56M34 34V56M56 34H78M100 34V56M122 34H144M166 34V56M188 34V56M210 34V56M232 34H254M232 34V56M254 34V56M276 34H298M320 34H342M320 34V56M342 34V56M364 34V56M386 34V56M408 34V56M430 34V56M452 34H474M474 34H496M474 34V56M496 34V56M518 34V56M540 34H562M562 34H584M584 34V56M606 34V56M12 56V78M34 56H56M56 56H78M78 56H100M100 56H122M122 56H144M144 56H166M166 56V78M188 56H210M210 56V78M232 56V78M254 56H276M276 56H298M298 56H320M320 56V78M364 56V78M386 56V78M408 56H430M430 56H452M474 56V78M518 56V78M540 56H562M540 56V78M562 56H584M606 56V78M12 78V100M34 78H56M34 78V100M56 78H78M78 78H100M100 78H122M122 78H144M144 78V100M166 78H188M166 78V100M188 78V100M210 78V100M232 78H254M254 78H276M276 78H298M298 78V100M342 78H364M386 78H408M386 78V100M430 78H452M430 78V100M452 78H474M474 78V100M496 78H518M496 78V100M518 78V100M540 78V100M562 78H584M584 78V100M606 78V100M12 100V122M34 100V122M56 100H78M78 100H100M100 100H122M122 100H144M188 100V122M210 100V122M232 100H254M232 100V122M254 100H276M276 100V122M298 100H320M320 100H342M320 100V122M342 100H364M364 100H386M364 100V122M408 100H430M430 100V122M452 100V122M474 100V122M496 100V122M540 100H562M540 100V122M562 100V122M584 100H606M606 100V122M12 122V144M34 122H56M56 122V144M78 122H100M100 122H122M100 122V144M122 122H144M144 122H166M166 122V144M188 122V144M210 122V144M232 122V144M254 122H276M276 122H298M298 122V144M342 122V144M364 122H386M386 122V144M408 122H430M408 122V144M452 122V144M474 122V144M496 122H518M518 122V144M562 122H584M562 122V144M606 122V144M12 144H34M12 144V166M56 144H78M56 144V166M78 144V166M100 144V166M122 144H144M122 144V166M144 144V166M166 144H188M166 144V166M210 144V166M232 144V166M254 144V166M276 144V166M298 144H320M320 144H342M320 144V166M342 144H364M364 144V166M386 144H408M386 144V166M430 144H452M430 144V166M474 144H496M474 144V166M518 144H540M518 144V166M562 144V166M584 144H606M606 144V166M12 166V188M34 166H56M34 166V188M100 166V188M122 166V188M144 166V188M166 166V188M188 166H210M188 166V188M210 166V188M232 166H254M276 166H298M276 166V188M298 166H320M342 166V188M364 166V188M386 166V188M408 166H430M408 166V188M430 166V188M452 166H474M474 166V188M496 166H518M518 166H540M540 166H562M562 166H584M584 166V188M606 166V188M12 188V210M34 188V210M56 188H78M56 188V210M78 188H100M100 188V210M122 188V210M144 188V210M188 188V210M210 188H232M232 188H254M254 188V210M276 188V210M298 188H320M298 188V210M320 188H342M342 188V210M364 188V210M430 188H452M430 188V210M452 188V210M474 188H496M496 188H518M496 188V210M518 188H540M540 188H562M540 188V210M584 188V210M606 188V210M12 210V232M34 210H56M56 210V232M78 210V232M122 210V232M144 210H166M166 210H188M188 210V232M210 210H232M232 210H254M276 210V232M298 210H320M320 210V232M342 210V232M364 210H386M386 210H408M408 210V232M452 210H474M452 210V232M474 210V232M496 210V232M518 210H540M562 210H584M562 210V232M606 210V232M12 232V254M34 232V254M78 232H100M78 232V254M100 232H122M122 232V254M144 232H166M144 232V254M188 232V254M210 232H232M210 232V254M232 232H254M254 232H276M276 232V254M298 232V254M320 232V254M342 232H364M342 232V254M364 232H386M408 232H430M408 232V254M474 232V254M496 232V254M518 232H540M518 232V254M540 232H562M562 232V254M584 232H606M606 232V254M12 254V276M34 254H56M34 254V276M56 254H78M78 254V276M100 254V276M144 254V276M166 254H188M188 254V276M210 254V276M232 254H254M254 254V276M276 254V276M298 254V276M320 254V276M364 254H386M364 254V276M386 254H408M408 254V276M430 254H452M430 254V276M452 254H474M496 254V276M540 254V276M562 254H584M584 254V276M606 254V276M12 276V298M34 276V298M56 276H78M100 276H122M100 276V298M122 276H144M144 276H166M144 276V298M188 276V298M210 276H232M210 276V298M254 276V298M276 276V298M298 276V298M320 276V298M342 276H364M364 276V298M386 276V298M430 276V298M452 276H474M452 276V298M474 276H496M496 276H518M518 276H540M540 276H562M562 276V298M606 276V298M12 298V320M34 298H56M56 298V320M78 298H100M100 298H122M144 298V320M166 298H188M210 298V320M232 298H254M232 298V320M254 298V320M276 298H298M298 298V320M320 298H342M320 298V320M342 298V320M364 298H386M386 298H408M408 298H430M408 298V320M452 298V320M474 298H496M496 298H518M496 298V320M540 298V320M562 298H584M562 298V320M606 298V320M12 320H34M12 320V342M56 320H78M56 320V342M78 320H100M100 320H122M144 320H166M144 320V342M166 320H188M188 320H210M188 320V342M232 320V342M254 320H276M298 320V342M320 320V342M342 320H364M342 320V342M364 320H386M386 320V342M408 320V342M430 320H452M430 320V342M452 320H474M474 320V342M496 320V342M518 320H540M518 320V342M562 320V342M584 320H606M584 320V342M606 320V342M12 342V364M12 364H34M34 342H56M34 364H56M56 342H78M56 364H78M78 342H100M78 364H100M100 342H122M100 364H122M122 342H144M122 364H144M144 364H166M166 342V364M166 364H188M188 364H210M210 342H232M210 342V364M210 364H232M232 364H254M254 342H276M254 364H276M276 342H298M276 364H298M298 364H320M320 342V364M320 364H342M342 364H364M364 342V364M364 364H386M386 364H408M408 364H430M430 342V364M430 364H452M452 342V364M452 364H474M474 364H496M496 342V364M496 364H518M518 342H540M518 364H540M540 342H562M540 364H562M562 364H584M606 342V364M584 364H606" fill="none" stroke="#5b6478" stroke-width="2" stroke-linecap="square"/>
<polyline points="23.0,23.0 45.0,23.0 45.0,45.0 67.0,45.0 89.0,45.0 89.0,23.0 111.0,23.0 111.0,45.0 133.0,45.0 155.0,45.0 155.0,23.0 177.0,23.0 177.0,45.0 177.0,67.0 199.0,67.0 199.0,89.0 199.0,111.0 199.0,133.0 199.0,155.0 177.0,155.0 177.0,177.0 177.0,199.0 155.0,199.0 155.0,177.0 155.0,155.0 155.0,133.0 133.0,133.0 111.0,133.0 111.0,155.0 111.0,177.0 111.0,199.0 111.0,221.0 89.0,221.0 89.0,199.0 67.0,199.0 67.0,221.0 67.0,243.0 45.0,243.0 45.0,221.0 23.0,221.0 23.0,243.0 23.0,265.0 23.0,287.0 23.0,309.0 45.0,309.0 45.0,331.0 23.0,331.0 23.0,353.0 45.0,353.0 67.0,353.0 89.0,353.0 111.0,353.0 133.0,353.0 155.0,353.0 155.0,331.0 177.0,331.0 177.0,353.0 199.0,353.0 199.0,331.0 221.0,331.0 221.0,309.0 221.0,287.0 243.0,287.0 243.0,265.0 221.0,265.0 221.0,243.0 243.0,243.0 265.0,243.0 265.0,265.0 265.0,287.0 265.0,309.0 287.0,309.0 287.0,331.0 265.0,331.0 243.0,331.0 243.0,353.0 265.0,353.0 287.0,353.0 309.0,353.0 309.0,331.0 309.0,309.0 309.0,287.0 309.0,265.0 309.0,243.0 309.0,221.0 287.0,221.0 287.0,199.0 287.0,177.0 309.0,177.0 331.0,177.0 331.0,155.0 353.0,155.0 353.0,177.0 353.0,199.0 353.0,221.0 375.0,221.0 397.0,221.0 397.0,243.0 375.0,243.0 353.0,243.0 353.0,265.0 331.0,265.0 331.0,287.0 353.0,287.0 353.0,309.0 375.0,309.0 397.0,309.0 397.0,331.0 397.0,353.0 419.0,353.0 419.0,331.0 419.0,309.0 441.0,309.0 441.0,287.0 441.0,265.0 463.0,265.0 485.0,265.0 485.0,243.0 485.0,221.0 485.0,199.0 463.0,199.0 463.0,177.0 441.0,177.0 441.0,155.0 463.0,155.0 463.0,133.0 463.0,111.0 463.0,89.0 441.0,89.0 441.0,111.0 441.0,133.0 419.0,133.0 419.0,155.0 397.0,155.0 397.0,177.0 397.0,199.0 375.0,199.0 375.0,177.0 375.0,155.0 375.0,133.0 353.0,133.0 353.0,111.0 331.0,111.0 331.0,133.0 309.0,133.0 309.0,111.0 287.0,111.0 287.0,89.0 265.0,89.0 243.0,89.0 221.0,89.0 221.0,67.0 221.0,45.0 221.0,23.0 243.0,23.0 265.0,23.0 265.0,45.0 287.0,45.0 309.0,45.0 309.0,23.0 331.0,23.0 353.0,23.0 353.0,45.0 353.0,67.0 331.0,67.0 331.0,89.0 353.0,89.0 375.0,89.0 375.0,67.0 375.0,45.0 375.0,23.0 397.0,23.0 397.0,45.0 397.0,67.0 419.0,67.0 441.0,67.0 463.0,67.0 463.0,45.0 441.0,45.0 441.0,23.0 463.0,23.0 485.0,23.0 507.0,23.0 507.0,45.0 507.0,67.0 485.0,67.0 485.0,89.0 485.0,111.0 485.0,133.0 507.0,133.0 507.0,155.0 485.0,155.0 485.0,177.0 507.0,177.0 529.0,177.0 551.0,177.0 573.0,177.0 573.0,199.0 551.0,199.0 551.0,221.0 529.0,221.0 507.0,221.0 507.0,243.0 507.0,265.0 529.0,265.0 529.0,243.0 551.0,243.0 551.0,265.0 573.0,265.0 573.0,287.0 595.0,287.0 595.0,309.0 573.0,309.0 573.0,331.0 573.0,353.0 595.0,353.0" fill="none" stroke="#21d4fd" stroke-width="3" stroke-linejoin="round" stroke-linecap="round" opacity="0.9"/>
<circle cx="23.0" cy="23.0" r="6.2" fill="#2ecc71"/>
<circle cx="595.0" cy="353.0" r="6.2" fill="#ff4fa3"/>
</svg>
